<?xml version="1.0" standalone="no"?>
<!DOCTYPE svg PUBLIC "-//W3C//DTD SVG 1.1//EN" "http://www.w3.org/Graphics/SVG/1.1/DTD/svg11.dtd" >
<svg xmlns="http://www.w3.org/2000/svg" xmlns:xlink="http://www.w3.org/1999/xlink" version="1.1">
<metadata>
Created by FontForge 20170731 at Sun Feb  1 03:28:45 2015
 By Aleksey,,,
Copyright (c) 2014 by Brittney Murphy. All rights reserved.
</metadata>
<defs>
<font id="CheddarJack" horiz-adv-x="235" >
  <font-face 
    font-family="Cheddar Jack"
    font-weight="400"
    font-stretch="normal"
    units-per-em="1000"
    panose-1="2 0 0 0 0 0 0 0 0 0"
    ascent="750"
    descent="-250"
    x-height="291"
    cap-height="610"
    bbox="-157.231 -364 772 812"
    underline-thickness="50"
    underline-position="-150"
    unicode-range="U+0020-FB02"
  />
<missing-glyph horiz-adv-x="154" 
 />
    <glyph glyph-name=".notdef" horiz-adv-x="154" 
 />
    <glyph glyph-name=".null" horiz-adv-x="0" 
 />
    <glyph glyph-name="nonmarkingreturn" horiz-adv-x="333" 
 />
    <glyph glyph-name="space" unicode=" " horiz-adv-x="154" 
 />
    <glyph glyph-name="exclam" unicode="!" horiz-adv-x="148" 
d="M106 563q6 9 15 9q16 0 16 -19q-11 -54 -17 -108.5t-16 -109.5q-11 -54 -24.5 -106t-25.5 -105q-5 -12 -16 -12q-6 0 -11 3.5t-5 11.5q0 114 19.5 222.5t64.5 213.5zM43 44q5 -8 5 -15q0 -9 -5.5 -15.5t-13.5 -6.5q-9 0 -15.5 7.5t-6.5 14.5q0 8 6 14t15 6t15 -5z" />
    <glyph glyph-name="quotedbl" unicode="&#x22;" horiz-adv-x="161" 
d="M46 473q3 12 12 12q5 0 7.5 -6t4 -14t1.5 -16.5v-14.5q0 -11 -3.5 -33.5t-9 -45t-13 -39.5t-15.5 -17t-9 7.5t-1 18.5q0 41 7 74t19 74zM112 473q1 6 4.5 9t7.5 3t6.5 -6t4 -14t1.5 -16.5v-14.5q0 -11 -3.5 -33.5t-9 -45t-12.5 -39.5t-15 -17t-9.5 7.5t-1.5 18.5
q0 41 7 74t20 74z" />
    <glyph glyph-name="numbersign" unicode="#" horiz-adv-x="389" 
d="M144 409q6 24 16 24q8 0 9 -17.5t1 -33.5q0 -39 -3.5 -73t-10 -67t-15.5 -67t-20 -72q-6 -18 -14 -18q-9 0 -9 21v3q1 44 5 80.5t10 71.5t14 70.5t17 77.5zM243 412q5 23 15 23q8 0 9 -17t1 -33q0 -39 -3.5 -73.5t-10 -67.5t-15.5 -66.5t-20 -71.5q-6 -18 -14 -18
q-9 0 -9 18v5q2 44 5.5 81t9.5 72t14 70.5t18 77.5zM329 198q-62 -7 -111.5 -12t-103.5 -5h-30t-37 1.5t-31 5t-13 9.5q0 7 28 13t65.5 10.5t74 7t53.5 2.5q11 0 33 -1t43.5 -3t38 -5.5t16.5 -8.5t-7 -9t-19 -5zM345 296q-60 -8 -108.5 -12t-101.5 -4h-30.5t-38.5 1t-33 3.5
t-14 8.5q0 7 28 13.5t65 11.5t73.5 7.5t54.5 2.5q12 0 33.5 -0.5t43.5 -3t38 -6t16 -9.5q0 -11 -26 -13z" />
    <glyph glyph-name="dollar" unicode="$" horiz-adv-x="225" 
d="M210 370q0 -2 0.5 -2.5t0.5 -2.5q0 -13 -13 -13q-6 0 -15 5.5t-25 5.5q-18 0 -34.5 -5.5t-29 -14.5t-20 -21.5t-7.5 -26.5q0 -11 6.5 -25t23.5 -26q7 -6 24 -17.5t33.5 -25.5t29.5 -29.5t13 -29.5q0 -25 -20.5 -35.5t-41.5 -10.5q-15 0 -30.5 4t-29 11t-23 17t-13.5 22
q0 16 13 16q11 0 14 -11q2 -12 19.5 -17.5t33.5 -5.5q11 0 18.5 1.5t8.5 6.5q-16 20 -40.5 36t-47.5 33.5t-39.5 37.5t-16.5 48q0 24 13 44.5t33 35t44 22.5t47 8q22 0 44 -8t27 -27zM134 487q3 16 17 16q5 0 9 -3.5t6 -10.5q-8 -126 -24 -249.5t-42 -239.5q-2 -1 -5 -1
q-8 0 -17 10q2 121 20 240.5t36 237.5z" />
    <glyph glyph-name="percent" unicode="%" horiz-adv-x="376" 
d="M69 463q5 5 11 7t11 2q13 0 25.5 -8.5t22.5 -22t16 -30.5t6 -33q0 -17 -9.5 -38t-24.5 -39t-34 -30.5t-38 -12.5q-21 0 -37 14t-16 44q0 18 6 39.5t16 42t22 37.5t23 28zM93 403q-17 8 -20 23q-14 -29 -19.5 -61t-5.5 -62q16 1 29.5 15.5t22.5 31.5t14 31.5t6 17.5v1
q-6 2 -14 1.5t-13 1.5zM266 242q9 9 22 9q12 0 24.5 -9t22.5 -22.5t16.5 -30t6.5 -32.5q0 -17 -9.5 -38t-24.5 -39t-34 -30.5t-38 -12.5q-21 0 -37 14t-16 43q0 18 6 39.5t16 42t22 38t23 28.5zM289 182q-18 10 -19 22q-14 -29 -19.5 -61t-5.5 -62q16 2 29.5 16.5t22.5 31.5
t14 31.5t6 17.5v1q-7 2 -14.5 1.5t-13.5 1.5zM287 560q10 18 19 18q5 0 8 -3.5t5 -8.5q0 -9 -4 -25t-10 -34t-13 -36.5t-13 -33.5q-22 -60 -39.5 -107t-36.5 -93t-42 -97t-55 -120q-8 -18 -21 -18q-10 0 -10 10q0 4 3 10q12 37 21.5 64.5t17 50.5t15 44t16.5 45.5t21 54.5
t29 71q21 51 44.5 103.5t44.5 104.5z" />
    <glyph glyph-name="ampersand" unicode="&#x26;" horiz-adv-x="584" 
d="M343 418q14 -3 14 -15q0 -7 -5.5 -12t-13.5 -5q-15 0 -29.5 4.5t-28.5 4.5q-13 0 -25.5 -4t-22.5 -11t-16 -15.5t-6 -17.5q0 -11 6 -20t15 -16q10 1 22 2.5t23 1.5q20 0 37 -7.5t17 -27.5q0 -18 -18.5 -27t-33.5 -9q-14 0 -29.5 6t-31.5 6q-24 0 -51.5 -14t-51.5 -35
t-39.5 -46.5t-15.5 -49.5q0 -20 10.5 -34.5t27 -23.5t37 -13.5t41.5 -4.5q30 0 61 7.5t57 21t43.5 32t20.5 41.5q-2 17 -14.5 23.5t-27.5 6.5q-18 0 -35.5 -6.5t-31 -16.5t-22.5 -21.5t-11 -21.5l7 -2q14 -3 14 -15q0 -7 -5 -12t-14 -5q-20 0 -28 12t-8 23q0 15 11.5 35
t31 37t45 29t52.5 12q15 0 29.5 -6.5t28.5 -15t30 -15t34 -6.5q10 0 20.5 5.5t19 14t14 20t5.5 23.5q0 14 -10.5 25t-25.5 11q-16 0 -28 -10.5t-12 -27.5q0 -2 1 -4.5t1 -4.5q6 1 8.5 3t7.5 2q7 0 11.5 -5t4.5 -11q0 -11 -12.5 -17.5t-21.5 -6.5q-20 0 -33 17.5t-13 40.5
q0 35 22.5 51.5t50.5 16.5q18 0 36 -6.5t32.5 -19t23.5 -30.5t9 -41q0 -40 -30 -67.5t-73 -27.5q-12 0 -25 2.5t-26 8.5q-7 -37 -29.5 -66t-55 -48.5t-71 -30t-77.5 -10.5q-31 0 -60.5 6.5t-53 21.5t-37.5 39t-14 59q0 31 14 61.5t38 56.5t55.5 46t66.5 31q-12 18 -12 38
q0 23 10.5 40.5t27 29.5t38 18t42.5 6q14 0 24.5 -3t36.5 -11z" />
    <glyph glyph-name="quotesingle" unicode="'" horiz-adv-x="102" 
d="M46 473q3 12 12 12q5 0 7.5 -6t4 -14t1.5 -16.5v-14.5q0 -11 -3.5 -33.5t-9 -45t-13 -39.5t-15.5 -17t-9 7.5t-1 18.5q0 41 7 74t19 74z" />
    <glyph glyph-name="parenleft" unicode="(" horiz-adv-x="276" 
d="M227 639q7 5 12 5q7 0 12 -5t5 -12q0 -5 -5 -12q-35 -46 -69.5 -104t-61.5 -123t-43.5 -133.5t-16.5 -134.5q0 -58 14.5 -111.5t47.5 -100.5q1 -2 1 -6q0 -7 -4.5 -12t-11.5 -5q-5 0 -14 7q-20 31 -36.5 60t-28.5 59t-18.5 62.5t-6.5 70.5q0 69 18 137t48.5 131.5
t71.5 121t86 105.5z" />
    <glyph glyph-name="parenright" unicode=")" horiz-adv-x="276" 
d="M31 -108q-5 -5 -13 -5q-6 0 -11 4.5t-5 10.5t5 14q35 46 69.5 104t61.5 122.5t43.5 133t16.5 135.5q0 57 -14.5 110.5t-47.5 100.5q-1 2 -1 6q0 17 16 17q6 0 14 -6q21 -31 37.5 -60.5t28 -59.5t18 -63t6.5 -71q0 -68 -18 -136t-48.5 -131.5t-71 -121t-86.5 -104.5z" />
    <glyph glyph-name="asterisk" unicode="*" horiz-adv-x="313" 
d="M149 296q3 16 17 16q5 0 9 -3.5t6 -10.5q-3 -42 -4.5 -69.5t-2.5 -47.5t-2.5 -36.5t-5 -35.5t-9 -44.5t-14.5 -63.5q-1 -1 -4 -1q-9 0 -18 10q1 40 2 66t2 45t2.5 33.5t4.5 33t7 44t10 64.5zM269 240q4 2 8 2q7 0 12 -4.5t5 -11.5q0 -6 -6 -12q-36 -20 -61 -34.5
t-43.5 -25.5t-34.5 -20t-35 -18t-44 -19.5t-62 -23.5q-6 6 -6 13q0 3 2 11q34 21 57 35t40.5 24.5t32 19t32.5 17.5t42.5 20t60.5 27zM43 240q55 -24 96 -49.5t70 -47.5t48 -38t29 -22q2 -8 2 -11q0 -5 -2 -7.5t-4 -5.5q-168 81 -257 155q-6 5 -6 12q0 16 16 16q2 0 8 -2z
" />
    <glyph glyph-name="plus" unicode="+" horiz-adv-x="360" 
d="M172 321q3 14 17 14q5 0 9.5 -3.5t5.5 -10.5q-5 -42 -8 -69t-5 -47t-4.5 -36t-7 -35t-11 -44.5t-17.5 -63.5q-2 -1 -4 -1q-8 0 -17 11q3 40 5 66t3.5 44.5t4 33.5t6.5 33.5t9.5 43.5t13.5 64zM312 210q8 -1 13 -6t5 -11q0 -5 -3 -9t-9 -6q-41 -2 -69 -4.5t-50 -4.5
t-39.5 -3t-37.5 -1q-22 0 -49 1t-68 6q-2 6 -2 8q0 6 9 15q43 4 71 7.5t49 5.5t39 3t42 1h42.5t56.5 -2z" />
    <glyph glyph-name="comma" unicode="," horiz-adv-x="110" 
d="M84 43q9 -8 9 -20q0 -10 -4.5 -20.5t-10.5 -19.5t-11.5 -15t-7.5 -6q-1 0 -3 8q3 8 7 16.5t4 15.5q0 3 -3 5.5t-6.5 5t-6.5 6t-3 9.5q0 8 6 14.5t15 6.5t15 -6z" />
    <glyph glyph-name="hyphen" unicode="-" horiz-adv-x="288" 
d="M252 210q8 -1 12.5 -6t4.5 -11q0 -9 -12.5 -14t-34 -7.5t-49.5 -3t-59 -0.5q-29 0 -57.5 1t-50.5 3q-2 6 -2 8q0 6 9 15q20 3 45.5 6t53 5t55.5 3.5t53 1.5q8 0 16 -0.5t16 -0.5z" />
    <glyph glyph-name="period" unicode="." horiz-adv-x="108" 
d="M84 44q5 -8 5 -15q0 -9 -5.5 -15.5t-13.5 -6.5q-9 0 -15.5 7.5t-6.5 14.5q0 8 6 14t15 6t15 -5z" />
    <glyph glyph-name="slash" unicode="/" horiz-adv-x="309" 
d="M255 626q10 18 19 18q5 0 8 -4t5 -9q0 -9 -4 -24.5t-10 -33.5t-13 -36.5t-13 -33.5q-44 -121 -98 -250.5t-118 -268.5q-5 -10 -10 -14t-10 -4q-10 0 -10 11q0 2 2 10q19 55 37.5 106.5t38 102.5t41 105t46.5 116q21 51 44.5 104t44.5 105z" />
    <glyph glyph-name="zero" unicode="0" 
d="M48 266q17 42 40.5 91.5t55.5 87.5q-3 6 -3 10q0 9 6.5 15t14.5 6h6l3 -3q6 3 11 3q12 0 12 -11v-3l8 -9q14 -30 14 -97q0 -49 -8.5 -107.5t-27 -110.5t-47 -90t-67.5 -47q-4 -1 -6.5 -1.5t-5.5 -0.5q-14 0 -24 8.5t-16 21.5t-9 29t-3 31q0 20 4 32q5 25 8 41.5t7 31
t10 31t17 41.5zM75 58q17 24 34.5 64.5t32 87t23.5 93.5t9 83q0 23 -5 43q-18 -29 -36.5 -71t-34 -87t-25 -88t-9.5 -76q0 -34 11 -49z" />
    <glyph glyph-name="one" unicode="1" horiz-adv-x="161" 
d="M52 409q-7 -5 -13 -5q-12 0 -12 13q0 7 9 16q25 20 45.5 31.5t34.5 11.5q26 0 26 -41q0 -20 -6 -46.5t-11 -51.5q-17 -81 -42.5 -160.5t-52.5 -160.5l-1 -2q0 -2 -1.5 -3.5t-2.5 -3.5l-3 -5q-3 -3 -7.5 -4t-7.5 -1q-5 0 -8 3l-2 2q-2 2 -2 3l-1 4q0 1 -0.5 1.5t-0.5 1.5
t0.5 1t0.5 1q11 62 22.5 123t26.5 123q6 24 11 39.5t9.5 29.5t8.5 29.5t8 39.5q0 5 -5 9.5t-12 4.5t-11 -3z" />
    <glyph glyph-name="two" unicode="2" horiz-adv-x="285" 
d="M148 405q-4 -5 -8 -6t-7 -1q-12 0 -12 12t11.5 23.5t27.5 21t33 15.5t28 6q23 0 32.5 -16t9.5 -36q0 -27 -12.5 -59t-32 -67t-43.5 -70.5t-45.5 -69.5t-39 -64.5t-24.5 -54.5q5 -1 8.5 -1h8.5q23 0 46 5.5t46 10.5q16 0 16 -13q0 -6 -10 -13t-27.5 -13.5t-41 -10.5
t-51.5 -4q-23 0 -38.5 8t-17.5 25q0 17 12 45.5t30 63t41 72.5t45 72.5t40.5 63t29.5 44.5q2 5 5.5 12.5t3.5 14.5q0 9 -10 9q-5 0 -12.5 -3t-14.5 -6t-12.5 -6t-6.5 -3l-8 -7v0z" />
    <glyph glyph-name="three" unicode="3" horiz-adv-x="257" 
d="M129 436q-12 1 -12 12q0 9 9 14.5t22 8.5t28 4t27 1q21 0 28.5 -9t7.5 -27q0 -15 -5.5 -34t-14 -38.5t-19.5 -38.5t-22 -35q18 -10 24.5 -27t6.5 -41q0 -38 -15 -79.5t-42 -73.5q-9 -11 -24 -23.5t-32.5 -23.5t-35 -18t-31.5 -7q-27 0 -27 32q0 14 6 23.5t17 9.5
q5 0 7 -2.5t3 -6t3.5 -6t9.5 -2.5q15 0 32 14.5t31 35.5t23 45.5t9 44.5q0 15 -5.5 25.5t-18.5 14.5q-8 -5 -13 -6t-11 -1q-11 0 -17 7.5t-6 14.5q0 15 12.5 27.5t24.5 18.5q13 16 27.5 35t27.5 38.5t21.5 38t8.5 33.5q-8 5 -23 5q-11 0 -22 -2t-20 -2z" />
    <glyph glyph-name="four" unicode="4" 
d="M157 457q2 0 3 1q17 20 34 20q22 0 25 -28q-3 -28 -12 -67.5t-20.5 -83.5t-24.5 -89.5t-24.5 -84t-20.5 -67.5t-12 -41q-2 -8 -8 -12.5t-12 -4.5q-5 0 -8.5 3t-3.5 9v4q8 51 16.5 98.5t19.5 97.5q-13 -1 -25.5 -2.5t-23.5 -1.5q-8 0 -17.5 1t-17.5 4t-13.5 8t-5.5 13
q0 9 4.5 19t11 20t14.5 20t15 19l1 1q15 22 33.5 46t34 45t26.5 35.5t11 17.5zM116 252q5 20 9 41t9 41l-31 -36q-8 -10 -19 -21t-21 -24h8z" />
    <glyph glyph-name="five" unicode="5" horiz-adv-x="279" 
d="M253 459q5 -4 5 -11q0 -8 -6.5 -14t-17.5 -6q-7 0 -15 2t-16 2h-12t-11 -1q-3 0 -9 -22.5t-12.5 -51t-11.5 -56t-5 -37.5q37 -8 53 -32t16 -54t-13 -62.5t-35 -59t-50 -44t-58 -17.5q-6 0 -15 1t-17.5 4t-14.5 8t-6 13q0 12 9 15t21 3h13h11.5t9.5 2q42 15 59 43t17 57
q0 26 -11 47t-27 28q-11 4 -11 33q0 26 8.5 63.5t20.5 72.5t25 60.5t23 27.5q4 1 7.5 1.5t8.5 0.5q17 0 36.5 -5t30.5 -11z" />
    <glyph glyph-name="six" unicode="6" horiz-adv-x="251" 
d="M125 462q4 8 9 11.5t10 3.5q13 0 13 -14v-5q-9 -33 -23.5 -77t-28.5 -91.5t-25 -93t-13 -81.5q7 22 17.5 46.5t25 44.5t33.5 33t44 13q26 0 36.5 -12t10.5 -32t-8 -42.5t-16 -39.5q-11 -20 -31.5 -42.5t-44 -41.5t-46 -31t-36.5 -12t-23.5 7t-15 19t-8 27t-2.5 30
q0 26 4.5 47t8.5 28q9 36 22.5 75t28.5 78t30 77.5t28 74.5zM171 196q-12 0 -23.5 -11.5t-22 -29t-18.5 -36.5t-14 -34q2 -2 4 -2q6 0 19 11t26 27t23 33.5t10 29.5q0 8 -4 12z" />
    <glyph glyph-name="seven" unicode="7" horiz-adv-x="207" 
d="M29 435q-13 0 -13 11q0 10 10.5 16t25.5 9t31.5 3.5t28.5 0.5q13 0 26.5 -0.5t24.5 -4.5t18 -14.5t7 -29.5q0 -17 -4.5 -35.5t-8.5 -32.5q-17 -50 -30.5 -90t-26.5 -75t-27 -69t-32 -72q-3 -7 -6.5 -16t-8.5 -17.5t-11.5 -14t-14.5 -5.5q-12 0 -12 12q0 13 4 18.5t5 6.5
q14 42 25.5 75.5t22.5 65t21.5 62.5t22.5 67q5 17 12.5 44.5t7.5 50.5q0 12 -2.5 21.5t-23.5 9.5q-11 0 -24.5 -1t-24.5 -1q-8 0 -14.5 0.5t-8.5 4.5z" />
    <glyph glyph-name="eight" unicode="8" horiz-adv-x="263" 
d="M168 452q7 3 17.5 7t18.5 4q7 0 11 -4v2q3 8 9.5 12t11.5 4q12 0 12 -11v-4q-10 -60 -36.5 -115t-61.5 -111q17 -23 28.5 -46.5t11.5 -49.5q0 -17 -9.5 -41t-26.5 -46.5t-42 -38.5t-55 -16t-44 16.5t-14 42.5q0 37 25 79t56 85q-14 20 -24 41.5t-10 46.5q0 22 11.5 43
t29.5 40t39.5 34.5t41.5 25.5zM127 286q16 23 27.5 40t20 32.5t15 31.5t14.5 37q-2 -1 -7 -1h-5q-11 -2 -27 -14.5t-30.5 -29t-25 -33t-10.5 -27.5q0 -8 8 -21.5t14 -22.5zM127 136q0 22 -13 46q-18 -26 -33 -54.5t-15 -54.5q0 -6 1.5 -9t7.5 -3q9 0 18 8t16.5 19.5t12.5 23
t5 18.5v6z" />
    <glyph glyph-name="nine" unicode="9" horiz-adv-x="244" 
d="M175 476q14 0 14 -13q0 -4 -1 -6q8 2 13 2q10 0 16.5 -6.5t6.5 -17.5q0 -7 -3 -14q-39 -93 -73.5 -195.5t-76.5 -208.5q-1 -3 -3 -6q-2 -2 -4 -4.5t-6 -4.5l-2 -1q-2 0 -3 -1h-8q-2 0 -5 2.5t-3 4.5l1 2q-2 2 -2 3t0.5 1.5t0.5 1.5l1 1q12 56 30.5 123t32.5 125
q-15 -8 -36 -14.5t-38 -6.5q-14 0 -19.5 6t-5.5 17q0 10 3 22t7.5 23t9.5 21l8 16q23 50 56.5 86t88.5 42zM89 330q25 23 42.5 52.5t33.5 59.5l1 -1l3 3q-39 -9 -61.5 -40.5t-36.5 -65.5q-8 -19 -8 -25q0 -3 2 -3t24 20z" />
    <glyph glyph-name="colon" unicode=":" horiz-adv-x="108" 
d="M58 71q5 -8 5 -16q0 -9 -5.5 -15t-13.5 -6t-14.5 7t-6.5 14q0 8 6 14t14 6t15 -4zM76 237q5 -6 5 -16q0 -8 -5.5 -14.5t-13.5 -6.5t-14.5 7t-6.5 14q0 8 6 14.5t14 6.5q7 0 15 -5z" />
    <glyph glyph-name="semicolon" unicode=";" horiz-adv-x="108" 
d="M76 237q5 -6 5 -16q0 -8 -5.5 -14.5t-13.5 -6.5t-14.5 7t-6.5 14q0 8 6 14.5t14 6.5q7 0 15 -5zM58 71q9 -8 9 -21q0 -10 -4.5 -20.5t-10 -19.5t-11 -15t-7.5 -6t-4 9q3 8 7.5 16t4.5 15q0 3 -3 5.5t-6.5 5t-6.5 6t-3 9.5q0 8 6 14.5t14 6.5q9 0 15 -5z" />
    <glyph glyph-name="less" unicode="&#x3c;" horiz-adv-x="246" 
d="M212 298q8 2 10 2q11 0 11 -10q0 -6 -8 -17q-29 -30 -55.5 -55t-47 -46t-33 -37t-12.5 -28q0 -5 7 -14q4 -3 23 -11t40 -17.5t38.5 -17t19.5 -8.5q6 -5 6 -11q0 -7 -7 -14t-18 -8q-14 2 -44.5 7.5t-61.5 16t-54.5 26t-23.5 37.5q0 12 11.5 29t29.5 36.5t41.5 40t46.5 39
t44.5 34.5t36.5 26z" />
    <glyph glyph-name="equal" unicode="=" horiz-adv-x="322" 
d="M276 251q8 -1 13 -6t5 -11q0 -5 -3.5 -9t-8.5 -6q-80 -5 -127.5 -8t-80.5 -3h-18.5t-22.5 1t-19 4t-8 8q0 7 9 15q43 4 75 7.5t56.5 5.5t43 3t35.5 1h25t26 -2zM268 169q8 -1 12.5 -6t4.5 -11q0 -5 -3 -9t-8 -6q-40 -2 -70 -4t-52.5 -3t-40 -1.5t-32.5 -0.5q-32 0 -72 3
q0 2 -0.5 4t-0.5 4q0 7 9 15q44 4 75.5 7.5t54.5 5.5t40.5 3t34.5 1q11 0 22.5 -0.5t25.5 -1.5z" />
    <glyph glyph-name="greater" unicode="&#x3e;" horiz-adv-x="259" 
d="M116 301q14 -9 35.5 -30.5t41 -48t34 -54t15.5 -47.5q0 -17 -13.5 -32t-34.5 -28t-47 -24t-50.5 -20t-45.5 -16t-31 -11q-2 -1 -5 -1q-11 0 -11 11q0 9 12 18q1 1 11 6.5t24.5 13t31.5 16t32.5 17t27 15t15.5 9.5q14 13 14 31q0 14 -7 30.5t-18.5 34.5t-25.5 38t-28 41
q-2 4 -2 9q0 8 6 15.5t14 7.5q3 0 5 -1z" />
    <glyph glyph-name="question" unicode="?" horiz-adv-x="263" 
d="M179 461q-8 6 -23 6q-14 0 -31 -4.5t-33 -9.5t-27.5 -9.5t-14.5 -4.5q-6 0 -11 5t-5 13q0 12 17.5 23t40.5 19t45.5 12.5t32.5 4.5q32 0 51 -17.5t19 -54.5q0 -34 -12 -61.5t-29 -51.5t-37.5 -47t-36.5 -48q-15 -22 -22.5 -36t-12 -28t-9 -32t-13.5 -46q-5 -12 -16 -12
q-5 0 -9 4t-4 12q1 48 9 82.5t21.5 64.5t33.5 60l46 69q3 4 9 13t11.5 19.5t10 21.5t4.5 20q0 8 -5 13zM60 39q5 -8 5 -15q0 -9 -5.5 -15.5t-13.5 -6.5q-9 0 -15 7.5t-6 14.5q0 8 6 14t14 6q9 0 15 -5z" />
    <glyph glyph-name="at" unicode="@" horiz-adv-x="427" 
d="M227 289q3 2 13 4h3q19 -5 19 -27q0 -5 -0.5 -10.5t-2.5 -14.5t-5.5 -22.5t-8.5 -35.5q-5 -18 -7.5 -35t-2.5 -31q0 -10 2 -20.5t10 -10.5q12 0 23 7.5t20.5 18.5t17 22t11.5 19q19 36 29.5 79t10.5 85q0 17 -2.5 40t-10.5 44t-22.5 35.5t-38.5 14.5q-31 0 -61 -18.5
t-56.5 -49.5t-49 -70.5t-39 -81.5t-25.5 -83t-9 -74q0 -67 32 -99t82 -32q35 0 67.5 16t51.5 46q6 4 11 4q6 0 10 -4.5t4 -9.5q0 -4 -5 -11q-23 -37 -59.5 -55t-76.5 -18q-32 0 -61 11t-51 32.5t-34.5 54t-12.5 75.5q0 44 11 92t30 95t46 89.5t59 75t68.5 51.5t74.5 19
q33 0 55.5 -15t37 -39.5t20.5 -57t6 -67.5q0 -29 -3.5 -58t-9.5 -55.5t-14 -49.5t-17 -39q-8 -13 -20.5 -29t-28 -30t-33.5 -23.5t-36 -9.5q-32 0 -46.5 17.5t-16.5 39.5q-1 -2 -7.5 -9.5t-17 -16.5t-24.5 -16t-29 -7q-10 0 -16.5 6t-10 15t-5 20.5t-1.5 22.5q0 33 12 67.5
t30.5 62t41.5 45t44 17.5q7 0 16 -3zM199 193q5 14 9 33v4v13v10t2 10q0 1 -0.5 1t-0.5 1h-6q-13 0 -29.5 -16.5t-31 -40.5t-24.5 -51.5t-10 -49.5q0 -15 6 -25q7 0 14 5.5t14 13t12 15.5t8 12q24 32 37 65z" />
    <glyph glyph-name="A" unicode="A" horiz-adv-x="510" 
d="M33 -76q-4 -4 -9 -4q-8 0 -13.5 8.5t-5.5 19.5q0 14 13 22t24 19l12 12q28 29 52 64t38 59q47 79 81 165.5t66 170.5q7 17 14 40.5t15.5 44.5t18.5 35.5t24 14.5q17 0 26.5 -12.5t9.5 -32.5q0 -14 -2.5 -27.5t-4.5 -22.5q-5 -39 -10 -69.5t-10 -63.5t-10 -74t-9 -101
q33 16 63.5 29t56.5 23q6 2 8 2q17 0 17 -16q0 -8 -10 -15q-36 -21 -70 -43t-69 -45q0 -40 5.5 -74.5t21.5 -52.5q4 -6 12 -9.5t15 -6.5t12.5 -7.5t5.5 -11.5q0 -16 -20 -16q-12 6 -25.5 10.5t-24.5 12.5t-18.5 23t-12.5 33t-8 36.5t-5 34.5q-29 -19 -63 -40t-70 -43.5
t-72 -46t-69 -45.5zM312 349q-27 -64 -56.5 -126.5t-67.5 -120.5q28 17 57 34t58 31q0 6 -0.5 12.5t-0.5 11.5q0 40 3 79.5t7 78.5z" />
    <glyph glyph-name="B" unicode="B" horiz-adv-x="463" 
d="M174 508q0 -4 -1 -6l-2 -4q-4 -16 -7 -31.5t-7 -31.5q15 23 32 53t38.5 56.5t48.5 45t62 18.5q24 0 41 -9.5t28 -25t16 -35t5 -39.5q0 -45 -21 -93.5t-60 -93.5q18 -2 34.5 -11t29.5 -26.5t21 -42.5t8 -58q0 -48 -25 -95t-58 -80q-14 -13 -33.5 -25.5t-43.5 -22
t-50.5 -15t-53.5 -5.5q-41 0 -73.5 15t-55.5 38t-35.5 49.5t-12.5 50.5q0 20 11.5 34.5t33.5 14.5q7 0 13 -3q7 31 14.5 62t15.5 62l-2 -10q-2 -9 -1 -9q15 69 26.5 140t31.5 140q3 5 7.5 8t7.5 3q12 0 17 -15v-3zM84 4q20 -15 44 -23.5t47 -8.5q42 0 80 17t66.5 46t45 67
t16.5 80q0 32 -13.5 52.5t-39.5 20.5q-31 0 -77 -34q-5 -4 -10 -5t-9 -1q-13 0 -20.5 8t-7.5 21q0 4 1 9t5 10q25 24 47.5 41.5t40.5 36t32 42t24 58.5q2 10 4 21.5t2 22.5q0 16 -5 30.5t-19 25.5q-18 -2 -36.5 -17.5t-34.5 -36t-29 -42t-20 -35.5q-26 -53 -45 -100.5
t-34 -95t-27 -98t-25 -107.5zM37 94q-1 -3 -1 -9q0 -13 7 -30l8 47z" />
    <glyph glyph-name="C" unicode="C" horiz-adv-x="568" 
d="M462 421q-6 -3 -11 -3q-7 0 -11 4.5t-4 9.5q0 8 9.5 24.5t9.5 33.5q0 38 -28 55.5t-64 17.5q-38 0 -73 -18.5t-65.5 -47t-56 -63t-43.5 -67.5q-26 -47 -42.5 -101t-16.5 -103q0 -39 12 -66.5t32.5 -44.5t49 -24.5t61.5 -7.5q44 0 93 12t96 31.5t89.5 45t73.5 53.5
q7 4 13 4q13 0 13 -12q0 -9 -7 -16q-33 -32 -81.5 -64t-103.5 -57t-112 -40.5t-107 -15.5t-85.5 17.5t-58 46t-32.5 64t-10 71.5q0 55 19 114t51 115q20 35 50 73.5t66.5 71t78 53.5t84.5 21q29 0 55 -8t45.5 -22.5t31 -34.5t11.5 -44q0 -17 -7.5 -37t-24.5 -41z" />
    <glyph glyph-name="D" unicode="D" horiz-adv-x="591" 
d="M206 564q1 8 6 12t10 4q11 0 16 -14v-1q37 26 70 37t63 11q45 0 81 -24t60.5 -62t37.5 -85t13 -94q0 -67 -21 -137.5t-58 -128t-86 -94.5t-105 -37q-8 0 -24.5 2.5t-33.5 7.5t-29.5 14t-12.5 21q0 8 4 15t10 7q9 0 17 -14l-6 -4q16 -7 32 -10t30 -3q51 0 92.5 32.5
t70.5 83t45 112.5t16 122q0 39 -8 76.5t-25 66.5t-42.5 46.5t-61.5 17.5q-23 0 -41.5 -5.5t-33.5 -14.5t-28 -20t-25 -21q-2 -47 -6 -93t-9 -91q-2 -18 -6 -51t-10.5 -72t-16 -79t-23.5 -72.5t-33 -53.5t-43 -21q-20 0 -37 14.5t-29 38t-19 54.5t-7 64q0 59 17.5 118.5
t46 114t65.5 102t76 81.5q1 7 1 13.5v13.5zM181 305q6 34 10.5 68.5t7.5 69.5q-63 -71 -101.5 -157t-38.5 -175q0 -10 1 -26.5t4 -32.5t9 -28.5t16 -15.5q9 0 15.5 11.5t10.5 19.5q29 61 42 129.5t24 136.5z" />
    <glyph glyph-name="E" unicode="E" horiz-adv-x="390" 
d="M339 608q9 0 14 -7t5 -15q0 -6 -3.5 -12t-11.5 -7q-25 -2 -51.5 -6t-52 -12.5t-47.5 -22t-38 -35.5q-9 -14 -9 -27q0 -20 11.5 -33t29 -20t37 -9.5t35.5 -2.5q4 0 7.5 0.5t7.5 0.5q17 0 26.5 -10.5t9.5 -21.5q0 -8 -3 -15q-34 -23 -76.5 -48.5t-80 -56.5t-63 -70
t-25.5 -90q0 -27 7 -44.5t19 -28.5t28 -15.5t34 -4.5q20 0 42 5t43 12t40 15.5t33 15.5q2 0 4.5 0.5t4.5 0.5q8 0 12 -4.5t4 -10.5q0 -10 -10 -16q-42 -26 -93 -43.5t-99 -17.5q-26 0 -49.5 7.5t-40.5 24t-27 43.5t-10 66q0 43 15 80.5t39 70t55 59.5t63 49l1 1
q-17 6 -32.5 16.5t-27.5 24t-19 29.5t-7 33q0 24 13 45.5t32.5 39t43.5 30.5t46 20q29 10 56.5 13t57.5 4z" />
    <glyph glyph-name="F" unicode="F" horiz-adv-x="599" 
d="M378 619q2 8 7.5 12t10.5 4q12 0 15 -13l-5 -50q40 -6 79.5 -12t80.5 -11q7 -2 10 -6t3 -8q0 -15 -17 -18q-41 0 -80.5 2.5t-79.5 4.5q-3 -29 -6.5 -52.5t-7.5 -47.5t-8.5 -49.5t-10.5 -58.5h17q15 0 42 -0.5t53 -3.5t45.5 -9t19.5 -18q0 -7 -8.5 -15.5t-22.5 -8.5
q-11 0 -14 12q-13 1 -25.5 1h-25.5q-22 0 -44 -0.5t-45 -1.5q-15 -88 -43 -173q-9 -29 -19.5 -56t-27.5 -51q-21 -33 -47 -47t-54 -14q-30 0 -58 14t-50 38t-35.5 55t-13.5 65q0 17 3.5 34t12.5 34q19 39 48.5 64.5t65.5 41.5t76.5 24t82.5 12h2q3 0 6 0.5t7 1.5
q7 28 13.5 53.5t12.5 50.5t11.5 50.5t9.5 55.5q-23 1 -46 1h-47q-42 0 -79.5 -2t-65.5 -7.5t-44.5 -14.5t-16.5 -23q0 -12 11 -19.5t28 -13t37 -8t39 -3.5q12 -1 32 -1.5t39 -2.5t33 -6t14 -13q0 -7 -6 -13t-16 -6q-4 0 -8.5 0.5t-10.5 0.5q-24 0 -55.5 -2.5t-63.5 -2.5
q-30 0 -56 4t-40 16q-19 16 -27.5 35t-8.5 37q0 31 17.5 51.5t47 32.5t68.5 16.5t83 4.5q38 0 75.5 -2.5t74.5 -7.5zM297 232q2 9 4.5 18t4.5 17q-34 -4 -72 -15.5t-70 -31t-53 -47.5t-21 -65q0 -19 4 -38.5t13 -35.5t22.5 -26.5t32.5 -10.5q34 0 56.5 26t37.5 62.5t24 77
t17 69.5z" />
    <glyph glyph-name="G" unicode="G" horiz-adv-x="556" 
d="M184 220q-1 0 -2 -0.5t-2 -0.5q-8 0 -12.5 4.5t-4.5 10.5q0 11 13 17q20 6 51 17.5t66.5 22t73.5 18.5t71 8t59 -10t38 -36q4 -9 3 -19.5t1 -20.5q-2 -18 -17 -18q-10 0 -15 11q-8 22 -18.5 29.5t-26.5 7.5q-20 0 -51 -5t-58 -11l-5 -29q-7 -44 -14.5 -78.5t-15 -66.5
t-15.5 -66.5t-15 -79.5q-8 -8 -17 -8q-15 0 -15 23q0 16 2 35t5 36.5t5.5 31t3.5 18.5q-14 -21 -31.5 -42.5t-38.5 -39t-44.5 -28.5t-48.5 -11q-29 0 -49.5 13t-33 34t-18.5 47t-6 52q0 47 11.5 98t26.5 96q26 75 63.5 141t87.5 128q20 26 51 42.5t65 16.5q48 0 70 -42
t22 -109q0 -20 -2.5 -38.5t-7.5 -33.5t-11.5 -24t-15.5 -9q-16 0 -16 15q0 5 6 27t6 57q0 20 -2.5 41t-8.5 37.5t-15.5 27t-24.5 10.5t-31 -11q-34 -23 -63 -58.5t-52.5 -78t-41.5 -89t-30 -90.5t-18 -82.5t-6 -65.5q0 -16 2 -31t8 -27.5t16 -21t25 -10.5q38 13 68.5 36.5
t53 54t37 65.5t20.5 71q-1 -3 -2 -9t-1 -5q4 9 5 18q-27 -7 -56 -8.5t-57 -4.5z" />
    <glyph glyph-name="H" unicode="H" horiz-adv-x="665" 
d="M278 597q2 7 7 10.5t10 3.5q13 0 15 -15q-8 -80 -21 -158.5t-30 -158.5q0 -1 -0.5 -1t-0.5 -1v-1q57 6 114 8l114 4q8 26 16.5 52t18.5 52q7 19 19.5 45.5t24.5 52t21.5 46t11.5 28.5q3 14 16 14q6 0 11 -4.5t5 -12.5v-3q-9 -35 -21 -69t-23 -69q-10 -33 -19.5 -66
t-17.5 -65q14 -3 14 -16q0 -5 -4 -10t-13 -6l-6 -1q-4 -12 -10 -32t-12 -43.5t-10 -48.5t-4 -47q0 -12 1.5 -24t7 -21.5t15 -15.5t25.5 -6q13 0 27 4.5t28 10.5t27.5 13t25.5 13q2 1 6 1q8 0 12.5 -5t4.5 -10q0 -8 -19 -21.5t-44 -26.5t-50 -22.5t-36 -9.5q-20 0 -36.5 10
t-28 26.5t-17.5 36.5t-6 41q0 44 8.5 87.5t19.5 85.5q-53 -5 -111.5 -9t-115.5 -15l-16 -60t-18 -61q-7 -24 -16.5 -52.5t-23 -53t-31 -41t-38.5 -16.5q-20 0 -38.5 16t-33 41t-23.5 55.5t-9 59.5q0 33 12.5 57t32.5 41t44 27t46.5 16t41.5 9t28 4q23 84 41 167.5t31 159.5z
M94 31q3 -4 6 -4q9 0 23 23t27.5 54t24.5 62t14 48q-57 -17 -91 -40.5t-34 -61.5q0 -33 30 -81z" />
    <glyph glyph-name="I" unicode="I" horiz-adv-x="198" 
d="M141 592q2 9 6.5 13.5t9.5 4.5q17 0 17 -34q0 -17 -2.5 -38.5t-6 -43t-7 -41t-5.5 -32.5q-18 -117 -47 -228t-65 -223q-2 -7 -6.5 -10t-9.5 -3q-6 0 -10.5 5t-4.5 13v4q18 110 38 218t46 217q11 45 23.5 89t23.5 89z" />
    <glyph glyph-name="J" unicode="J" horiz-adv-x="476" 
d="M424 599q6 9 15 9q15 0 15 -19q-3 -13 -8 -55.5t-11 -100.5t-14 -124.5t-17.5 -127.5t-21.5 -109t-25 -70q-18 -28 -49 -40.5t-68 -12.5q-40 0 -82.5 13t-77.5 35t-57.5 51.5t-22.5 61.5q0 17 7 34.5t24 34.5q22 24 51.5 38t61 22.5t64.5 13.5t63 10q18 -2 18 -15
q0 -10 -11 -16q-27 -8 -54.5 -14.5t-54.5 -15t-52 -22t-46 -34.5q-7 -6 -9.5 -14t-2.5 -16q0 -21 14 -37q9 -11 28 -23.5t43 -23t49.5 -17t48.5 -6.5q20 0 36.5 6t24.5 22q24 41 41 105.5t30 140.5t24.5 158t25.5 158z" />
    <glyph glyph-name="K" unicode="K" horiz-adv-x="512" 
d="M466 511q7 5 12 5q7 0 11.5 -5t4.5 -12t-4 -12q-42 -43 -86.5 -81.5t-89.5 -77.5q5 2 19 3.5t29 1.5q29 0 47.5 -8.5t29 -21.5t14 -28t3.5 -28q0 -20 -5.5 -46.5t-12 -55.5t-12 -58t-5.5 -53q0 -25 8 -42t30 -33q8 -5 8 -16q0 -6 -3.5 -10.5t-11.5 -4.5q-3 0 -10.5 2.5
t-16 6.5t-17 9.5t-12.5 10.5q-12 17 -16.5 37.5t-4.5 42.5q0 27 3.5 50.5t7 45l7 43t3.5 45.5q0 15 -3.5 28t-12.5 24q-26 -1 -44.5 -5.5t-35 -12.5t-32.5 -19t-36 -24q2 2 5.5 3.5t5.5 3.5q3 2 5 3q-16 -10 -31 -19.5t-32 -18.5q-14 -35 -29.5 -70.5t-30.5 -70.5
q0 2 0.5 3.5t0.5 2.5t1 2q-5 -11 -11 -25.5t-8 -28.5q2 -3 2 -8t-3.5 -9.5t-11.5 -5.5q-2 0 -2 -1q-18 1 -18 21q0 33 13.5 69t24.5 68l10 30q-23 3 -25 31q3 25 22.5 44t39.5 35q8 23 14.5 46.5t13.5 47.5q4 13 9 31.5t10 38.5t8.5 41t3.5 39q0 11 -2 25.5t-11 14.5
q-15 0 -42 -22.5t-54 -56.5t-47 -73t-20 -73q0 -4 1.5 -8t7.5 -9t18 -12.5t32 -17.5q9 -8 9 -16q0 -6 -5.5 -10.5t-14.5 -4.5q-50 0 -69.5 22.5t-19.5 55.5q0 26 8.5 55t21.5 56.5t27 51t26 38.5q13 16 30 30.5t36 25t38 16.5t36 6q19 0 30.5 -7t17.5 -19t8 -27t2 -30
q0 -29 -6 -57.5t-11 -47.5q-5 -21 -10.5 -41.5t-12.5 -40.5q56 43 112.5 84t110.5 88zM125 43l-2 -4q-1 -1 -1 -2v1z" />
    <glyph glyph-name="L" unicode="L" horiz-adv-x="592" 
d="M147 399q-3 6 -3 9q0 7 5 12t12 5q3 0 11 -4q9 -9 31 -19t47.5 -18t51 -14t42.5 -8q7 38 16.5 74.5t24.5 71.5q7 15 18.5 33t26 33t32 25.5t36.5 10.5q15 0 29.5 -8t25 -21.5t17 -30t6.5 -34.5q0 -33 -16.5 -67.5t-42 -62.5t-57 -46t-61.5 -19q-5 -24 -8 -39t-6 -28
l-6 -26t-8 -34h-1q-1 0 -2 -5.5t-2.5 -13.5t-3 -16.5t-3.5 -14.5q-25 -99 -86 -149t-142 -50q-32 0 -56.5 11.5t-41 30.5t-25 42t-8.5 46q0 29 10 56.5t26.5 50.5t36 39t39.5 23q23 7 47 11t50 4q29 0 57.5 -6t51.5 -20q4 19 6.5 28.5t4 17t3.5 17t5 29.5q-18 3 -45 9.5
t-55 16t-52.5 21.5t-37.5 27zM290 134q5 12 8.5 24t7.5 25q-47 26 -95 26q-26 0 -53 -8.5t-48.5 -25t-35.5 -41t-14 -55.5q0 -37 24 -57t53 -20q23 0 46.5 11t44 29.5t37 42t25.5 49.5zM500 563q-21 -14 -36 -35t-25.5 -47.5t-17.5 -55.5t-13 -57q23 6 44 20t37.5 33t26 41
t9.5 45q0 29 -19 54zM336 223q40 -25 65 -71t39.5 -98t20 -102t5.5 -82v-1q-1 -2 -2 -6t-3 -4l-3 -3q-1 -1 -2.5 -1.5t-2.5 -1.5h-3q-1 0 -1 -0.5t-1 -0.5q-5 0 -10 4.5t-5 13.5q-10 79 -23.5 130t-28.5 84.5t-31.5 53.5t-32.5 37z" />
    <glyph glyph-name="M" unicode="M" horiz-adv-x="631" 
d="M99 243q0 -9 -4.5 -13.5t-10.5 -4.5q-11 0 -17 11q-30 50 -48 84.5t-18 67.5q0 25 12 52.5t39 62.5q11 15 32 33.5t46.5 34.5t52.5 26.5t50 10.5q32 0 50.5 -24.5t18.5 -86.5q0 -35 -6 -67.5t-16 -59.5l5 5q34 38 66.5 58t55.5 20q53 0 53 -97q0 -52 -14 -104.5
t-25 -103.5l-4 -11q5 5 8.5 10.5t8.5 10.5q2 3 6.5 8.5t17 22.5l37.5 51t68 93q3 2 6.5 2h5.5q14 0 20.5 -14t6.5 -32q0 -21 -4.5 -42.5t-6.5 -38.5q-5 -45 -11 -92.5t-6 -95.5q0 -26 2.5 -51t9.5 -49l16 -5q9 -8 9 -16q0 -6 -5 -10.5t-15 -4.5q-5 0 -16 4t-16 10
q-14 17 -19 51t-5 76q0 27 1.5 54.5t4 52.5t4.5 46.5t4 35.5l3 38q-18 -27 -43.5 -64.5t-52 -71t-48.5 -57.5t-32 -24q-12 0 -19 11.5t-7 27.5q0 21 5 51t12 61t14 59.5t12 46.5q8 32 8 64q0 8 -1 17t-3 17q-8 0 -22 -12.5t-28.5 -28.5t-27 -31.5t-16.5 -22.5
q-24 -35 -44 -73t-40.5 -76t-43.5 -74t-53 -66q-12 -7 -20 -7q-28 0 -31 32q1 18 9 38t18 40.5t21 39.5t19 35q18 37 30.5 61.5t23 47.5t20 49.5t20.5 65.5q7 24 11 48.5t4 46.5q0 28 -7.5 45.5t-27.5 17.5q-14 0 -32.5 -9.5t-44.5 -30.5q-47 -41 -68.5 -78.5t-21.5 -69.5
t16 -64t38 -71z" />
    <glyph glyph-name="N" unicode="N" horiz-adv-x="476" 
d="M52 250q4 -4 4 -11t-5 -12t-13 -5q-10 0 -17.5 7t-12 17.5t-7 22t-2.5 20.5q0 27 7 62t20 71.5t30.5 71t39 62t46 44t50.5 16.5q25 0 34.5 -20.5t9.5 -56.5q0 -29 -4.5 -61.5t-10.5 -62t-11.5 -52.5t-7.5 -32q5 18 28 46.5t52.5 55.5t61.5 46.5t55 19.5q13 0 21 -9
t12.5 -22.5t5.5 -30t1 -30.5q0 -40 -7.5 -80.5t-17 -82.5t-17 -84t-7.5 -85q0 -27 7 -38.5t24 -11.5q11 0 28 5t40 13q2 0 4.5 0.5t4.5 0.5q15 0 15 -14q0 -11 -14 -18t-31.5 -11t-33 -6t-19.5 -2q-40 0 -51.5 28t-11.5 72v19.5t1 20.5q1 16 6 44.5t10.5 62t10 67.5t4.5 61
q0 23 -5 38t-17 15q-14 0 -35 -20q-26 -24 -50 -57t-45 -69.5t-38.5 -74t-30.5 -69.5q-16 -38 -29 -77t-27 -77l-4 -7q-5 -10 -13.5 -14t-16.5 -4q-11 0 -20 8t-10 24q9 65 25 117t33.5 101.5t34.5 101.5t29 118q2 11 5 26t6 30.5t5 30.5t2 27q0 13 -3 21t-10 8
q-14 0 -36.5 -26.5t-44 -66.5t-37 -87.5t-15.5 -89.5q0 -31 15 -45z" />
    <glyph glyph-name="O" unicode="O" horiz-adv-x="536" 
d="M125 500q19 23 41.5 43t48 35t52.5 24t54 9q42 0 76.5 -21.5t60 -57.5t39.5 -83.5t14 -98.5q0 -63 -15.5 -122.5t-39.5 -104.5q-15 -33 -42 -64t-61.5 -55.5t-74.5 -39t-81 -14.5q-56 0 -94 18.5t-61.5 47.5t-33.5 66t-10 75q0 46 11.5 95t29.5 95t40.5 85.5t45.5 67.5z
M267 244q-33 0 -61.5 9t-49 25.5t-32.5 41t-12 56.5q0 12 1 24t5 26q-15 -29 -26.5 -61t-20 -65t-13 -65.5t-4.5 -60.5q0 -32 6.5 -61.5t22 -52t41 -36t63.5 -13.5q64 0 113 32t82 82t50 110.5t17 117.5q0 31 -5.5 62t-19 57.5t-35 47.5t-53.5 32q-6 2 -11.5 3t-12.5 1
q-27 0 -52 -19.5t-44 -48t-30.5 -61t-11.5 -58.5q0 -29 10.5 -46t26 -26t35 -13.5t37.5 -7.5q14 -4 14 -15q0 -17 -21 -17h-9z" />
    <glyph glyph-name="P" unicode="P" horiz-adv-x="517" 
d="M128 496q0 10 6 15.5t13 5.5q11 0 14 -14l1 -34q20 25 42.5 50.5t47 45.5t51 32.5t54.5 12.5q17 0 35 -6q59 -20 82.5 -59.5t23.5 -86.5q0 -38 -11 -77t-28 -73.5t-36.5 -62t-35.5 -41.5q-19 -16 -48.5 -29t-59.5 -13q-20 0 -39.5 7.5t-34.5 25.5q1 9 6 15t12 6
q8 0 14 -9q10 -3 19 -5t19 -2q29 0 54.5 16.5t46 41t35 52.5t22.5 52q7 21 10 42t3 40q0 45 -18.5 73.5t-53.5 28.5q-27 0 -55.5 -15t-54.5 -39t-49.5 -54.5t-41.5 -61.5q5 -45 8 -81t3 -74q0 -49 -6.5 -96.5t-20.5 -85t-35 -60.5t-51 -23q-40 0 -54.5 32t-14.5 89
q0 32 3 59t7 39q10 33 23 63.5t28 60t32 60t35 63.5q-1 19 -1 37t-1 37zM129 149q1 20 2 36t2 30.5l2 29t1 31.5q0 7 -0.5 14t-0.5 15q-13 -29 -27.5 -59.5t-26.5 -62.5t-20 -65t-8 -66q0 -24 5 -35t12 -11t17 12t18.5 31.5t15 45.5t8.5 54z" />
    <glyph glyph-name="Q" unicode="Q" horiz-adv-x="589" 
d="M20 61q-7 22 -11 51t-4 62q0 41 7 86t22 90.5t39 87.5t58.5 76.5t80.5 59t104 34.5q17 4 37 4q46 0 79.5 -16.5t55 -43.5t32 -61t10.5 -69q0 -38 -10 -84.5t-30 -95.5q34 -37 50 -93.5t16 -118.5q0 -54 -11.5 -105.5t-33.5 -93.5q-6 -7 -14 -7q-5 0 -11 4t-6 12t4 12l1 1
q12 33 18.5 69t6.5 73q0 49 -12 96.5t-36 91.5q-27 -52 -65.5 -97t-86.5 -79q-43 -29 -79 -42.5t-68 -13.5q-55 0 -91 32.5t-52 77.5zM294 318q3 0 5 -0.5t4 -0.5h7q39 0 72.5 -10.5t58.5 -24.5q9 29 13 56.5t4 53.5q0 33 -8 62t-25 50.5t-44.5 33.5t-66.5 12
q-44 0 -80.5 -17.5t-65.5 -47.5t-51 -69t-37 -82t-23 -87.5t-9 -83.5q19 32 42.5 60t53 49t64 33.5t76.5 12.5h10zM207 10q37 11 68.5 32t57 47.5t45.5 57t35 62.5q2 4 3.5 7.5t3.5 7.5q-23 15 -52 22t-58 7q-37 0 -76 -13t-71.5 -35.5t-53 -53t-20.5 -65.5q0 -36 25 -58.5
t60 -22.5q13 0 33 5z" />
    <glyph glyph-name="R" unicode="R" horiz-adv-x="579" 
d="M86 249q9 -6 9 -15q0 -16 -20 -16q-22 0 -37 7.5t-24 20t-12.5 28.5t-3.5 33q0 39 12 79.5t33 78t49 70t61 55.5q14 10 27.5 14t27.5 4q20 0 38 -9.5t31 -24t20.5 -32.5t7.5 -34q0 -8 -1 -11q34 20 68 29.5t64 9.5q52 0 87 -28t35 -86q0 -30 -14 -58t-36.5 -53t-50.5 -48
t-55 -42t-51 -34.5t-39 -26.5l-10 -6q21 -18 46 -32.5t51.5 -27.5t52 -24.5t47.5 -22.5q9 -6 9 -14q0 -7 -4.5 -12t-12.5 -5q-6 0 -9 2q-44 14 -92 40.5t-94 51.5q-6 3 -13 7t-13.5 9.5t-11.5 12t-5 14.5q0 10 5 17.5t12 13t15.5 10t16.5 9.5q31 20 65.5 46t63 55.5t47 60.5
t18.5 61q0 24 -15 40.5t-48 16.5q-36 0 -62.5 -14.5t-45.5 -37t-32 -50t-23 -54.5q-17 -45 -35 -104.5t-35.5 -120.5t-34 -118t-30.5 -96q-1 1 -2 1v-1q-12 -15 -28 -15q-12 0 -21 9.5t-9 24.5v9q16 63 36.5 123.5t40.5 122.5q16 64 37 119l10 35q6 19 11.5 42.5t10 48
t8 49.5t3.5 47q0 27 -7.5 37t-26.5 10q-24 0 -47 -18.5t-42.5 -45.5t-34.5 -57t-24 -53q-5 -13 -10.5 -33.5t-5.5 -40.5q0 -22 9.5 -37.5t36.5 -15.5h6v0z" />
    <glyph glyph-name="S" unicode="S" horiz-adv-x="497" 
d="M406 581q9 -8 9 -16q0 -16 -21 -16q-13 6 -21.5 10t-16 6.5t-15.5 4t-21 1.5q-17 0 -38 -7.5t-40 -20t-32.5 -29.5t-14.5 -35q0 -21 13.5 -41t34.5 -40.5t47 -42.5t51.5 -47t47 -54t33.5 -64q38 -11 72 -23.5t62 -23.5q9 -6 9 -16q0 -15 -21 -15q-26 9 -53 17t-53 16
q0 -8 1.5 -17.5t1.5 -17.5q0 -46 -20.5 -78.5t-55 -53t-79 -30t-92.5 -9.5q-40 0 -75 8.5t-61.5 25t-41.5 41.5t-15 58q0 38 16 68.5t43 51.5t62.5 32t74.5 11q31 0 64 -5.5t75 -14.5q-8 19 -26 40.5t-40 43.5t-45 45.5t-42.5 47.5t-31.5 48.5t-12 49.5q0 24 13 45t35 37.5
t49.5 26t56.5 9.5q56 0 113 -27zM341 34q20 13 28 32.5t8 40.5q0 14 -3.5 28.5t-8.5 27.5l-30 6q-28 5 -58 8.5t-61 3.5q-16 0 -43 -4t-53 -15t-45 -30t-19 -50q0 -24 12 -41t31.5 -27.5t43.5 -15t48 -4.5q43 0 83.5 11.5t66.5 28.5z" />
    <glyph glyph-name="T" unicode="T" horiz-adv-x="663" 
d="M425 508q0 -5 -2.5 -9t-4.5 -6l-28 -210q-9 -87 -33 -174q-8 -26 -18.5 -52.5t-27.5 -48t-42.5 -35.5t-61.5 -14q-29 0 -58.5 11t-53 28.5t-38 40.5t-14.5 47q0 26 17.5 46.5t42.5 35t52.5 23.5t47.5 12q27 5 53 8t52 3h16l31 157l-18 -7q-21 -10 -48.5 -21.5t-57.5 -21
t-61 -16t-59 -6.5q-45 0 -76.5 21.5t-33.5 77.5q0 41 21 72.5t56.5 54.5t82 38.5t97.5 25t103 13.5t99 4q38 0 68.5 -2t50.5 -6q19 -4 40 -9.5t30 -18.5v-3q-2 -7 -11 -8.5t-21 -1.5q-20 0 -34 1t-25.5 2t-22 2t-23.5 1q-72 0 -146 -10.5t-146 -32.5q-22 -6 -49.5 -16.5
t-52 -26t-41 -36.5t-16.5 -49q0 -23 17 -29t38 -6q51 0 105 12.5t102 31.5l41 16q3 13 6 31t7.5 34.5t11 29.5t15.5 16q9 0 13.5 -3t7.5 -14v-3zM281 75q13 24 21.5 50.5t14.5 54.5q-25 -2 -52.5 -5.5t-54.5 -10t-52 -17.5t-45 -26q-11 -9 -11 -24q0 -17 10 -30.5t25 -23
t32.5 -15t31.5 -5.5q23 0 44.5 12t35.5 40z" />
    <glyph glyph-name="U" unicode="U" horiz-adv-x="599" 
d="M18 369q-8 1 -12 5.5t-4 10.5q0 7 7.5 14t18 12.5t21.5 9t19 3.5q32 0 57 -24.5t25 -66.5q0 -5 -0.5 -9t-1.5 -9q-4 -29 -10 -57t-11.5 -56t-9.5 -56t-4 -57q0 -11 1.5 -24.5t7 -26.5t15 -21.5t25.5 -8.5q38 0 74.5 14.5t68.5 30.5q7 100 30.5 210t59.5 219q6 19 14 41.5
t19 42t25.5 32t33.5 12.5q23 0 39.5 -15t27 -39.5t15.5 -57t5 -68.5q0 -62 -13.5 -124t-42 -118.5t-71.5 -103t-102 -77.5q0 -1 1 -2q3 -14 5 -22t5 -13.5t7.5 -12t12.5 -17.5q3 -3 3.5 -6t0.5 -6q0 -6 -4.5 -10.5t-10.5 -4.5q-9 0 -17 9t-14.5 22t-11.5 26t-7 21
q-37 -17 -76 -29t-74 -12q-50 0 -77.5 29.5t-27.5 87.5q0 33 7 70t16 72.5t16 66.5t7 52q0 23 -10.5 42.5t-32.5 19.5q-9 0 -20 -4.5t-25 -16.5zM423 383q-8 -28 -20 -63.5t-24 -75.5t-21.5 -82.5t-13.5 -84.5q46 31 77 69t50.5 82t28 92.5t8.5 101.5q0 14 -1 32.5t-4 35
t-7.5 28t-10.5 11.5q-9 0 -18.5 -18.5t-18 -43.5t-15.5 -49t-10 -35z" />
    <glyph glyph-name="V" unicode="V" horiz-adv-x="683" 
d="M134 191q5 1 10 1h9q25 0 25 -11q0 -7 -7 -12.5t-18 -9t-24.5 -5t-26.5 -1.5q-44 0 -71.5 19.5t-27.5 72.5q0 39 24.5 86.5t60.5 92.5t76 83.5t71 59.5q6 4 17.5 12t25 15t28.5 12.5t29 5.5q16 0 26 -10.5t15 -26t7 -33.5t2 -34q0 -46 -4 -98t-9.5 -107t-12 -111
t-12.5 -110q33 60 67.5 125.5t69.5 131.5t70.5 130t71.5 121q6 9 14 9q16 0 16 -16q0 -3 -2 -9q-29 -60 -57 -116.5t-55 -111.5t-55 -110t-57 -113q-8 -16 -20.5 -43t-25.5 -54t-25.5 -49.5t-19.5 -29.5q-8 -9 -21 -9t-24 9t-16 23l-2 -1l2 3q1 58 6.5 116t12 115.5
t13.5 115t10 115.5q1 18 3 37t2 38q0 16 -3 31l-1 7q-34 -13 -68 -35.5t-64.5 -50.5t-57 -59.5t-45.5 -62.5t-30 -59.5t-11 -49.5q0 -26 21.5 -33t46.5 -7q6 0 12 0.5t9 0.5z" />
    <glyph glyph-name="W" unicode="W" horiz-adv-x="790" 
d="M173 221q9 -6 9 -16q0 -6 -5 -11t-15 -5q-19 0 -38.5 -2.5t-39.5 -2.5q-14 0 -28.5 3.5t-26.5 12.5t-19.5 25t-7.5 42q0 36 14.5 79.5t35.5 86t44.5 78.5t41.5 57q11 14 30 27.5t39 13.5q21 0 36 -13.5t25 -33t15.5 -41t7.5 -36.5q4 -24 5.5 -49t1.5 -51q0 -67 -5.5 -137
t-5.5 -132v-22v-13q5 10 9 19.5t10 19.5q13 24 27 55t28.5 63t30 62.5t31.5 54.5t32 38.5t32 14.5q19 0 28 -13t9 -29v-15t-2 -13v-9q0 -44 -0.5 -74t-1.5 -50t-1.5 -32.5t-0.5 -21.5q0 -21 1 -45t6 -45q14 42 33 82.5t36 81.5q16 39 33.5 84.5t36.5 91.5t38 90.5t39 82.5
q6 10 16 10q6 0 10.5 -4.5t4.5 -12.5q0 -5 -1 -8q-34 -71 -62 -144.5t-53.5 -148t-51 -147t-53.5 -139.5q-11 -13 -23 -13q-6 1 -17 6.5t-20 16.5t-14.5 31t-8.5 45.5t-4 55t-1 58.5q0 36 1 70.5t1 61.5q-26 -45 -45 -88t-35.5 -84t-33 -80t-36.5 -77q-10 -20 -17 -28
t-17 -8q-21 0 -32 16t-16.5 38.5t-6.5 46.5t-1 39q0 27 3 63t7 76.5t7 83t3 82.5q0 21 -2 46.5t-6 48t-11.5 38t-17.5 15.5q-11 0 -28 -14t-36 -36.5t-37.5 -51.5t-33.5 -59.5t-24.5 -60t-9.5 -52.5q0 -49 46 -49q17 0 35 3t33 3h10.5t9.5 -2z" />
    <glyph glyph-name="X" unicode="X" horiz-adv-x="724" 
d="M628 564q7 5 12 5q15 0 15 -16q0 -7 -3 -13q-20 -39 -44.5 -83t-52.5 -91t-57.5 -94.5t-59.5 -93.5q0 -14 1 -33t4 -41t9.5 -44.5t18.5 -43.5q6 -11 20 -15t31 -4q19 0 40.5 4t41.5 9t35.5 10t23.5 8q11 0 17.5 -5.5t6.5 -13.5q0 -7 -6 -11q-37 -17 -81 -32.5t-94 -15.5
q-35 0 -58 13.5t-36.5 35.5t-20 50t-9.5 57q-37 -47 -76 -91t-79 -88q-5 -7 -14 -7q-6 0 -10.5 4.5t-4.5 11.5t2 11q45 63 88.5 126t87.5 126q-1 25 -2 60t-4 72.5t-8 74.5t-14 66.5t-22.5 47.5t-32.5 18q-5 0 -8 -1q-48 -13 -83.5 -38t-64.5 -57.5t-53.5 -69.5t-48.5 -74
q-5 -4 -12 -4q-8 0 -14 5.5t-6 13.5q0 4 1 6q26 44 50.5 87.5t53.5 81.5t66 68t88 47q9 3 17 4t16 1q37 0 62.5 -26t41 -61.5t23.5 -73.5t11 -62q2 -17 2.5 -42.5t1.5 -53.5l76 110h1q26 43 52.5 86.5t61.5 78.5z" />
    <glyph glyph-name="Y" unicode="Y" horiz-adv-x="551" 
d="M51 227q3 -5 3 -10q0 -8 -5.5 -13t-13.5 -5q-9 0 -15.5 8.5t-10.5 21.5t-6 28t-2 28q0 47 17 103.5t46.5 105t67.5 81t80 32.5q8 0 17.5 -1t17.5 -5.5t13.5 -13t5.5 -23.5q0 -21 -7.5 -50.5t-19.5 -63.5t-25 -70.5t-25 -70.5t-19.5 -64t-7.5 -51q0 -17 6 -27t21 -10
q8 0 17.5 3.5t23.5 9.5q41 19 72 51.5t56.5 72t47.5 82.5t43 83q7 11 16 16.5t17 5.5q11 0 18.5 -8t7.5 -22v-7q-8 -36 -17 -72t-15 -74q-2 -12 -4 -27.5t-3.5 -32t-2.5 -32t-2 -27.5q26 9 53.5 17.5t54.5 18.5q9 0 13.5 -4.5t4.5 -10.5q0 -8 -15 -16t-35.5 -16t-42.5 -15
t-36 -12q-8 -44 -13.5 -79.5t-16.5 -67t-30.5 -61.5t-53.5 -63q-21 -20 -51.5 -31t-61.5 -11q-45 0 -70.5 26t-25.5 80q0 44 24 77.5t62 60t85 47t93 38.5l8 104q-17 -27 -42 -56.5t-56.5 -54t-66.5 -40.5t-71 -16q-29 0 -49.5 16.5t-20.5 59.5q0 40 15.5 91t34.5 100.5
t34.5 91.5t15.5 64q0 18 -14 18q-9 1 -32 -11q-32 -18 -54.5 -49.5t-36.5 -67.5t-21 -71.5t-7 -62.5q0 -13 2.5 -25t9.5 -21zM385 36q4 19 7 37.5t6 41.5l-9 -4q-27 -11 -60.5 -26.5t-62.5 -33.5t-50 -37t-24 -36q-3 -14 -3 -25q0 -33 17.5 -49t42.5 -16q23 0 45 12.5
t40.5 33.5t32 47.5t18.5 54.5z" />
    <glyph glyph-name="Z" unicode="Z" horiz-adv-x="469" 
d="M252 556q-51 -5 -105 -13t-113 -17q-5 -4 -11 -4q-5 0 -10 4t-6 12v2q2 7 4 9.5t9 6.5q43 12 86.5 21t87.5 17q23 5 57.5 9.5t69.5 4.5q25 0 48 -3.5t41 -13t29 -25.5t11 -40q0 -38 -19 -71.5t-45 -60.5q-36 -39 -72.5 -72t-73.5 -64.5t-74 -64t-73 -70.5
q-33 -34 -33 -54q0 -19 22 -25.5t51 -6.5q50 0 91 9t85 18h5q8 0 12.5 -4.5t4.5 -9.5q0 -11 -24 -20.5t-58 -17.5t-69.5 -12.5t-58.5 -4.5q-52 0 -85.5 17t-33.5 58q0 24 14.5 47.5t31.5 42.5q35 38 71 71.5t73 65.5t73.5 65t73.5 71q22 23 34.5 45t12.5 39q0 13 -7 21
t-19 12.5t-27.5 6t-31.5 1.5q-13 0 -25.5 -0.5t-23.5 -1.5z" />
    <glyph glyph-name="bracketleft" unicode="[" horiz-adv-x="263" 
d="M225 619q7 -2 10.5 -6t3.5 -9t-4 -11t-12 -6t-17.5 1t-19.5 1q-5 0 -9 -0.5t-9 -1.5q-11 -69 -18.5 -120.5t-15 -95.5t-15 -85.5t-17.5 -90t-23 -109t-31 -142.5q0 -5 -3 -9q4 -1 12 -1q17 0 31.5 5t24.5 5q6 0 9 -3t3 -12q0 -6 -1 -11q-22 -8 -44 -16.5t-39 -8.5
t-27.5 11t-10.5 39v7q2 57 9.5 118t22 135t36 166t51.5 212q9 27 20 36t27 9q11 0 25 -2.5t31 -4.5z" />
    <glyph glyph-name="backslash" unicode="\" horiz-adv-x="152" 
d="M39 631q8 -52 18.5 -106t18.5 -105q10 -63 18 -117.5t14.5 -106.5t12.5 -103.5t12 -107.5v-4q0 -8 -4 -12t-9 -4t-10.5 4t-7.5 15q-29 140 -50.5 271t-35.5 253q-2 24 -5.5 54t-3.5 53q0 15 3.5 24.5t14.5 9.5q4 0 8 -3.5t6 -14.5z" />
    <glyph glyph-name="bracketright" unicode="]" horiz-adv-x="266" 
d="M154 621q17 2 32 4t26 2q14 0 22.5 -8t8.5 -31v-7q-14 -120 -25.5 -212t-24.5 -166.5t-27.5 -135t-32.5 -117.5q-11 -32 -25.5 -44t-32.5 -12q-17 0 -36.5 8t-37.5 18q2 15 7 20.5t12 5.5q11 0 24 -6t29 -6q8 0 12 1q0 1 -0.5 1.5t-0.5 1.5t0.5 2.5t0.5 3.5
q12 82 21 142.5t17 109t15.5 90t16 86t19 96t25.5 120.5q-5 1 -10.5 1.5t-10.5 0.5q-9 0 -17.5 -0.5t-16.5 -0.5q-10 1 -10 11q0 6 5 12.5t15 8.5z" />
    <glyph glyph-name="asciicircum" unicode="^" horiz-adv-x="244" 
d="M21 261q-2 0 -3 -0.5t-2 -0.5q-16 0 -16 12q0 7 7.5 22.5t20 36.5t29.5 44.5t35.5 46t38 40.5t38.5 29q4 4 11 4q11 0 20 -10.5t9 -32.5q0 -11 -1 -21.5t-1 -21.5q0 -61 18 -130v-7q0 -8 -4.5 -11.5t-10.5 -3.5q-11 0 -20 18.5t-15.5 43.5t-11 51.5t-6.5 41.5
q-8 -4 -27 -27t-40.5 -49.5t-41 -49t-27.5 -25.5z" />
    <glyph glyph-name="underscore" unicode="_" horiz-adv-x="280" 
d="M248 46q8 -1 12.5 -6t4.5 -11q0 -9 -12.5 -14t-33.5 -7.5t-49 -3t-58 -0.5q-28 0 -56 1t-50 3q-2 6 -2 8q0 6 9 15q20 3 45 6t52 5t54 3.5t52 1.5q8 0 16 -0.5t16 -0.5z" />
    <glyph glyph-name="grave" unicode="`" horiz-adv-x="149" 
d="M25 407q-5 5 -5 10t3.5 8.5t9.5 3.5q3 0 5 -1q31 -9 50 -27t33 -48q4 -4 4 -9q0 -4 -4 -7.5t-9 -3.5q-3 0 -10 5q-14 9 -22 13.5t-15.5 10.5t-16 16t-23.5 29z" />
    <glyph glyph-name="a" unicode="a" horiz-adv-x="275" 
d="M189 235q0 -3 -0.5 -5t-1.5 -4q2 0 3.5 0.5t3.5 0.5q14 0 21 -9.5t7 -25.5q-3 -13 -8.5 -33t-11.5 -41.5t-10.5 -42.5t-4.5 -37q0 -9 2 -17q15 1 28 12t25 23.5t22 23t18 10.5q16 0 16 -16q0 -6 -4 -13q-5 -5 -16.5 -19t-26.5 -29t-33.5 -27t-36.5 -12q-14 0 -23 8.5
t-13.5 21.5t-6 27t-1.5 26q-6 -6 -15.5 -14t-20.5 -16t-22 -13.5t-19 -5.5q-26 0 -42 17t-16 47q0 42 12.5 81t32.5 69.5t44.5 48.5t47.5 18q22 0 36 -15t14 -35v-4zM61 77q21 12 34 30t24 38t22 39t27 33q-11 4 -11 16l-1 7l-23 8q-18 -12 -31.5 -30t-22.5 -39.5
t-13.5 -44.5t-4.5 -45v-12z" />
    <glyph glyph-name="b" unicode="b" horiz-adv-x="290" 
d="M235 425q-27 -44 -62.5 -81.5t-73.5 -72.5l-4 -27q17 20 38 34t41 14q9 0 20.5 -5t21 -16.5t16.5 -29t7 -42.5q0 -34 -12 -73t-32 -65q16 3 31 5.5t31 5.5q19 0 19 -16q0 -8 -14.5 -14t-34.5 -10.5t-41 -7.5t-33 -5q-27 -18 -54 -18q-7 0 -14 0.5t-14 1.5q-8 -20 -17 -27
t-20 -7t-22.5 9.5t-11.5 35.5q0 31 7 91t20 131t32 145t43.5 134.5t54 99t64.5 38.5q24 0 42 -18t18 -44q0 -45 -11 -86.5t-35 -79.5zM219 596q-23 -19 -40.5 -48t-30 -64t-22 -73.5t-16.5 -76.5q24 26 46 53t39 57q11 19 17 35.5t9 32t4 32.5t2 37q-1 3 -1 10q0 3 -1 6
q-4 0 -6 -1zM169 235q-6 0 -20 -24.5t-29 -56t-26 -61.5t-11 -41q0 -3 1 -4l39 5q9 5 20 16t20.5 28.5t16 41t6.5 53.5q0 15 -3.5 26.5t-12.5 16.5h-1zM86 71q0 1 0.5 1.5t0.5 1.5l-1 -2q0 -1 -1 -1h1z" />
    <glyph glyph-name="c" unicode="c" horiz-adv-x="221" 
d="M193 223q0 -8 -5 -13t-10 -5q-11 0 -17 11l-4 48h-11q-15 -9 -29.5 -28t-26.5 -42.5t-19.5 -48t-7.5 -45.5q0 -3 1 -10.5t3.5 -15.5t7.5 -14.5t13 -7.5q12 2 28 12.5t31.5 22.5t29.5 21.5t22 9.5q17 0 17 -16q0 -6 -5 -13q-13 -11 -27.5 -27t-30 -30.5t-33 -24.5
t-35.5 -10q-19 0 -34.5 9.5t-26.5 24t-17 32t-6 34.5q0 33 10.5 69.5t29.5 68t45 52t56 20.5q23 0 37.5 -15.5t14.5 -46.5v-10.5t-1 -11.5z" />
    <glyph glyph-name="d" unicode="d" horiz-adv-x="364" 
d="M162 256q11 -2 19 -8l4 9q10 46 21.5 92t24.5 91q4 13 10.5 37t16 46.5t23.5 39.5t33 17t26.5 -12t7.5 -32q0 -15 -3.5 -32t-8 -34t-10 -33t-9.5 -29q-14 -42 -33 -87.5t-45 -90.5q-7 -38 -13.5 -75.5t-12.5 -75.5v2l-2 -20t-1 -20q0 -26 8 -43q11 0 26 12t30 28t27.5 31
t18.5 21q7 5 12 5q16 0 16 -16q0 -6 -4 -13q-17 -18 -33.5 -37t-32.5 -35t-31 -26.5t-30 -10.5q-14 0 -24 9.5t-16 26t-8.5 39t-2.5 48.5v19t1 18q-12 -16 -29 -36.5t-34.5 -39t-34.5 -31t-30 -12.5h-5q-17 9 -23.5 13t-8.5 18q0 37 13.5 77.5t35.5 73.5t49.5 54.5
t56.5 21.5h5zM52 64q31 32 59.5 72t54.5 84q-3 1 -8 1h-1q-48 -22 -71 -64.5t-34 -92.5zM214 89q-1 -1 -1 -4q1 1 1 4zM303 468q0 1 0.5 1.5t0.5 1.5q-1 -1 -1 -3v-1v1z" />
    <glyph glyph-name="e" unicode="e" 
d="M185 219q-10 -21 -21.5 -42t-26 -39t-32 -31.5t-39.5 -19.5q0 -21 6 -41.5t25 -20.5q5 0 10.5 1t12.5 6q6 3 17.5 11t25 18.5t26 23t18.5 25.5q3 7 9 7q7 0 13 -6t6 -14q0 -7 -12 -22t-27.5 -31t-32 -30t-25.5 -18q-3 -1 -17.5 -9t-24.5 -8q-22 0 -38 9t-26.5 24
t-15.5 34.5t-5 40.5q-6 3 -6 11q0 7 5 12q0 12 1 24.5t5 25.5q6 21 16.5 50t26.5 55.5t38 45t50 18.5t38 -18.5t10 -42.5q0 -14 -2.5 -27.5t-7.5 -21.5zM137 261q-10 -8 -20 -23.5t-18 -33.5t-15 -37t-11 -35q12 11 30 42l10 17.5t11 23t9 24.5t4 22z" />
    <glyph glyph-name="f" unicode="f" horiz-adv-x="314" 
d="M159 200q-12 -12 -30 -25.5t-32 -27.5l-3 -27v12q-1 -14 -1.5 -26.5t-1.5 -26.5q14 8 28.5 12.5t26.5 4.5q7 0 10 -1l7 6q18 12 35 26t35 26.5t37 22t41 12.5q8 0 13.5 -5t5.5 -12q0 -13 -16 -15q-36 -8 -66.5 -35t-57.5 -50l3 -5q5 -13 5 -27q0 -16 -4.5 -34t-11 -35.5
t-13.5 -33t-12 -25.5q-7 -14 -16.5 -32t-21 -34t-25 -27.5t-28.5 -11.5q-13 0 -21.5 10t-13 26t-6.5 35t-2 36q0 11 0.5 21.5t1.5 21.5q-12 0 -19 6.5t-7 17.5q0 10 8 22.5t21 27.5q-1 109 15 215t51 209q7 21 16.5 48t22.5 51.5t30.5 41t42.5 16.5q35 0 50 -30t15 -78
q0 -57 -17.5 -110.5t-41.5 -106.5l-22.5 -45t-30.5 -41zM202 553q-11 -8 -20.5 -30.5t-16.5 -41.5l-3 -10q-24 -69 -38.5 -137t-22.5 -140q22 21 43.5 55t38.5 74.5t27.5 84t10.5 83.5q0 20 -2.5 34t-16.5 28zM120 20q-8 -6 -15.5 -12.5t-15.5 -12.5v-85q17 31 30.5 60.5
t18.5 62.5q-5 -3 -9.5 -6.5t-8.5 -6.5zM158 459q1 5 3 9t2.5 7t1.5 5l-7 -20v-1z" />
    <glyph glyph-name="g" unicode="g" horiz-adv-x="328" 
d="M109 238q20 15 41 15q23 0 34 -20q13 17 18 25.5t19 8.5q22 0 28 -24q0 -30 -2.5 -60t-2.5 -60v-3l7 7q4 4 12 11t17.5 13.5t19.5 11t19 4.5q7 0 7 -5q0 -14 -13 -26.5t-24 -23.5t-21.5 -22.5t-20.5 -23.5q2 -39 5 -77t3 -76q0 -31 -2.5 -62t-8.5 -65q-4 -21 -14.5 -43
t-26 -40t-36 -29t-44.5 -11q-27 0 -44 8t-27 20.5t-14 28t-4 29.5q0 13 2 26t4 27q5 27 19 60t32.5 66t39.5 63t40 53l14 18q-1 14 -1 29v30v26q-32 -34 -67 -67t-78 -49q-4 -1 -9 -1q-10 0 -18 8t-8 27q0 21 11 47t27.5 50.5t34.5 45t32 30.5zM191 -139q1 14 1.5 27.5
t0.5 27.5q0 40 -3 81q-25 -35 -44 -74t-34 -78q-2 -4 -5.5 -14t-7 -22.5t-6.5 -26t-3 -25.5q0 -14 6 -23t21 -9q24 0 38 15t21.5 36t10 44.5t4.5 40.5zM61 102q18 16 47.5 43.5t53.5 56.5q-7 7 -4.5 12t-3.5 5q-17 0 -31.5 -13.5t-26.5 -32.5t-21 -39t-14 -32z" />
    <glyph glyph-name="h" unicode="h" horiz-adv-x="333" 
d="M12 155q7 48 14 96.5t16.5 96.5t23 94.5t33.5 90.5q10 22 24 46t32 43.5t39.5 32.5t46.5 13q32 0 54.5 -23.5t22.5 -61.5q0 -56 -20.5 -104.5t-52.5 -90.5t-71.5 -78t-77.5 -68l-9 -7q-5 -29 -9 -58t-7 -58q5 6 13.5 16t18.5 19t20.5 15.5t18.5 6.5q5 0 9 -1
q23 -10 30.5 -26.5t9 -37t1.5 -42.5t6 -44q3 0 4 -1q8 7 19.5 16t19.5 9q16 0 16 -16q0 -5 -6 -13t-15 -16t-19.5 -13.5t-19.5 -5.5q-18 0 -28 18.5t-15 43t-7 47.5t-5 32q-17 -14 -28 -31.5t-20 -36t-18.5 -37.5t-23.5 -35q-9 -6 -18 -6q-10 0 -16.5 6.5t-10 17t-4.5 22.5
t-1 24q0 27 3.5 54.5t6.5 50.5zM133 436q-11 -35 -19.5 -69t-15.5 -69l22 21q27 27 52.5 56.5t45 61.5t31.5 67.5t12 76.5q0 10 -6.5 16t-16.5 6q-19 0 -35.5 -18t-29.5 -43.5t-23 -54.5t-17 -51z" />
    <glyph glyph-name="i" unicode="i" horiz-adv-x="207" 
d="M53 235q12 15 21 15q11 0 11 -19q-8 -49 -15.5 -91t-7.5 -68q0 -28 11 -29q7 -3 16 -3q24 0 54 14t51 36q6 2 9 2q7 0 12 -5t5 -12q0 -5 -5 -12q-51 -42 -88 -58.5t-63 -16.5q-30 0 -43.5 19.5t-13.5 49.5q0 55 15 97.5t31 80.5zM118 417q5 -8 5 -15q0 -9 -5.5 -15.5
t-13.5 -6.5t-14.5 7.5t-6.5 14.5q0 8 6 14t14 6q9 0 15 -5z" />
    <glyph glyph-name="j" unicode="j" horiz-adv-x="280" 
d="M180 248q3 15 17 15q5 0 9 -3t6 -10q0 -27 1 -54t1 -54l69 47q2 0 4 0.5t4 0.5q16 0 16 -15q0 -6 -11 -17t-26 -23.5t-31 -24.5t-25 -21q-1 -21 -2 -41l-2 -40q-2 -30 -10 -77.5t-23.5 -93t-39 -78.5t-55.5 -33q-21 0 -36 15.5t-25 39.5t-14.5 51.5t-4.5 51.5
q0 32 9.5 59t30 53t52 53t75.5 60q1 19 3 42t4 43.5t3 35.5t1 18zM162 42l-7 -7q-15 -14 -32 -29t-30.5 -31.5t-22.5 -36t-9 -41.5q0 -23 6.5 -45.5t14.5 -45.5l4 -12l7 8l23 50q13 31 19 52.5t13 51.5zM208 426q5 -6 5 -15t-5.5 -15.5t-13.5 -6.5t-14.5 7.5t-6.5 14.5
q0 8 6 14t15 6q8 0 14 -5z" />
    <glyph glyph-name="k" unicode="k" horiz-adv-x="364" 
d="M125 219q-24 -19 -49 -29l-3 -24l-2 -12q9 12 20.5 25.5t25 24.5t28 18.5t28.5 7.5q20 0 36.5 -12t16.5 -34q0 -34 -13.5 -58.5t-35.5 -50.5l-24 -27q17 4 37.5 9.5t40 11t35 9.5t22.5 6q8 0 13.5 -5t5.5 -12t-10 -15q-14 -3 -37.5 -11t-50.5 -16.5t-52.5 -15t-41.5 -6.5
q-14 0 -20 7t-6 15q0 13 13.5 30.5t30 37t30.5 39t14 36.5q0 3 -2 11q-6 0 -10 -4.5t-9 -8.5q-29 -24 -48 -57.5t-32 -68.5q-3 -8 -5.5 -18.5t-6.5 -19.5t-11.5 -15.5t-19.5 -6.5q-24 0 -29 30q0 70 7.5 146t21.5 148t34.5 136.5t47.5 113.5t59 77.5t70 28.5q23 0 42 -15.5
t32 -38.5t20 -49.5t7 -48.5q0 -11 -1 -19t-5 -13q-4 -38 -27 -74.5t-54.5 -70t-67.5 -62t-65 -50.5zM136 444q-10 -28 -18 -53t-14 -50.5t-11.5 -52t-10.5 -56.5q15 10 27 21q31 25 59.5 50t52 52.5t41 60t26.5 72.5q1 7 2 15t1 17q0 12 -2.5 25.5t-8 24.5t-14.5 18.5
t-23 7.5q-20 0 -38.5 -21t-32.5 -47.5t-23.5 -51t-12.5 -32.5z" />
    <glyph glyph-name="l" unicode="l" horiz-adv-x="265" 
d="M235 482q-7 -35 -23 -83.5t-37.5 -97.5t-48.5 -92.5t-55 -67.5q1 -26 6 -51.5t28 -40.5q45 9 81 33.5t65 60.5q7 5 12 5q7 0 12 -4.5t5 -12.5q0 -4 -2 -8q-13 -19 -33 -40.5t-43.5 -39.5t-48.5 -29.5t-48 -11.5q-42 0 -67 46t-25 136q0 37 8 97.5t26.5 123t48.5 116.5
t74 79q13 8 24 8q28 0 38.5 -22t10.5 -46q0 -17 -2.5 -32t-5.5 -26zM120 415q-47 -108 -50 -224q14 20 24 42t19 45q10 24 22 56.5t23 67t18.5 69t7.5 61.5q-23 -25 -37 -55.5t-27 -61.5z" />
    <glyph glyph-name="m" unicode="m" horiz-adv-x="440" 
d="M51 221q13 27 20 37t11 10q5 0 8.5 -11.5t3.5 -22.5q0 -20 -6 -45t-13 -51q11 19 20 38t20 36l12.5 22.5t17 27t20.5 23t25 9.5q12 0 19 -5.5t11 -13.5t5.5 -17.5t1.5 -18.5q0 -29 -9 -58.5t-11 -56.5l50 82q12 16 28 18q9 0 16.5 -6t10.5 -19q0 -17 -2.5 -42t-2.5 -49
q0 -18 3 -34t11 -25q20 2 39.5 18.5t35.5 39t28.5 46.5t19.5 42q7 10 15 10q7 0 12 -5t5 -14q-18 -55 -46 -96t-73 -79q-6 -5 -14.5 -9t-19.5 -4q-19 0 -31.5 10t-19.5 24t-10.5 30.5t-4.5 29.5q-14 -23 -31.5 -42.5t-45.5 -19.5q-14 0 -22 7.5t-11.5 18.5t-4.5 23.5
t-1 22.5t1 20l2 20q-9 -17 -22 -42.5t-28 -49.5t-31 -41t-31 -17q-12 0 -20.5 10t-8.5 31t5.5 46t13 50.5t16 49t13.5 42.5zM154 196q-1 -1 -1 -2v-5l1 6v1z" />
    <glyph glyph-name="n" unicode="n" horiz-adv-x="278" 
d="M78 246l2 -24t1 -24q0 -3 -0.5 -6.5t-0.5 -7.5q7 13 19 32.5t25.5 37.5t27 31t23.5 13q24 0 34 -13t10 -25q0 -43 -8 -84.5t-8 -83.5q0 -11 0.5 -22t2.5 -22l16 -12l55 17q6 2 8 2q17 0 17 -16q0 -7 -10.5 -15t-24.5 -14.5t-28.5 -10.5t-22.5 -4q-28 0 -48.5 29t-20.5 82
q0 21 2 41t4 34q-19 -25 -34 -53t-29 -56q-5 -9 -10 -21.5t-11.5 -23.5t-15.5 -18.5t-21 -7.5q-11 0 -18 7t-9 21q0 18 4 38.5t9.5 41t11.5 39.5t10 36v1q1 9 1.5 21.5t2 24t5 19.5t12.5 8q13 0 16 -12h1zM36 167l3 10z" />
    <glyph glyph-name="o" unicode="o" horiz-adv-x="282" 
d="M117 234q0 -1 1 -2q44 20 92.5 34t94.5 25q19 0 19 -16q0 -9 -10 -15q-32 -13 -63 -26.5t-62 -28.5q9 -15 9 -34q0 -15 -7 -38.5t-19.5 -46.5t-31.5 -42.5t-43 -28.5q-10 -4 -21.5 -4t-23.5 -2q-17 2 -31.5 21.5t-14.5 46.5q0 21 9.5 51.5t23.5 59t29.5 49t28.5 20.5
q9 0 15 -9l5 -13v-1zM109 173q-17 9 -20 23q-14 -29 -19 -61.5t-5 -63.5q16 2 29 16.5t22 31.5t14.5 32t5.5 17v2q-6 2 -14 1.5t-13 1.5z" />
    <glyph glyph-name="p" unicode="p" horiz-adv-x="339" 
d="M61 289q1 7 6 10.5t10 3.5q13 0 16 -15q-1 -17 -2 -33t-2 -33q8 12 18.5 25.5t23.5 25t29 18.5t36 7q36 0 60 -24t24 -72q0 -25 -7 -49t-20 -47q28 8 52.5 16t32.5 8t12 -4.5t4 -10.5q0 -7 -12.5 -14t-32.5 -15t-46 -17.5t-54 -20.5q-27 -26 -59.5 -42.5t-66.5 -18.5
q-2 -3 -2 -8l-25 -181q-10 -20 -29 -20q-9 0 -17 7t-10 19h-1v4q10 122 30 241t32 240zM100 75q-2 -5 -3 -12t-3 -15q25 12 57 24q30 26 51 59.5t21 62.5q0 19 -7.5 30t-20.5 11q-17 0 -32 -17.5t-27 -42.5t-21 -52.5t-15 -47.5z" />
    <glyph glyph-name="q" unicode="q" horiz-adv-x="344" 
d="M219 240q0 -4 -2 -6l16.5 16.5t17.5 5.5q11 0 19 -8t8 -22q0 -10 -5 -16v-1q-4 -8 -7 -12q-24 -48 -47 -97t-38 -100q20 21 39.5 39t40.5 35t45.5 33.5t55.5 36.5q6 5 13 5q14 0 14 -14q0 -8 -6 -14q-37 -42 -68.5 -72.5t-66.5 -57.5q5 1 9 1.5t8 0.5q22 0 31.5 -9.5
t9.5 -26.5q0 -26 -17 -57.5t-40 -59t-47.5 -46.5t-40.5 -19q-12 0 -22.5 6.5t-19 17t-13.5 24t-5 27.5q0 50 7.5 97.5t21.5 95.5l-8 -8q-15 -13 -36 -24t-40 -11q-16 0 -30.5 11.5t-14.5 33.5q0 2 0.5 3.5t0.5 3.5q21 112 105 197q5 5 15 13.5t21.5 16.5t24 14t23.5 6t20 -9
t9 -29q0 -5 -0.5 -10.5t-0.5 -10.5zM194 192q5 8 10 17t10 19q-5 -7 -12 -7q-5 0 -9.5 3t-6.5 9l-2 26l-3 2q-27 -15 -48.5 -38.5t-37.5 -51t-26 -58t-14 -58.5q6 0 14 5t15 12l13.5 13.5l9.5 9.5q24 23 47 47t40 50zM261 -48q-24 0 -49 -8.5t-49 -21.5q-3 -24 -3 -49
q0 -13 0.5 -25.5t8.5 -12.5q6 -1 14 6t14 12q25 22 40.5 46t23.5 53z" />
    <glyph glyph-name="r" unicode="r" horiz-adv-x="298" 
d="M21 63q-1 0 -1.5 -0.5t-2.5 -0.5q-8 0 -12.5 5.5t-4.5 12.5q0 9 7 15q9 16 23.5 46t29.5 62t29 60.5t22 41.5q8 8 19 8q9 0 20 -6q20 -27 34 -46.5t23 -36t13 -32t4 -33.5q0 -22 -5.5 -49t-13.5 -69q24 5 47 14l46 18q4 2 8 2q8 0 12 -5t4 -11q0 -8 -15 -18.5
t-35.5 -21.5t-42.5 -20.5t-35 -14.5h-10q-18 0 -28.5 17.5t-10.5 32.5q0 17 5 34t7 34q3 22 3 40q0 27 -7 50t-24 50q-4 -6 -12 -20.5t-17.5 -33.5t-20.5 -39.5t-21.5 -38.5t-20 -31t-16.5 -16z" />
    <glyph glyph-name="s" unicode="s" horiz-adv-x="300" 
d="M32 115q-6 -8 -14 -8q-7 0 -11.5 5t-4.5 13v5q12 27 32 56.5t41 56.5t39 50t26 38q0 10 11.5 14t15.5 4q12 0 19.5 -8t7.5 -24q-14 -50 -14 -99q0 -26 5 -50t12 -50q28 14 55.5 26t54.5 24q6 2 9 2q8 0 12 -5t4 -11q0 -7 -14 -17t-33.5 -20.5t-41.5 -21.5t-38 -21
q0 -32 -9.5 -54.5t-24 -36.5t-31.5 -20t-32 -6q-23 0 -38 12.5t-15 32.5q0 12 9.5 25t23 25t27 21t22.5 14q-6 36 -11 68t-5 63q-24 -24 -48 -49t-41 -54z" />
    <glyph glyph-name="t" unicode="t" horiz-adv-x="322" 
d="M74 150q3 33 7.5 64.5t11.5 63.5q-36 -8 -51.5 -14t-23.5 -6q-12 0 -12 16q0 15 19.5 28.5t45.5 24.5q16 14 25 25.5t15 24t10 27.5t10 36q3 9 7.5 29.5t12 41.5t18.5 37t27 16t16 -15q0 -8 -3 -22.5t-8.5 -37.5t-13 -56.5t-16.5 -79.5q10 0 19 0.5t18 0.5h26.5t30 -1.5
t24.5 -5.5t10 -13t-17.5 -15t-41 -11t-47.5 -9.5t-37 -9.5q-11 -48 -19 -102.5t-8 -102.5q0 -6 0.5 -16t1 -20.5t2 -18t4.5 -7.5q11 0 45.5 32.5t73.5 93.5q5 5 12 5t12 -4.5t5 -11.5q0 -5 -5 -12q-14 -27 -33.5 -56t-40.5 -52t-42 -38t-39 -15q-17 0 -27.5 12t-17 29t-9 36
t-2.5 34q0 20 1.5 39t3.5 36z" />
    <glyph glyph-name="u" unicode="u" horiz-adv-x="287" 
d="M61 296q6 10 15 10q6 0 11 -4.5t5 -12.5q0 -2 -2 -8q-12 -37 -22 -88.5t-10 -99.5q0 -35 7 -60q9 5 16 10v1q9 14 23 27t23 27q10 15 21 37.5t21.5 43t21.5 35t23 14.5q11 0 19 -8.5t8 -22.5q0 -17 -4.5 -43t-4.5 -55q0 -7 0.5 -18t2.5 -22t5 -19t8 -8q7 0 17 7.5t19 7.5
q5 0 7.5 -5.5t2.5 -7.5q0 -9 -7 -16t-16 -12.5t-18 -8t-14 -2.5q-14 0 -23.5 9.5t-15.5 22.5t-9 26.5t-5 20.5q-9 -18 -23.5 -36.5t-31 -33.5t-35 -24.5t-35.5 -9.5q-10 0 -20.5 4.5t-19 15t-14 27.5t-5.5 42t5.5 59t14.5 68.5t19.5 64.5t19.5 45z" />
    <glyph glyph-name="v" unicode="v" horiz-adv-x="304" 
d="M7 257q-3 6 -3 9q0 17 16 17q8 0 16.5 -8.5t12.5 -17.5q6 -14 8 -42t2 -60v-35t-1 -31q2 -9 2 -18t1 -19q55 75 103.5 152.5t99.5 154.5q6 10 16 10q6 0 10.5 -4.5t4.5 -11.5q0 -2 -0.5 -4.5t-0.5 -4.5q-16 -33 -40 -83.5t-51.5 -103.5t-57 -99t-56.5 -70
q-8 -8 -23.5 -12t-20.5 -4q-13 0 -21 8t-12.5 20.5t-6.5 28t-2 29.5q0 40 6.5 81t6.5 73q0 14 -2 25.5t-7 19.5z" />
    <glyph glyph-name="w" unicode="w" horiz-adv-x="446" 
d="M115 279q0 -15 -13 -17q-9 -17 -17.5 -43t-16 -54t-12 -54t-4.5 -42v-11q21 21 38.5 50.5t31.5 61.5q5 23 13.5 43.5t18.5 40.5l1 -1l3 4q11 10 25 10q12 0 20.5 -9t8.5 -25q0 -9 -8.5 -28.5t-16.5 -37.5q-5 -21 -8.5 -45t-3.5 -42t3 -25.5t11 -19.5l26 -5q1 0 2 -0.5
t2 -0.5q15 0 32.5 13t33.5 29.5t28.5 33t16.5 24.5q19 38 28 78.5t9 81.5v14q0 11 2.5 19t16.5 8q8 0 17.5 -4t18 -9.5t14.5 -11.5t6 -11q0 -15 -21 -15l-16 6q1 -4 1 -11q0 -49 -9 -97q-6 -32 -22 -68.5t-40 -67.5t-56.5 -51.5t-71.5 -20.5q-45 0 -65.5 22t-25.5 55
q-17 -20 -34 -32.5t-34 -14.5q-28 0 -36.5 18.5t-8.5 41.5q0 19 3 33q2 17 11.5 51t23 68.5t28.5 60.5t29 26q7 0 11 -4.5t6 -9.5v-5v0z" />
    <glyph glyph-name="x" unicode="x" horiz-adv-x="371" 
d="M249 261q7 10 16 10q6 0 10.5 -4.5t4.5 -12.5v-4t-1 -4q-20 -47 -45.5 -88.5t-54.5 -82.5q5 -11 12.5 -14.5t16.5 -3.5q12 0 25 5.5t25.5 14t23 19.5t16.5 22t15 11q16 0 16 -22q0 -7 -7.5 -19t-21.5 -26t-33 -28t-43 -24q-8 -3 -16 -5t-17 -2q-30 0 -52 16
q-7 -9 -16.5 -23.5t-19 -28t-18.5 -23.5t-14 -10q-8 0 -12.5 5t-4.5 13q0 1 0.5 2t0.5 3q11 31 24 59.5t29 56.5q-5 15 -6 32.5t-1 34.5q0 35 3 69.5t3 61.5l-20 -15l-24 -18t-23 -15t-18 -6t-11.5 5t-4.5 11q0 9 7 14q14 10 27.5 24t27 27t29 21.5t33.5 8.5q16 -4 23.5 -24
t10.5 -45.5t2.5 -52.5t-0.5 -44q36 49 81 97l-9 -13q4 3 6.5 7t4.5 8z" />
    <glyph glyph-name="y" unicode="y" horiz-adv-x="309" 
d="M83 246q1 8 6 12t10 4q16 0 16 -23q0 -29 -4 -58.5t-4 -59.5q0 -11 0.5 -21t3.5 -21q25 20 39.5 43.5t24.5 49.5t17.5 53t18.5 55q10 17 27 17t22 -14.5t5 -39.5q0 -27 -1.5 -54t-1.5 -54v-19q27 15 58 28.5t59 13.5q12 0 21.5 -4.5t9.5 -17.5q0 -11 -5.5 -16.5
t-11.5 -5.5q-11 0 -14 10h-6q-29 -8 -56.5 -22.5t-52.5 -31.5q0 -15 0.5 -29.5t0.5 -28.5q0 -63 -6.5 -124t-26.5 -124q-7 -22 -18 -44.5t-26 -41t-34.5 -30.5t-43.5 -12q-26 0 -45.5 12t-33.5 31t-21 43t-7 47q0 53 16 98.5t43.5 83.5t64 70t77.5 59v19t1 18q-1 0 -5 -6.5
t-9.5 -15.5t-11.5 -17t-9 -11l-37 -26q-10 -7 -22 -7q-14 0 -22.5 6.5t-13.5 17t-6.5 23.5t-1.5 26q0 35 7 69.5t9 69.5zM201 -84q3 39 3 77v33q-64 -51 -101.5 -112.5t-41.5 -135.5q0 -9 2.5 -23t8 -26.5t14 -22t21.5 -9.5q14 0 24 9.5t17.5 23t13 28t8.5 24.5
q10 27 18 61.5t13 72.5z" />
    <glyph glyph-name="z" unicode="z" horiz-adv-x="248" 
d="M24 217q-1 0 -1.5 -0.5t-1.5 -0.5h-1q-8 0 -13 5t-5 12q0 8 7 14q15 9 30.5 23t30.5 27t30 22.5t30 9.5q20 0 29 -17.5t9 -40.5q0 -7 -0.5 -13.5t-1.5 -12.5q-3 -17 -6.5 -30t-7.5 -25t-9.5 -25t-12.5 -29q-12 -26 -27 -52t-23 -54q14 0 37 5.5t47 13.5t47 18.5t37 21.5
q5 5 12 5q16 0 16 -16q0 -7 -5 -12q-35 -33 -80 -53.5t-89 -37.5q-8 -4 -20 -4q-5 0 -10 0.5t-10 0.5h-5q-20 3 -29.5 21.5t-9.5 38.5q0 23 9.5 47t22.5 47.5t26.5 45.5t21.5 42q11 29 14 57q-17 -10 -38.5 -25t-49.5 -29z" />
    <glyph glyph-name="braceleft" unicode="{" horiz-adv-x="312" 
d="M278 624q15 -2 15 -14q0 -6 -5 -11.5t-14 -6.5q-33 -3 -55.5 -18t-36.5 -37.5t-21.5 -50t-10.5 -55.5t-3.5 -53.5t-1.5 -44.5q-1 -18 -2 -28t-2.5 -18.5t-4.5 -18.5t-7 -29q-3 -13 -11.5 -27t-19.5 -28q5 -8 7 -18t2 -22q0 -29 -11 -63.5t-23 -63.5l3 12
q-6 -23 -12.5 -39.5t-5.5 -30.5q0 -15 11 -26.5t38 -20.5q11 -3 11 -12q0 -8 -6 -14t-16 -6h-3q-3 -1 -6.5 -1h-6.5q-19 0 -31 6.5t-19.5 17.5t-10.5 26t-3 32q0 21 3.5 43.5t8 45t10 43.5t8.5 38q0 8 -1.5 11t-4.5 4t-6.5 0.5t-7.5 0.5h-1q-13 2 -18 9.5t-5 15.5
q0 12 9.5 23t26.5 13q0 3 8.5 10t12.5 15l5 6q3 13 7 25t6 25q5 24 8.5 58t9 71.5t16.5 74t31.5 66t53 47.5t82.5 18z" />
    <glyph glyph-name="bar" unicode="|" horiz-adv-x="213" 
d="M165 633q5 22 14 22q8 0 11 -8.5t3 -15.5q0 -14 -2.5 -32.5t-6 -39t-7.5 -41t-7 -38.5q-27 -148 -62.5 -306.5t-79.5 -329.5q-6 -21 -17 -21q-4 0 -7.5 5t-3.5 14q0 5 1 7q12 69 23.5 132t24 126t26.5 129.5t31 141.5q14 63 29.5 127.5t29.5 127.5z" />
    <glyph glyph-name="braceright" unicode="}" horiz-adv-x="276" 
d="M147 621q62 -8 86 -41t24 -81q0 -46 -16 -100t-33 -107q-4 -12 -4.5 -24.5t-2.5 -23.5l2 -7q0 -7 5.5 -14t5.5 -9v-1q24 -2 24 -22q0 -11 -9.5 -22t-26.5 -16h-2q-3 -2 -9 -2h-6q-4 0 -7 -5t-5 -10q-7 -32 -14.5 -75.5t-22 -83.5t-40 -68t-67.5 -28h-7h-3q-7 0 -10.5 3.5
t-3.5 8.5q0 13 16 19q30 10 45.5 21.5t22 26.5t8 34t4.5 45q0 1 1 1v-1q0 -3 -1.5 -11t-2.5 -11q1 20 2 43.5t5.5 46t13.5 43.5t24 36q-9 18 -9 39q0 9 1 13q3 19 5 29.5t4 18.5t5.5 18t9.5 28q19 26 33.5 71.5t14.5 90.5q0 38 -15.5 65.5t-54.5 29.5q-13 0 -13 10
q0 7 6 13.5t17 8.5z" />
    <glyph glyph-name="asciitilde" unicode="~" horiz-adv-x="248" 
d="M27 130q-6 -2 -8 -2q-6 0 -9.5 3.5t-3.5 8.5q0 18 11 39t26.5 38.5t32 29.5t26.5 12q16 0 22.5 -16t9.5 -35.5t5.5 -35.5t11.5 -16q10 0 19.5 9t17 21.5t12.5 25t7 18.5q0 6 3.5 8.5t7.5 2.5q13 0 13 -13q0 -18 -5.5 -38t-16 -37.5t-26.5 -28.5t-37 -11q-18 0 -29.5 9.5
t-18.5 23t-9.5 29t-2.5 28.5q-3 -3 -5.5 -6t-6.5 -5l8 8q-5 -4 -13.5 -15t-17 -22.5t-15.5 -21.5t-9 -11z" />
    <glyph glyph-name="exclamdown" unicode="&#xa1;" horiz-adv-x="148" 
d="M36 17q-7 -10 -16 -10q-6 0 -10.5 5t-4.5 14q11 54 16.5 109t16.5 109q10 54 24 106t26 106q2 6 6.5 9t9.5 3t10.5 -3.5t5.5 -11.5q0 -114 -20 -222.5t-64 -213.5zM99 535q-5 8 -5 15q0 9 5 15.5t13 6.5q10 0 16 -7.5t6 -14.5q0 -8 -6 -13.5t-14 -5.5t-15 4z" />
    <glyph glyph-name="cent" unicode="&#xa2;" horiz-adv-x="228" 
d="M213 388q5 -7 5 -12q0 -10 -11 -10q-12 0 -26 10t-30 10q-18 0 -33.5 -16t-27.5 -41t-19 -55t-7 -58q0 -37 13.5 -62.5t45.5 -25.5q28 0 64 20q16 0 16 -11q0 -6 -8 -11q-29 -17 -53 -24t-44 -7q-25 0 -43.5 10.5t-30.5 28.5t-18 41.5t-6 49.5q0 33 9.5 67.5t28 62t46 45
t62.5 17.5q20 0 39 -9.5t28 -19.5zM133 488q1 8 6 11.5t10 3.5q12 0 16 -13q-9 -126 -24.5 -249.5t-42.5 -239.5q-1 -1 -5 -1q-8 0 -17 10q3 121 20.5 240t36.5 238z" />
    <glyph glyph-name="sterling" unicode="&#xa3;" horiz-adv-x="318" 
d="M281 453q11 -7 20.5 -23t9.5 -37q0 -6 -1.5 -15t-4.5 -17.5t-7.5 -14.5t-10.5 -6q-11 0 -11 15q0 7 3 16t3 16q0 19 -11 26.5t-18 7.5q-35 0 -55 -65.5t-26 -181.5h-1q5 -5 18 -19.5t28 -35.5t27.5 -45.5t15.5 -48.5l1 -1q-2 -7 -4 -8l1 -2l-3 -1q-2 -2 -6 -2h-2
q-1 -1 -3 -1q-8 0 -12 6l-2 3v4q-10 18 -16.5 30t-13.5 22.5t-15 20.5t-21 24q-12 -52 -30 -73.5t-38 -21.5q-18 0 -35 12.5t-30.5 32t-21.5 42.5t-8 44q0 25 14 42t47 17q27 0 59 -11q6 58 16 104.5t14 65.5q4 13 13 28.5t22 29t28.5 22t32.5 8.5q8 0 17 -2t17 -7zM122 158
q-27 13 -44 13q-16 0 -23 -9t-7 -23q0 -10 3.5 -21t9 -20.5t12.5 -15.5t14 -6q11 0 20.5 18.5t14.5 63.5zM237 262q-32 -6 -55.5 -8t-42.5 -2q-31 0 -54.5 2t-23.5 13q0 7 11.5 11.5t28 6.5t34.5 3t32 1h19.5t30.5 -0.5t28 -3.5t12 -9q0 -5 -5.5 -9.5t-14.5 -4.5z" />
    <glyph glyph-name="currency" unicode="&#xa4;" 
d="M102 368q11 11 27 11q15 0 29.5 -10.5t26 -27t19 -36.5t7.5 -39q0 -20 -11.5 -44.5t-29.5 -46t-40.5 -36t-44.5 -14.5q-24 0 -42.5 17t-18.5 52q0 22 7.5 47t18.5 49t25 45t27 33zM130 298q-20 8 -23 26q-16 -35 -22.5 -73t-6.5 -73q19 2 34.5 19t26.5 37.5t17 37.5t6 20
v2q-7 2 -16 1.5t-16 2.5zM93 171q-7 -10 -18.5 -26.5t-24.5 -32.5t-24 -28t-17 -12q-7 0 -7 8q0 9 5 18q11 24 22.5 46t22.5 42zM139 329q7 9 16 23.5t18.5 28t18.5 23t15 9.5t6 -9q0 -4 -3 -13q-9 -23 -17.5 -44.5t-18.5 -40.5zM166 226q11 -21 23 -44.5t24 -49.5
q5 -12 5 -17q0 -8 -6 -8q-9 0 -18 12l-48 62zM64 275q-12 23 -23 47.5t-22 53.5q-2 5 -2.5 8t-0.5 5q0 10 6 10t14.5 -9.5t18.5 -23t19 -28t15 -23.5z" />
    <glyph glyph-name="yen" unicode="&#xa5;" horiz-adv-x="271" 
d="M128 282q-9 -77 -18.5 -143t-25.5 -137q-2 -1 -5 -1q-9 0 -18 10q2 71 6.5 133.5t15.5 133.5zM102 282q31 40 63.5 79.5t64.5 78.5q6 8 14 8q6 0 10.5 -4.5t4.5 -11.5q0 -4 -1 -6q-34 -51 -69 -100.5t-72 -97.5zM89 228q-21 60 -40.5 119.5t-36.5 120.5q0 8 5 12.5
t10 4.5q13 0 17 -13l36 -92t35 -93zM185 240q-32 -5 -55.5 -7.5t-41.5 -2.5q-31 0 -55 2t-24 14q0 7 11.5 11.5t28 6.5t35 3t32.5 1h18.5t30.5 -0.5t28 -3.5t12 -9q0 -13 -20 -15zM178 189q-32 -6 -55.5 -8t-42.5 -2q-31 0 -54.5 2t-23.5 13q0 7 11.5 11.5t28 6.5t34.5 3
t32 1h19.5t30.5 -0.5t28 -3.5t12 -9q0 -5 -5.5 -9.5t-14.5 -4.5z" />
    <glyph glyph-name="brokenbar" unicode="&#xa6;" horiz-adv-x="202" 
d="M71 235q2 11 10 16.5t16 5.5q9 0 15 -5.5t6 -16.5q-20 -94 -42 -191t-48 -200q-6 -21 -17 -21q-4 0 -7.5 5t-3.5 14q0 5 1 7q9 52 17 100t16 94.5t17 94t20 97.5zM142 344q-2 -11 -8 -15.5t-14 -4.5t-15.5 4.5t-9.5 15.5l70 289q5 22 14 22q5 0 8.5 -5t5.5 -10
q-2 -30 -8 -68t-13.5 -78t-15.5 -79t-14 -71z" />
    <glyph glyph-name="section" unicode="&#xa7;" horiz-adv-x="262" 
d="M238 409q0 -8 -5 -12.5t-11 -4.5t-10 4.5t-16 4.5q-21 0 -41 -7t-35.5 -19t-25 -27t-9.5 -31q0 -11 5.5 -21.5t17.5 -19.5q7 -5 22 -14.5t29.5 -22.5t25.5 -27t11 -28t-7.5 -24.5t-19 -17t-25 -9.5t-25.5 -3q-28 0 -52 12t-28 33q0 8 5.5 13.5t11.5 5.5q10 0 10 -11
q1 -11 14 -15t27 -4t25 3t13 8q-13 18 -34 31.5t-41.5 27.5t-35.5 31.5t-15 43.5q0 28 17 52t42 42t53.5 28t52.5 10q20 0 36 -6t18 -23v-3zM104 244q-16 -12 -25.5 -27t-9.5 -31q0 -11 5 -21.5t18 -20.5q7 -5 21.5 -15t29.5 -22.5t26 -26.5t11 -28t-7.5 -23.5t-19.5 -16.5
t-25.5 -10t-25.5 -3q-27 0 -51 12t-29 33q1 8 6.5 13t11.5 5q10 0 11 -10q1 -11 13 -15t26 -4t25.5 3t13.5 8q-13 17 -34 30.5t-41.5 28t-35.5 31.5t-15 42q0 28 18 53.5t45 45.5z" />
    <glyph glyph-name="dieresis" unicode="&#xa8;" horiz-adv-x="155" 
d="M57 376q6 -8 6 -17q0 -10 -6.5 -17.5t-16.5 -7.5q-11 0 -18 8t-7 16q0 9 7.5 16.5t18.5 7.5q8 0 16 -6zM130 377q5 -8 5 -17q0 -10 -6.5 -17.5t-16.5 -7.5q-11 0 -18 7.5t-7 15.5q0 10 7.5 17.5t18.5 7.5q8 0 17 -6z" />
    <glyph glyph-name="macron" unicode="&#xaf;" horiz-adv-x="216" 
d="M186 383q8 -1 12.5 -6t4.5 -11q0 -8 -10 -13t-25.5 -7.5t-34.5 -3.5t-38 -1t-40 1t-44 3q0 2 -0.5 4t-0.5 4q0 7 9 15q40 6 70.5 11t68.5 5q7 0 13.5 -0.5t14.5 -0.5z" />
    <glyph glyph-name="acute" unicode="&#xb4;" horiz-adv-x="139" 
d="M113 407q-15 -19 -23.5 -29t-15.5 -16t-15.5 -10.5t-22.5 -13.5q-5 -5 -11 -5q-5 0 -8 3.5t-3 7.5t3 9q14 30 33.5 48t50.5 27q1 1 5 1q5 0 8.5 -3.5t3.5 -8.5t-5 -10z" />
    <glyph glyph-name="mu" unicode="&#xb5;" horiz-adv-x="337" 
d="M-48 -180q-5 -7 -12 -14t-15 -7q-6 0 -13 5l1 -1q-5 7 -5 12q0 7 5 15.5t12 18t14 18t12 15.5q28 45 48 96t36.5 103.5t31 104t31.5 96.5q7 20 26 20q11 0 21 -9t10 -23q0 -4 -0.5 -7t-1.5 -7l-2 -4q-4 -15 -8.5 -34.5t-9 -40.5t-7.5 -42t-3 -37q0 -17 4 -27.5t13 -10.5
q13 0 28 16t29 39t27 49.5t22 46.5q1 2 4 13t6 24.5t6 25t4 13.5q0 7 7.5 10t11.5 3q12 0 22 -7.5t11 -9.5v-9q-15 -71 -26 -137.5t-11 -141.5v-13q0 -9 -5 -13t-11 -4t-10.5 3.5t-5.5 11.5q-1 26 -1.5 52t-0.5 52q-29 -43 -59.5 -67.5t-53.5 -24.5q-20 0 -33.5 15t-20.5 39
q-24 -62 -55 -117t-73 -109z" />
    <glyph glyph-name="mu" unicode="&#x3bc;" horiz-adv-x="337" 
d="M-48 -180q-5 -7 -12 -14t-15 -7q-6 0 -13 5l1 -1q-5 7 -5 12q0 7 5 15.5t12 18t14 18t12 15.5q28 45 48 96t36.5 103.5t31 104t31.5 96.5q7 20 26 20q11 0 21 -9t10 -23q0 -4 -0.5 -7t-1.5 -7l-2 -4q-4 -15 -8.5 -34.5t-9 -40.5t-7.5 -42t-3 -37q0 -17 4 -27.5t13 -10.5
q13 0 28 16t29 39t27 49.5t22 46.5q1 2 4 13t6 24.5t6 25t4 13.5q0 7 7.5 10t11.5 3q12 0 22 -7.5t11 -9.5v-9q-15 -71 -26 -137.5t-11 -141.5v-13q0 -9 -5 -13t-11 -4t-10.5 3.5t-5.5 11.5q-1 26 -1.5 52t-0.5 52q-29 -43 -59.5 -67.5t-53.5 -24.5q-20 0 -33.5 15t-20.5 39
q-24 -62 -55 -117t-73 -109z" />
    <glyph glyph-name="glyph109" unicode="&#xb7;" horiz-adv-x="110" 
d="M76 237q5 -6 5 -16q0 -8 -5.5 -14.5t-13.5 -6.5t-14.5 7t-6.5 14q0 8 6 14.5t14 6.5q7 0 15 -5z" />
    <glyph glyph-name="cedilla" unicode="&#xb8;" horiz-adv-x="130" 
d="M48 40q5 4 10 4q12 0 12 -13q0 -8 -6.5 -22t-6.5 -18l1 -1q1 0 1 1l1 2q-3 -6 -3 -17q7 4 14.5 8t15.5 4q15 0 22.5 -10.5t7.5 -18.5q0 -9 -6 -19.5t-14.5 -18.5t-18.5 -13.5t-18 -5.5q-12 0 -12 14q0 4 3 10.5t10 6.5q-4 -2 -14 -2q-18 0 -26 10t-8 21q0 23 12 44.5
t23 33.5zM62 4v1v-2q0 -1 -0.5 -2t-0.5 -2q0 2 0.5 3t0.5 2zM61 -1q0 -2 -0.5 -3t-0.5 -3q0 2 0.5 3.5t0.5 2.5z" />
    <glyph glyph-name="questiondown" unicode="&#xbf;" horiz-adv-x="244" 
d="M63 58q6 -6 23 -6q13 0 30.5 4.5t33 9.5t27.5 9.5t15 4.5q6 0 10.5 -5.5t4.5 -13.5q0 -12 -17.5 -22.5t-40.5 -18.5t-45 -12.5t-32 -4.5q-32 0 -51.5 17.5t-19.5 54.5q0 34 12 61.5t29.5 51.5t37.5 47t37 48q15 22 22.5 36t12 28t9 31.5t13.5 46.5q4 12 15 12q5 0 9.5 -4
t4.5 -12q-2 -48 -9.5 -82.5t-21.5 -64.5t-33.5 -60t-45.5 -69q-3 -4 -9 -13t-11.5 -19.5t-10 -21.5t-4.5 -20q0 -8 5 -13zM182 480q-5 8 -5 14q0 9 5 16t13 7q9 0 15.5 -8t6.5 -15t-6 -13t-14 -6q-9 0 -15 5z" />
    <glyph glyph-name="Agrave" unicode="&#xc0;" horiz-adv-x="510" 
d="M33 -76q-4 -4 -9 -4q-8 0 -13.5 8.5t-5.5 19.5q0 14 13 22t24 19l12 12q28 29 52 64t38 59q47 79 81 165.5t66 170.5q7 17 14 40.5t15.5 44.5t18.5 35.5t24 14.5q17 0 26.5 -12.5t9.5 -32.5q0 -14 -2.5 -27.5t-4.5 -22.5q-5 -39 -10 -69.5t-10 -63.5t-10 -74t-9 -101
q33 16 63.5 29t56.5 23q6 2 8 2q17 0 17 -16q0 -8 -10 -15q-36 -21 -70 -43t-69 -45q0 -40 5.5 -74.5t21.5 -52.5q4 -6 12 -9.5t15 -6.5t12.5 -7.5t5.5 -11.5q0 -16 -20 -16q-12 6 -25.5 10.5t-24.5 12.5t-18.5 23t-12.5 33t-8 36.5t-5 34.5q-29 -19 -63 -40t-70 -43.5
t-72 -46t-69 -45.5zM312 349q-27 -64 -56.5 -126.5t-67.5 -120.5q28 17 57 34t58 31q0 6 -0.5 12.5t-0.5 11.5q0 40 3 79.5t7 78.5zM344 718q-5 5 -5 10t3.5 8.5t9.5 3.5q3 0 5 -1q31 -9 50 -27t33 -48q4 -4 4 -9q0 -4 -4 -7.5t-9 -3.5q-3 0 -10 5q-14 9 -22 13.5
t-15.5 10.5t-16 16t-23.5 29z" />
    <glyph glyph-name="Aacute" unicode="&#xc1;" horiz-adv-x="510" 
d="M33 -76q-4 -4 -9 -4q-8 0 -13.5 8.5t-5.5 19.5q0 14 13 22t24 19l12 12q28 29 52 64t38 59q47 79 81 165.5t66 170.5q7 17 14 40.5t15.5 44.5t18.5 35.5t24 14.5q17 0 26.5 -12.5t9.5 -32.5q0 -14 -2.5 -27.5t-4.5 -22.5q-5 -39 -10 -69.5t-10 -63.5t-10 -74t-9 -101
q33 16 63.5 29t56.5 23q6 2 8 2q17 0 17 -16q0 -8 -10 -15q-36 -21 -70 -43t-69 -45q0 -40 5.5 -74.5t21.5 -52.5q4 -6 12 -9.5t15 -6.5t12.5 -7.5t5.5 -11.5q0 -16 -20 -16q-12 6 -25.5 10.5t-24.5 12.5t-18.5 23t-12.5 33t-8 36.5t-5 34.5q-29 -19 -63 -40t-70 -43.5
t-72 -46t-69 -45.5zM312 349q-27 -64 -56.5 -126.5t-67.5 -120.5q28 17 57 34t58 31q0 6 -0.5 12.5t-0.5 11.5q0 40 3 79.5t7 78.5zM442 718q-15 -19 -23.5 -29t-15.5 -16t-15.5 -10.5t-22.5 -13.5q-5 -5 -11 -5q-5 0 -8 3.5t-3 7.5t3 9q14 30 33.5 48t50.5 27q1 1 5 1
q5 0 8.5 -3.5t3.5 -8.5t-5 -10z" />
    <glyph glyph-name="Acircumflex" unicode="&#xc2;" horiz-adv-x="510" 
d="M33 -76q-4 -4 -9 -4q-8 0 -13.5 8.5t-5.5 19.5q0 14 13 22t24 19l12 12q28 29 52 64t38 59q47 79 81 165.5t66 170.5q7 17 14 40.5t15.5 44.5t18.5 35.5t24 14.5q17 0 26.5 -12.5t9.5 -32.5q0 -14 -2.5 -27.5t-4.5 -22.5q-5 -39 -10 -69.5t-10 -63.5t-10 -74t-9 -101
q33 16 63.5 29t56.5 23q6 2 8 2q17 0 17 -16q0 -8 -10 -15q-36 -21 -70 -43t-69 -45q0 -40 5.5 -74.5t21.5 -52.5q4 -6 12 -9.5t15 -6.5t12.5 -7.5t5.5 -11.5q0 -16 -20 -16q-12 6 -25.5 10.5t-24.5 12.5t-18.5 23t-12.5 33t-8 36.5t-5 34.5q-29 -19 -63 -40t-70 -43.5
t-72 -46t-69 -45.5zM312 349q-27 -64 -56.5 -126.5t-67.5 -120.5q28 17 57 34t58 31q0 6 -0.5 12.5t-0.5 11.5q0 40 3 79.5t7 78.5zM341 651q-7 -5 -12 -5q-11 0 -11 11q0 10 10 26t24 32t29.5 28.5t27.5 15.5q20 0 26 -16.5t6 -35.5q0 -12 -1 -25t-1 -26q0 -5 1 -9t1 -9
q0 -11 -13 -11q-9 0 -14.5 8t-8.5 19.5t-4 24t-1 21.5q-17 -12 -34.5 -26.5t-24.5 -22.5z" />
    <glyph glyph-name="Atilde" unicode="&#xc3;" horiz-adv-x="510" 
d="M33 -76q-4 -4 -9 -4q-8 0 -13.5 8.5t-5.5 19.5q0 14 13 22t24 19l12 12q28 29 52 64t38 59q47 79 81 165.5t66 170.5q7 17 14 40.5t15.5 44.5t18.5 35.5t24 14.5q17 0 26.5 -12.5t9.5 -32.5q0 -14 -2.5 -27.5t-4.5 -22.5q-5 -39 -10 -69.5t-10 -63.5t-10 -74t-9 -101
q33 16 63.5 29t56.5 23q6 2 8 2q17 0 17 -16q0 -8 -10 -15q-36 -21 -70 -43t-69 -45q0 -40 5.5 -74.5t21.5 -52.5q4 -6 12 -9.5t15 -6.5t12.5 -7.5t5.5 -11.5q0 -16 -20 -16q-12 6 -25.5 10.5t-24.5 12.5t-18.5 23t-12.5 33t-8 36.5t-5 34.5q-29 -19 -63 -40t-70 -43.5
t-72 -46t-69 -45.5zM312 349q-27 -64 -56.5 -126.5t-67.5 -120.5q28 17 57 34t58 31q0 6 -0.5 12.5t-0.5 11.5q0 40 3 79.5t7 78.5zM315 646q-4 -2 -7 -2q-5 0 -8.5 3.5t-3.5 8.5t2 8q9 11 18.5 26t20 29t23 24t27.5 12q21 0 28 -17.5t7 -35.5v-16v-8q7 3 10.5 4t6 2.5t5 4
t8.5 9.5q-1 -2 -1 -4v-1q3 17 14 17q5 0 8.5 -3t3.5 -8q0 -11 -5.5 -22t-15 -20t-21.5 -14.5t-24 -5.5q-14 0 -21 5.5t-10.5 14.5t-4.5 19.5t-1 20.5q-8 -6 -17 -13.5t-17 -15t-15 -13.5t-10 -9z" />
    <glyph glyph-name="Adieresis" unicode="&#xc4;" horiz-adv-x="510" 
d="M33 -76q-4 -4 -9 -4q-8 0 -13.5 8.5t-5.5 19.5q0 14 13 22t24 19l12 12q28 29 52 64t38 59q47 79 81 165.5t66 170.5q7 17 14 40.5t15.5 44.5t18.5 35.5t24 14.5q17 0 26.5 -12.5t9.5 -32.5q0 -14 -2.5 -27.5t-4.5 -22.5q-5 -39 -10 -69.5t-10 -63.5t-10 -74t-9 -101
q33 16 63.5 29t56.5 23q6 2 8 2q17 0 17 -16q0 -8 -10 -15q-36 -21 -70 -43t-69 -45q0 -40 5.5 -74.5t21.5 -52.5q4 -6 12 -9.5t15 -6.5t12.5 -7.5t5.5 -11.5q0 -16 -20 -16q-12 6 -25.5 10.5t-24.5 12.5t-18.5 23t-12.5 33t-8 36.5t-5 34.5q-29 -19 -63 -40t-70 -43.5
t-72 -46t-69 -45.5zM312 349q-27 -64 -56.5 -126.5t-67.5 -120.5q28 17 57 34t58 31q0 6 -0.5 12.5t-0.5 11.5q0 40 3 79.5t7 78.5zM371 687q6 -8 6 -17q0 -10 -6.5 -17.5t-16.5 -7.5q-11 0 -18 8t-7 16q0 9 7.5 16.5t18.5 7.5q8 0 16 -6zM444 688q5 -8 5 -17
q0 -10 -6.5 -17.5t-16.5 -7.5q-11 0 -18 7.5t-7 15.5q0 10 7.5 17.5t18.5 7.5q8 0 17 -6z" />
    <glyph glyph-name="Aring" unicode="&#xc5;" horiz-adv-x="510" 
d="M33 -76q-4 -4 -9 -4q-8 0 -13.5 8.5t-5.5 19.5q0 14 13 22t24 19l12 12q28 29 52 64t38 59q47 79 81 165.5t66 170.5q7 17 14 40.5t15.5 44.5t18.5 35.5t24 14.5q17 0 26.5 -12.5t9.5 -32.5q0 -14 -2.5 -27.5t-4.5 -22.5q-5 -39 -10 -69.5t-10 -63.5t-10 -74t-9 -101
q33 16 63.5 29t56.5 23q6 2 8 2q17 0 17 -16q0 -8 -10 -15q-36 -21 -70 -43t-69 -45q0 -40 5.5 -74.5t21.5 -52.5q4 -6 12 -9.5t15 -6.5t12.5 -7.5t5.5 -11.5q0 -16 -20 -16q-12 6 -25.5 10.5t-24.5 12.5t-18.5 23t-12.5 33t-8 36.5t-5 34.5q-29 -19 -63 -40t-70 -43.5
t-72 -46t-69 -45.5zM312 349q-27 -64 -56.5 -126.5t-67.5 -120.5q28 17 57 34t58 31q0 6 -0.5 12.5t-0.5 11.5q0 40 3 79.5t7 78.5zM348 681q1 10 6.5 19.5t13 17t16.5 11.5t17 4q19 0 24 -20h8q2 0 7 -1t10.5 -3t10 -6.5t4.5 -11.5q0 -12 -7.5 -22.5t-18.5 -17.5t-24 -11
t-25 -4q-17 0 -30 8.5t-13 28.5q0 5 1 8zM411 688l-3 1.5l-3 1.5l-2 5l-1 1q-1 -1 -2 -1t-3 -2q1 0 1 -2q0 -1 -1.5 -3t-2.5 -4h10t9 2q0 1 -2 1z" />
    <glyph glyph-name="AE" unicode="&#xc6;" horiz-adv-x="685" 
d="M644 599q8 0 13.5 -6.5t5.5 -14.5q0 -6 -4 -12t-12 -7q-25 -2 -51.5 -6.5t-51.5 -12.5t-47.5 -22t-38.5 -35q-9 -14 -9 -27q0 -20 11.5 -33t29 -20t37 -9.5t36.5 -2.5q3 0 6.5 0.5t7.5 0.5q17 0 26.5 -10.5t9.5 -21.5q0 -4 -0.5 -7.5t-2.5 -8.5q-34 -23 -76.5 -48
t-80 -56t-63 -70t-25.5 -90q0 -27 7 -44.5t19 -28.5t28 -15.5t34 -4.5q21 0 43 5t43 12t40 15t33 15q4 2 8 2q16 0 16 -16q0 -9 -10 -15q-42 -26 -92.5 -44t-98.5 -18q-28 0 -51.5 7.5t-40.5 25t-26.5 46t-9.5 69.5v3v5q-67 -42 -137.5 -86t-136.5 -89q-4 -4 -9 -4
q-8 0 -13.5 8.5t-5.5 19.5q0 14 13 22t24 19l12 12q28 29 52 64t38 59q47 79 81 165.5t66 170.5q7 17 14 40.5t15.5 44.5t18.5 35.5t24 14.5q17 0 26.5 -12.5t9.5 -32.5q0 -14 -2.5 -27.5t-4.5 -22.5q-5 -35 -9 -65t-8.5 -60.5t-9 -66t-9.5 -81.5q25 35 56.5 64t66.5 53h2
q-34 13 -60.5 41t-26.5 63q0 24 13 45.5t32.5 39t43.5 30.5t46 20q29 9 57 12.5t58 3.5zM312 349q-27 -64 -56.5 -126.5t-67.5 -120.5q28 17 57 34t58 31q0 6 -0.5 12.5t-0.5 11.5q0 40 3 79.5t7 78.5z" />
    <glyph glyph-name="Ccedilla" unicode="&#xc7;" horiz-adv-x="568" 
d="M462 421q-6 -3 -11 -3q-7 0 -11 4.5t-4 9.5q0 8 9.5 24.5t9.5 33.5q0 38 -28 55.5t-64 17.5q-38 0 -73 -18.5t-65.5 -47t-56 -63t-43.5 -67.5q-26 -47 -42.5 -101t-16.5 -103q0 -39 12 -66.5t32.5 -44.5t49 -24.5t61.5 -7.5q44 0 93 12t96 31.5t89.5 45t73.5 53.5
q7 4 13 4q13 0 13 -12q0 -9 -7 -16q-33 -32 -81.5 -64t-103.5 -57t-112 -40.5t-107 -15.5t-85.5 17.5t-58 46t-32.5 64t-10 71.5q0 55 19 114t51 115q20 35 50 73.5t66.5 71t78 53.5t84.5 21q29 0 55 -8t45.5 -22.5t31 -34.5t11.5 -44q0 -17 -7.5 -37t-24.5 -41zM219 -21
q5 4 10 4q12 0 12 -13q0 -8 -6.5 -22t-6.5 -18l1 -1q1 0 1 1l1 2q-3 -6 -3 -17q7 4 14.5 8t15.5 4q15 0 22.5 -10.5t7.5 -18.5q0 -9 -6 -19.5t-14.5 -18.5t-18.5 -13.5t-18 -5.5q-12 0 -12 14q0 4 3 10.5t10 6.5q-4 -2 -14 -2q-18 0 -26 10t-8 21q0 23 12 44.5t23 33.5z
M233 -57v1v-2q0 -1 -0.5 -2t-0.5 -2q0 2 0.5 3t0.5 2zM232 -62q0 -2 -0.5 -3t-0.5 -3q0 2 0.5 3.5t0.5 2.5z" />
    <glyph glyph-name="Egrave" unicode="&#xc8;" horiz-adv-x="390" 
d="M339 608q9 0 14 -7t5 -15q0 -6 -3.5 -12t-11.5 -7q-25 -2 -51.5 -6t-52 -12.5t-47.5 -22t-38 -35.5q-9 -14 -9 -27q0 -20 11.5 -33t29 -20t37 -9.5t35.5 -2.5q4 0 7.5 0.5t7.5 0.5q17 0 26.5 -10.5t9.5 -21.5q0 -8 -3 -15q-34 -23 -76.5 -48.5t-80 -56.5t-63 -70
t-25.5 -90q0 -27 7 -44.5t19 -28.5t28 -15.5t34 -4.5q20 0 42 5t43 12t40 15.5t33 15.5q2 0 4.5 0.5t4.5 0.5q8 0 12 -4.5t4 -10.5q0 -10 -10 -16q-42 -26 -93 -43.5t-99 -17.5q-26 0 -49.5 7.5t-40.5 24t-27 43.5t-10 66q0 43 15 80.5t39 70t55 59.5t63 49l1 1
q-17 6 -32.5 16.5t-27.5 24t-19 29.5t-7 33q0 24 13 45.5t32.5 39t43.5 30.5t46 20q29 10 56.5 13t57.5 4zM212 718q-5 5 -5 10t3.5 8.5t9.5 3.5q3 0 5 -1q31 -9 50 -27t33 -48q4 -4 4 -9q0 -4 -4 -7.5t-9 -3.5q-3 0 -10 5q-14 9 -22 13.5t-15.5 10.5t-16 16t-23.5 29z" />
    <glyph glyph-name="Eacute" unicode="&#xc9;" horiz-adv-x="390" 
d="M339 608q9 0 14 -7t5 -15q0 -6 -3.5 -12t-11.5 -7q-25 -2 -51.5 -6t-52 -12.5t-47.5 -22t-38 -35.5q-9 -14 -9 -27q0 -20 11.5 -33t29 -20t37 -9.5t35.5 -2.5q4 0 7.5 0.5t7.5 0.5q17 0 26.5 -10.5t9.5 -21.5q0 -8 -3 -15q-34 -23 -76.5 -48.5t-80 -56.5t-63 -70
t-25.5 -90q0 -27 7 -44.5t19 -28.5t28 -15.5t34 -4.5q20 0 42 5t43 12t40 15.5t33 15.5q2 0 4.5 0.5t4.5 0.5q8 0 12 -4.5t4 -10.5q0 -10 -10 -16q-42 -26 -93 -43.5t-99 -17.5q-26 0 -49.5 7.5t-40.5 24t-27 43.5t-10 66q0 43 15 80.5t39 70t55 59.5t63 49l1 1
q-17 6 -32.5 16.5t-27.5 24t-19 29.5t-7 33q0 24 13 45.5t32.5 39t43.5 30.5t46 20q29 10 56.5 13t57.5 4zM325 718q-15 -19 -23.5 -29t-15.5 -16t-15.5 -10.5t-22.5 -13.5q-5 -5 -11 -5q-5 0 -8 3.5t-3 7.5t3 9q14 30 33.5 48t50.5 27q1 1 5 1q5 0 8.5 -3.5t3.5 -8.5
t-5 -10z" />
    <glyph glyph-name="Ecircumflex" unicode="&#xca;" horiz-adv-x="390" 
d="M339 608q9 0 14 -7t5 -15q0 -6 -3.5 -12t-11.5 -7q-25 -2 -51.5 -6t-52 -12.5t-47.5 -22t-38 -35.5q-9 -14 -9 -27q0 -20 11.5 -33t29 -20t37 -9.5t35.5 -2.5q4 0 7.5 0.5t7.5 0.5q17 0 26.5 -10.5t9.5 -21.5q0 -8 -3 -15q-34 -23 -76.5 -48.5t-80 -56.5t-63 -70
t-25.5 -90q0 -27 7 -44.5t19 -28.5t28 -15.5t34 -4.5q20 0 42 5t43 12t40 15.5t33 15.5q2 0 4.5 0.5t4.5 0.5q8 0 12 -4.5t4 -10.5q0 -10 -10 -16q-42 -26 -93 -43.5t-99 -17.5q-26 0 -49.5 7.5t-40.5 24t-27 43.5t-10 66q0 43 15 80.5t39 70t55 59.5t63 49l1 1
q-17 6 -32.5 16.5t-27.5 24t-19 29.5t-7 33q0 24 13 45.5t32.5 39t43.5 30.5t46 20q29 10 56.5 13t57.5 4zM238 651q-7 -5 -12 -5q-11 0 -11 11q0 10 10 26t24 32t29.5 28.5t27.5 15.5q20 0 26 -16.5t6 -35.5q0 -12 -1 -25t-1 -26q0 -5 1 -9t1 -9q0 -11 -13 -11
q-9 0 -14.5 8t-8.5 19.5t-4 24t-1 21.5q-17 -12 -34.5 -26.5t-24.5 -22.5z" />
    <glyph glyph-name="Edieresis" unicode="&#xcb;" horiz-adv-x="390" 
d="M339 608q9 0 14 -7t5 -15q0 -6 -3.5 -12t-11.5 -7q-25 -2 -51.5 -6t-52 -12.5t-47.5 -22t-38 -35.5q-9 -14 -9 -27q0 -20 11.5 -33t29 -20t37 -9.5t35.5 -2.5q4 0 7.5 0.5t7.5 0.5q17 0 26.5 -10.5t9.5 -21.5q0 -8 -3 -15q-34 -23 -76.5 -48.5t-80 -56.5t-63 -70
t-25.5 -90q0 -27 7 -44.5t19 -28.5t28 -15.5t34 -4.5q20 0 42 5t43 12t40 15.5t33 15.5q2 0 4.5 0.5t4.5 0.5q8 0 12 -4.5t4 -10.5q0 -10 -10 -16q-42 -26 -93 -43.5t-99 -17.5q-26 0 -49.5 7.5t-40.5 24t-27 43.5t-10 66q0 43 15 80.5t39 70t55 59.5t63 49l1 1
q-17 6 -32.5 16.5t-27.5 24t-19 29.5t-7 33q0 24 13 45.5t32.5 39t43.5 30.5t46 20q29 10 56.5 13t57.5 4zM247 695q6 -8 6 -17q0 -10 -6.5 -17.5t-16.5 -7.5q-11 0 -18 8t-7 16q0 9 7.5 16.5t18.5 7.5q8 0 16 -6zM320 696q5 -8 5 -17q0 -10 -6.5 -17.5t-16.5 -7.5
q-11 0 -18 7.5t-7 15.5q0 10 7.5 17.5t18.5 7.5q8 0 17 -6z" />
    <glyph glyph-name="Igrave" unicode="&#xcc;" horiz-adv-x="198" 
d="M141 592q2 9 6.5 13.5t9.5 4.5q17 0 17 -34q0 -17 -2.5 -38.5t-6 -43t-7 -41t-5.5 -32.5q-18 -117 -47 -228t-65 -223q-2 -7 -6.5 -10t-9.5 -3q-6 0 -10.5 5t-4.5 13v4q18 110 38 218t46 217q11 45 23.5 89t23.5 89zM132 718q-5 5 -5 10t3.5 8.5t9.5 3.5q3 0 5 -1
q31 -9 50 -27t33 -48q4 -4 4 -9q0 -4 -4 -7.5t-9 -3.5q-3 0 -10 5q-14 9 -22 13.5t-15.5 10.5t-16 16t-23.5 29z" />
    <glyph glyph-name="Iacute" unicode="&#xcd;" horiz-adv-x="198" 
d="M141 592q2 9 6.5 13.5t9.5 4.5q17 0 17 -34q0 -17 -2.5 -38.5t-6 -43t-7 -41t-5.5 -32.5q-18 -117 -47 -228t-65 -223q-2 -7 -6.5 -10t-9.5 -3q-6 0 -10.5 5t-4.5 13v4q18 110 38 218t46 217q11 45 23.5 89t23.5 89zM220 718q-15 -19 -23.5 -29t-15.5 -16t-15.5 -10.5
t-22.5 -13.5q-5 -5 -11 -5q-5 0 -8 3.5t-3 7.5t3 9q14 30 33.5 48t50.5 27q1 1 5 1q5 0 8.5 -3.5t3.5 -8.5t-5 -10z" />
    <glyph glyph-name="Icircumflex" unicode="&#xce;" horiz-adv-x="198" 
d="M141 592q2 9 6.5 13.5t9.5 4.5q17 0 17 -34q0 -17 -2.5 -38.5t-6 -43t-7 -41t-5.5 -32.5q-18 -117 -47 -228t-65 -223q-2 -7 -6.5 -10t-9.5 -3q-6 0 -10.5 5t-4.5 13v4q18 110 38 218t46 217q11 45 23.5 89t23.5 89zM133 651q-7 -5 -12 -5q-11 0 -11 11q0 10 10 26t24 32
t29.5 28.5t27.5 15.5q20 0 26 -16.5t6 -35.5q0 -12 -1 -25t-1 -26q0 -5 1 -9t1 -9q0 -11 -13 -11q-9 0 -14.5 8t-8.5 19.5t-4 24t-1 21.5q-17 -12 -34.5 -26.5t-24.5 -22.5z" />
    <glyph glyph-name="Idieresis" unicode="&#xcf;" horiz-adv-x="198" 
d="M141 592q2 9 6.5 13.5t9.5 4.5q17 0 17 -34q0 -17 -2.5 -38.5t-6 -43t-7 -41t-5.5 -32.5q-18 -117 -47 -228t-65 -223q-2 -7 -6.5 -10t-9.5 -3q-6 0 -10.5 5t-4.5 13v4q18 110 38 218t46 217q11 45 23.5 89t23.5 89zM150 687q6 -8 6 -17q0 -10 -6.5 -17.5t-16.5 -7.5
q-11 0 -18 8t-7 16q0 9 7.5 16.5t18.5 7.5q8 0 16 -6zM223 688q5 -8 5 -17q0 -10 -6.5 -17.5t-16.5 -7.5q-11 0 -18 7.5t-7 15.5q0 10 7.5 17.5t18.5 7.5q8 0 17 -6z" />
    <glyph glyph-name="Eth" unicode="&#xd0;" horiz-adv-x="591" 
d="M206 564q1 8 6 12t10 4q11 0 16 -14v-1q37 26 70 37t63 11q45 0 81 -24t60.5 -62t37.5 -85t13 -94q0 -67 -21 -137.5t-58 -128t-86 -94.5t-105 -37q-8 0 -24.5 2.5t-33.5 7.5t-29.5 14t-12.5 21q0 8 4 15t10 7q9 0 17 -14l-6 -4q16 -7 32 -10t30 -3q51 0 92.5 32.5
t70.5 83t45 112.5t16 122q0 39 -8 76.5t-25 66.5t-42.5 46.5t-61.5 17.5q-23 0 -41.5 -5.5t-33.5 -14.5t-28 -20t-25 -21q-2 -47 -6 -93t-9 -91q-2 -18 -6 -51t-10.5 -72t-16 -79t-23.5 -72.5t-33 -53.5t-43 -21q-20 0 -37 14.5t-29 38t-19 54.5t-7 64q0 59 17.5 118.5
t46 114t65.5 102t76 81.5q1 7 1 13.5v13.5zM181 305q6 34 10.5 68.5t7.5 69.5q-63 -71 -101.5 -157t-38.5 -175q0 -10 1 -26.5t4 -32.5t9 -28.5t16 -15.5q9 0 15.5 11.5t10.5 19.5q29 61 42 129.5t24 136.5zM267 235q9 -1 22 -7t13 -13q0 -6 -18.5 -10.5t-51.5 -7.5t-79 -5
t-101 -2q-32 0 -58.5 1t-43.5 3q-2 4 -2 7q0 6 9 15q21 3 56 6.5t75.5 6.5t81 4.5t70.5 1.5h27z" />
    <glyph glyph-name="Ntilde" unicode="&#xd1;" horiz-adv-x="476" 
d="M52 250q4 -4 4 -11t-5 -12t-13 -5q-10 0 -17.5 7t-12 17.5t-7 22t-2.5 20.5q0 27 7 62t20 71.5t30.5 71t39 62t46 44t50.5 16.5q25 0 34.5 -20.5t9.5 -56.5q0 -29 -4.5 -61.5t-10.5 -62t-11.5 -52.5t-7.5 -32q5 18 28 46.5t52.5 55.5t61.5 46.5t55 19.5q13 0 21 -9
t12.5 -22.5t5.5 -30t1 -30.5q0 -40 -7.5 -80.5t-17 -82.5t-17 -84t-7.5 -85q0 -27 7 -38.5t24 -11.5q11 0 28 5t40 13q2 0 4.5 0.5t4.5 0.5q15 0 15 -14q0 -11 -14 -18t-31.5 -11t-33 -6t-19.5 -2q-40 0 -51.5 28t-11.5 72v19.5t1 20.5q1 16 6 44.5t10.5 62t10 67.5t4.5 61
q0 23 -5 38t-17 15q-14 0 -35 -20q-26 -24 -50 -57t-45 -69.5t-38.5 -74t-30.5 -69.5q-16 -38 -29 -77t-27 -77l-4 -7q-5 -10 -13.5 -14t-16.5 -4q-11 0 -20 8t-10 24q9 65 25 117t33.5 101.5t34.5 101.5t29 118q2 11 5 26t6 30.5t5 30.5t2 27q0 13 -3 21t-10 8
q-14 0 -36.5 -26.5t-44 -66.5t-37 -87.5t-15.5 -89.5q0 -31 15 -45zM292 562q-4 -2 -7 -2q-5 0 -8.5 3.5t-3.5 8.5t2 8q9 11 18.5 26t20 29t23 24t27.5 12q21 0 28 -17.5t7 -35.5v-16v-8q7 3 10.5 4t6 2.5t5 4t8.5 9.5q-1 -2 -1 -4v-1q3 17 14 17q5 0 8.5 -3t3.5 -8
q0 -11 -5.5 -22t-15 -20t-21.5 -14.5t-24 -5.5q-14 0 -21 5.5t-10.5 14.5t-4.5 19.5t-1 20.5q-8 -6 -17 -13.5t-17 -15t-15 -13.5t-10 -9z" />
    <glyph glyph-name="Ograve" unicode="&#xd2;" horiz-adv-x="536" 
d="M125 500q19 23 41.5 43t48 35t52.5 24t54 9q42 0 76.5 -21.5t60 -57.5t39.5 -83.5t14 -98.5q0 -63 -15.5 -122.5t-39.5 -104.5q-15 -33 -42 -64t-61.5 -55.5t-74.5 -39t-81 -14.5q-56 0 -94 18.5t-61.5 47.5t-33.5 66t-10 75q0 46 11.5 95t29.5 95t40.5 85.5t45.5 67.5z
M267 244q-33 0 -61.5 9t-49 25.5t-32.5 41t-12 56.5q0 12 1 24t5 26q-15 -29 -26.5 -61t-20 -65t-13 -65.5t-4.5 -60.5q0 -32 6.5 -61.5t22 -52t41 -36t63.5 -13.5q64 0 113 32t82 82t50 110.5t17 117.5q0 31 -5.5 62t-19 57.5t-35 47.5t-53.5 32q-6 2 -11.5 3t-12.5 1
q-27 0 -52 -19.5t-44 -48t-30.5 -61t-11.5 -58.5q0 -29 10.5 -46t26 -26t35 -13.5t37.5 -7.5q14 -4 14 -15q0 -17 -21 -17h-9zM301 718q-5 5 -5 10t3.5 8.5t9.5 3.5q3 0 5 -1q31 -9 50 -27t33 -48q4 -4 4 -9q0 -4 -4 -7.5t-9 -3.5q-3 0 -10 5q-14 9 -22 13.5t-15.5 10.5
t-16 16t-23.5 29z" />
    <glyph glyph-name="Oacute" unicode="&#xd3;" horiz-adv-x="536" 
d="M125 500q19 23 41.5 43t48 35t52.5 24t54 9q42 0 76.5 -21.5t60 -57.5t39.5 -83.5t14 -98.5q0 -63 -15.5 -122.5t-39.5 -104.5q-15 -33 -42 -64t-61.5 -55.5t-74.5 -39t-81 -14.5q-56 0 -94 18.5t-61.5 47.5t-33.5 66t-10 75q0 46 11.5 95t29.5 95t40.5 85.5t45.5 67.5z
M267 244q-33 0 -61.5 9t-49 25.5t-32.5 41t-12 56.5q0 12 1 24t5 26q-15 -29 -26.5 -61t-20 -65t-13 -65.5t-4.5 -60.5q0 -32 6.5 -61.5t22 -52t41 -36t63.5 -13.5q64 0 113 32t82 82t50 110.5t17 117.5q0 31 -5.5 62t-19 57.5t-35 47.5t-53.5 32q-6 2 -11.5 3t-12.5 1
q-27 0 -52 -19.5t-44 -48t-30.5 -61t-11.5 -58.5q0 -29 10.5 -46t26 -26t35 -13.5t37.5 -7.5q14 -4 14 -15q0 -17 -21 -17h-9zM398 718q-15 -19 -23.5 -29t-15.5 -16t-15.5 -10.5t-22.5 -13.5q-5 -5 -11 -5q-5 0 -8 3.5t-3 7.5t3 9q14 30 33.5 48t50.5 27q1 1 5 1
q5 0 8.5 -3.5t3.5 -8.5t-5 -10z" />
    <glyph glyph-name="Ocircumflex" unicode="&#xd4;" horiz-adv-x="536" 
d="M125 500q19 23 41.5 43t48 35t52.5 24t54 9q42 0 76.5 -21.5t60 -57.5t39.5 -83.5t14 -98.5q0 -63 -15.5 -122.5t-39.5 -104.5q-15 -33 -42 -64t-61.5 -55.5t-74.5 -39t-81 -14.5q-56 0 -94 18.5t-61.5 47.5t-33.5 66t-10 75q0 46 11.5 95t29.5 95t40.5 85.5t45.5 67.5z
M267 244q-33 0 -61.5 9t-49 25.5t-32.5 41t-12 56.5q0 12 1 24t5 26q-15 -29 -26.5 -61t-20 -65t-13 -65.5t-4.5 -60.5q0 -32 6.5 -61.5t22 -52t41 -36t63.5 -13.5q64 0 113 32t82 82t50 110.5t17 117.5q0 31 -5.5 62t-19 57.5t-35 47.5t-53.5 32q-6 2 -11.5 3t-12.5 1
q-27 0 -52 -19.5t-44 -48t-30.5 -61t-11.5 -58.5q0 -29 10.5 -46t26 -26t35 -13.5t37.5 -7.5q14 -4 14 -15q0 -17 -21 -17h-9zM336 651q-7 -5 -12 -5q-11 0 -11 11q0 10 10 26t24 32t29.5 28.5t27.5 15.5q20 0 26 -16.5t6 -35.5q0 -12 -1 -25t-1 -26q0 -5 1 -9t1 -9
q0 -11 -13 -11q-9 0 -14.5 8t-8.5 19.5t-4 24t-1 21.5q-17 -12 -34.5 -26.5t-24.5 -22.5z" />
    <glyph glyph-name="Otilde" unicode="&#xd5;" horiz-adv-x="536" 
d="M125 500q19 23 41.5 43t48 35t52.5 24t54 9q42 0 76.5 -21.5t60 -57.5t39.5 -83.5t14 -98.5q0 -63 -15.5 -122.5t-39.5 -104.5q-15 -33 -42 -64t-61.5 -55.5t-74.5 -39t-81 -14.5q-56 0 -94 18.5t-61.5 47.5t-33.5 66t-10 75q0 46 11.5 95t29.5 95t40.5 85.5t45.5 67.5z
M267 244q-33 0 -61.5 9t-49 25.5t-32.5 41t-12 56.5q0 12 1 24t5 26q-15 -29 -26.5 -61t-20 -65t-13 -65.5t-4.5 -60.5q0 -32 6.5 -61.5t22 -52t41 -36t63.5 -13.5q64 0 113 32t82 82t50 110.5t17 117.5q0 31 -5.5 62t-19 57.5t-35 47.5t-53.5 32q-6 2 -11.5 3t-12.5 1
q-27 0 -52 -19.5t-44 -48t-30.5 -61t-11.5 -58.5q0 -29 10.5 -46t26 -26t35 -13.5t37.5 -7.5q14 -4 14 -15q0 -17 -21 -17h-9zM301 646q-4 -2 -7 -2q-5 0 -8.5 3.5t-3.5 8.5t2 8q9 11 18.5 26t20 29t23 24t27.5 12q21 0 28 -17.5t7 -35.5v-16v-8q7 3 10.5 4t6 2.5t5 4
t8.5 9.5q-1 -2 -1 -4v-1q3 17 14 17q5 0 8.5 -3t3.5 -8q0 -11 -5.5 -22t-15 -20t-21.5 -14.5t-24 -5.5q-14 0 -21 5.5t-10.5 14.5t-4.5 19.5t-1 20.5q-8 -6 -17 -13.5t-17 -15t-15 -13.5t-10 -9z" />
    <glyph glyph-name="Odieresis" unicode="&#xd6;" horiz-adv-x="536" 
d="M125 500q19 23 41.5 43t48 35t52.5 24t54 9q42 0 76.5 -21.5t60 -57.5t39.5 -83.5t14 -98.5q0 -63 -15.5 -122.5t-39.5 -104.5q-15 -33 -42 -64t-61.5 -55.5t-74.5 -39t-81 -14.5q-56 0 -94 18.5t-61.5 47.5t-33.5 66t-10 75q0 46 11.5 95t29.5 95t40.5 85.5t45.5 67.5z
M267 244q-33 0 -61.5 9t-49 25.5t-32.5 41t-12 56.5q0 12 1 24t5 26q-15 -29 -26.5 -61t-20 -65t-13 -65.5t-4.5 -60.5q0 -32 6.5 -61.5t22 -52t41 -36t63.5 -13.5q64 0 113 32t82 82t50 110.5t17 117.5q0 31 -5.5 62t-19 57.5t-35 47.5t-53.5 32q-6 2 -11.5 3t-12.5 1
q-27 0 -52 -19.5t-44 -48t-30.5 -61t-11.5 -58.5q0 -29 10.5 -46t26 -26t35 -13.5t37.5 -7.5q14 -4 14 -15q0 -17 -21 -17h-9zM319 687q6 -8 6 -17q0 -10 -6.5 -17.5t-16.5 -7.5q-11 0 -18 8t-7 16q0 9 7.5 16.5t18.5 7.5q8 0 16 -6zM392 688q5 -8 5 -17q0 -10 -6.5 -17.5
t-16.5 -7.5q-11 0 -18 7.5t-7 15.5q0 10 7.5 17.5t18.5 7.5q8 0 17 -6z" />
    <glyph glyph-name="multiply" unicode="&#xd7;" horiz-adv-x="261" 
d="M31 279q-3 4 -3 10q0 15 15 15q5 0 11 -3q26 -33 43 -54.5t29.5 -37t22 -28.5t20 -29.5t23.5 -39t32 -57.5q-5 -8 -17 -8h-5q-26 30 -43 50t-28.5 34.5t-20.5 27t-19.5 28t-24 37t-35.5 55.5zM209 298q5 5 12 5q16 0 16 -15q0 -2 -2 -8q-28 -31 -46.5 -52.5t-32.5 -38
t-26 -30.5t-27 -28.5t-35.5 -32.5t-50.5 -43q-6 4 -8 8t-2 14q25 31 41.5 51.5t29.5 36.5t24 28.5t25 26.5t33.5 32.5t48.5 45.5z" />
    <glyph glyph-name="Oslash" unicode="&#xd8;" horiz-adv-x="536" 
d="M125 500q19 23 41.5 43t48 35t52.5 24t54 9q42 0 76.5 -21.5t60 -57.5t39.5 -83.5t14 -98.5q0 -63 -15.5 -122.5t-39.5 -104.5q-15 -33 -42 -64t-61.5 -55.5t-74.5 -39t-81 -14.5q-56 0 -94 18.5t-61.5 47.5t-33.5 66t-10 75q0 46 11.5 95t29.5 95t40.5 85.5t45.5 67.5z
M267 244q-33 0 -61.5 9t-49 25.5t-32.5 41t-12 56.5q0 12 1 24t5 26q-15 -29 -26.5 -61t-20 -65t-13 -65.5t-4.5 -60.5q0 -32 6.5 -61.5t22 -52t41 -36t63.5 -13.5q64 0 113 32t82 82t50 110.5t17 117.5q0 31 -5.5 62t-19 57.5t-35 47.5t-53.5 32q-6 2 -11.5 3t-12.5 1
q-27 0 -52 -19.5t-44 -48t-30.5 -61t-11.5 -58.5q0 -29 10.5 -46t26 -26t35 -13.5t37.5 -7.5q14 -4 14 -15q0 -17 -21 -17h-9zM383 626q10 18 19 18q5 0 8 -4t5 -9q0 -9 -4 -24.5t-10 -33.5t-13 -36.5t-13 -33.5q-44 -121 -98 -250.5t-118 -268.5q-5 -10 -10 -14t-10 -4
q-10 0 -10 11q0 2 2 10q19 55 37.5 106.5t38 102.5t41 105t46.5 116q21 51 44.5 104t44.5 105z" />
    <glyph glyph-name="Ugrave" unicode="&#xd9;" horiz-adv-x="599" 
d="M18 369q-8 1 -12 5.5t-4 10.5q0 7 7.5 14t18 12.5t21.5 9t19 3.5q32 0 57 -24.5t25 -66.5q0 -5 -0.5 -9t-1.5 -9q-4 -29 -10 -57t-11.5 -56t-9.5 -56t-4 -57q0 -11 1.5 -24.5t7 -26.5t15 -21.5t25.5 -8.5q38 0 74.5 14.5t68.5 30.5q7 100 30.5 210t59.5 219q6 19 14 41.5
t19 42t25.5 32t33.5 12.5q23 0 39.5 -15t27 -39.5t15.5 -57t5 -68.5q0 -62 -13.5 -124t-42 -118.5t-71.5 -103t-102 -77.5q0 -1 1 -2q3 -14 5 -22t5 -13.5t7.5 -12t12.5 -17.5q3 -3 3.5 -6t0.5 -6q0 -6 -4.5 -10.5t-10.5 -4.5q-9 0 -17 9t-14.5 22t-11.5 26t-7 21
q-37 -17 -76 -29t-74 -12q-50 0 -77.5 29.5t-27.5 87.5q0 33 7 70t16 72.5t16 66.5t7 52q0 23 -10.5 42.5t-32.5 19.5q-9 0 -20 -4.5t-25 -16.5zM423 383q-8 -28 -20 -63.5t-24 -75.5t-21.5 -82.5t-13.5 -84.5q46 31 77 69t50.5 82t28 92.5t8.5 101.5q0 14 -1 32.5t-4 35
t-7.5 28t-10.5 11.5q-9 0 -18.5 -18.5t-18 -43.5t-15.5 -49t-10 -35zM177 554q-5 5 -5 10t3.5 8.5t9.5 3.5q3 0 5 -1q31 -9 50 -27t33 -48q4 -4 4 -9q0 -4 -4 -7.5t-9 -3.5q-3 0 -10 5q-14 9 -22 13.5t-15.5 10.5t-16 16t-23.5 29z" />
    <glyph glyph-name="Uacute" unicode="&#xda;" horiz-adv-x="599" 
d="M18 369q-8 1 -12 5.5t-4 10.5q0 7 7.5 14t18 12.5t21.5 9t19 3.5q32 0 57 -24.5t25 -66.5q0 -5 -0.5 -9t-1.5 -9q-4 -29 -10 -57t-11.5 -56t-9.5 -56t-4 -57q0 -11 1.5 -24.5t7 -26.5t15 -21.5t25.5 -8.5q38 0 74.5 14.5t68.5 30.5q7 100 30.5 210t59.5 219q6 19 14 41.5
t19 42t25.5 32t33.5 12.5q23 0 39.5 -15t27 -39.5t15.5 -57t5 -68.5q0 -62 -13.5 -124t-42 -118.5t-71.5 -103t-102 -77.5q0 -1 1 -2q3 -14 5 -22t5 -13.5t7.5 -12t12.5 -17.5q3 -3 3.5 -6t0.5 -6q0 -6 -4.5 -10.5t-10.5 -4.5q-9 0 -17 9t-14.5 22t-11.5 26t-7 21
q-37 -17 -76 -29t-74 -12q-50 0 -77.5 29.5t-27.5 87.5q0 33 7 70t16 72.5t16 66.5t7 52q0 23 -10.5 42.5t-32.5 19.5q-9 0 -20 -4.5t-25 -16.5zM423 383q-8 -28 -20 -63.5t-24 -75.5t-21.5 -82.5t-13.5 -84.5q46 31 77 69t50.5 82t28 92.5t8.5 101.5q0 14 -1 32.5t-4 35
t-7.5 28t-10.5 11.5q-9 0 -18.5 -18.5t-18 -43.5t-15.5 -49t-10 -35zM308 547q-15 -19 -23.5 -29t-15.5 -16t-15.5 -10.5t-22.5 -13.5q-5 -5 -11 -5q-5 0 -8 3.5t-3 7.5t3 9q14 30 33.5 48t50.5 27q1 1 5 1q5 0 8.5 -3.5t3.5 -8.5t-5 -10z" />
    <glyph glyph-name="Ucircumflex" unicode="&#xdb;" horiz-adv-x="599" 
d="M18 369q-8 1 -12 5.5t-4 10.5q0 7 7.5 14t18 12.5t21.5 9t19 3.5q32 0 57 -24.5t25 -66.5q0 -5 -0.5 -9t-1.5 -9q-4 -29 -10 -57t-11.5 -56t-9.5 -56t-4 -57q0 -11 1.5 -24.5t7 -26.5t15 -21.5t25.5 -8.5q38 0 74.5 14.5t68.5 30.5q7 100 30.5 210t59.5 219q6 19 14 41.5
t19 42t25.5 32t33.5 12.5q23 0 39.5 -15t27 -39.5t15.5 -57t5 -68.5q0 -62 -13.5 -124t-42 -118.5t-71.5 -103t-102 -77.5q0 -1 1 -2q3 -14 5 -22t5 -13.5t7.5 -12t12.5 -17.5q3 -3 3.5 -6t0.5 -6q0 -6 -4.5 -10.5t-10.5 -4.5q-9 0 -17 9t-14.5 22t-11.5 26t-7 21
q-37 -17 -76 -29t-74 -12q-50 0 -77.5 29.5t-27.5 87.5q0 33 7 70t16 72.5t16 66.5t7 52q0 23 -10.5 42.5t-32.5 19.5q-9 0 -20 -4.5t-25 -16.5zM423 383q-8 -28 -20 -63.5t-24 -75.5t-21.5 -82.5t-13.5 -84.5q46 31 77 69t50.5 82t28 92.5t8.5 101.5q0 14 -1 32.5t-4 35
t-7.5 28t-10.5 11.5q-9 0 -18.5 -18.5t-18 -43.5t-15.5 -49t-10 -35zM218 478q-7 -5 -12 -5q-11 0 -11 11q0 10 10 26t24 32t29.5 28.5t27.5 15.5q20 0 26 -16.5t6 -35.5q0 -12 -1 -25t-1 -26q0 -5 1 -9t1 -9q0 -11 -13 -11q-9 0 -14.5 8t-8.5 19.5t-4 24t-1 21.5
q-17 -12 -34.5 -26.5t-24.5 -22.5z" />
    <glyph glyph-name="Udieresis" unicode="&#xdc;" horiz-adv-x="599" 
d="M18 369q-8 1 -12 5.5t-4 10.5q0 7 7.5 14t18 12.5t21.5 9t19 3.5q32 0 57 -24.5t25 -66.5q0 -5 -0.5 -9t-1.5 -9q-4 -29 -10 -57t-11.5 -56t-9.5 -56t-4 -57q0 -11 1.5 -24.5t7 -26.5t15 -21.5t25.5 -8.5q38 0 74.5 14.5t68.5 30.5q7 100 30.5 210t59.5 219q6 19 14 41.5
t19 42t25.5 32t33.5 12.5q23 0 39.5 -15t27 -39.5t15.5 -57t5 -68.5q0 -62 -13.5 -124t-42 -118.5t-71.5 -103t-102 -77.5q0 -1 1 -2q3 -14 5 -22t5 -13.5t7.5 -12t12.5 -17.5q3 -3 3.5 -6t0.5 -6q0 -6 -4.5 -10.5t-10.5 -4.5q-9 0 -17 9t-14.5 22t-11.5 26t-7 21
q-37 -17 -76 -29t-74 -12q-50 0 -77.5 29.5t-27.5 87.5q0 33 7 70t16 72.5t16 66.5t7 52q0 23 -10.5 42.5t-32.5 19.5q-9 0 -20 -4.5t-25 -16.5zM423 383q-8 -28 -20 -63.5t-24 -75.5t-21.5 -82.5t-13.5 -84.5q46 31 77 69t50.5 82t28 92.5t8.5 101.5q0 14 -1 32.5t-4 35
t-7.5 28t-10.5 11.5q-9 0 -18.5 -18.5t-18 -43.5t-15.5 -49t-10 -35zM239 523q6 -8 6 -17q0 -10 -6.5 -17.5t-16.5 -7.5q-11 0 -18 8t-7 16q0 9 7.5 16.5t18.5 7.5q8 0 16 -6zM312 524q5 -8 5 -17q0 -10 -6.5 -17.5t-16.5 -7.5q-11 0 -18 7.5t-7 15.5q0 10 7.5 17.5
t18.5 7.5q8 0 17 -6z" />
    <glyph glyph-name="Yacute" unicode="&#xdd;" horiz-adv-x="551" 
d="M51 227q3 -5 3 -10q0 -8 -5.5 -13t-13.5 -5q-9 0 -15.5 8.5t-10.5 21.5t-6 28t-2 28q0 47 17 103.5t46.5 105t67.5 81t80 32.5q8 0 17.5 -1t17.5 -5.5t13.5 -13t5.5 -23.5q0 -21 -7.5 -50.5t-19.5 -63.5t-25 -70.5t-25 -70.5t-19.5 -64t-7.5 -51q0 -17 6 -27t21 -10
q8 0 17.5 3.5t23.5 9.5q41 19 72 51.5t56.5 72t47.5 82.5t43 83q7 11 16 16.5t17 5.5q11 0 18.5 -8t7.5 -22v-7q-8 -36 -17 -72t-15 -74q-2 -12 -4 -27.5t-3.5 -32t-2.5 -32t-2 -27.5q26 9 53.5 17.5t54.5 18.5q9 0 13.5 -4.5t4.5 -10.5q0 -8 -15 -16t-35.5 -16t-42.5 -15
t-36 -12q-8 -44 -13.5 -79.5t-16.5 -67t-30.5 -61.5t-53.5 -63q-21 -20 -51.5 -31t-61.5 -11q-45 0 -70.5 26t-25.5 80q0 44 24 77.5t62 60t85 47t93 38.5l8 104q-17 -27 -42 -56.5t-56.5 -54t-66.5 -40.5t-71 -16q-29 0 -49.5 16.5t-20.5 59.5q0 40 15.5 91t34.5 100.5
t34.5 91.5t15.5 64q0 18 -14 18q-9 1 -32 -11q-32 -18 -54.5 -49.5t-36.5 -67.5t-21 -71.5t-7 -62.5q0 -13 2.5 -25t9.5 -21zM385 36q4 19 7 37.5t6 41.5l-9 -4q-27 -11 -60.5 -26.5t-62.5 -33.5t-50 -37t-24 -36q-3 -14 -3 -25q0 -33 17.5 -49t42.5 -16q23 0 45 12.5
t40.5 33.5t32 47.5t18.5 54.5zM426 582q-15 -19 -23.5 -29t-15.5 -16t-15.5 -10.5t-22.5 -13.5q-5 -5 -11 -5q-5 0 -8 3.5t-3 7.5t3 9q14 30 33.5 48t50.5 27q1 1 5 1q5 0 8.5 -3.5t3.5 -8.5t-5 -10z" />
    <glyph glyph-name="Thorn" unicode="&#xde;" horiz-adv-x="296" 
d="M81 378q15 69 33.5 106.5t27.5 37.5q6 0 6 -16q0 -11 -3 -26q-9 -49 -16 -88t-14.5 -73.5t-15 -67.5t-16.5 -70t-20.5 -81t-25.5 -100q-6 -21 -17 -21q-4 0 -7.5 5t-3.5 14q0 4 1 7q8 46 13 77.5t9.5 56.5t8.5 46.5t9.5 47.5t12.5 60.5t18 84.5zM89 257q25 10 51 16t52 6
h8h9q9 0 14 -4q-5 -22 -20 -34t-34 -18.5t-40.5 -9.5t-39 -5.5t-29 -8t-11.5 -16.5q0 -12 10 -15t34 -3q11 0 37.5 3t55 11.5t51.5 24t27 40.5q2 7 2 13.5v13.5q0 38 -23 50.5t-68 12.5q-22 0 -43.5 -2.5t-38.5 -6.5z" />
    <glyph glyph-name="germandbls" unicode="&#xdf;" horiz-adv-x="360" 
d="M37 -116q-5 -12 -17 -12q-5 0 -9.5 4t-5.5 12q5 134 31 266t70 255q7 20 22 53.5t34.5 65.5t41.5 55.5t43 23.5q7 0 15 -3q8 -4 20.5 -17t23.5 -29t19.5 -31.5t9.5 -24.5v-16q0 -36 -14.5 -63t-32 -50t-32 -46t-14.5 -52q0 -24 8.5 -43.5t19 -39.5t19 -42t8.5 -50
q0 -9 -5 -25.5t-15 -33t-25.5 -29t-35.5 -12.5q-9 0 -21 8t-12 23q0 11 6.5 23t15.5 12q5 0 8.5 -3t11.5 -11q14 3 19.5 13t5.5 24q0 29 -10 53t-21.5 46t-21.5 44t-10 49q0 25 13.5 51t30 51.5t30.5 50t14 45.5q0 17 -9 26.5t-18 19.5l-6 7q-13 -14 -27.5 -39.5t-26.5 -50
t-20.5 -43.5t-9.5 -21q-45 -115 -77 -242.5t-44 -251.5zM248 176v6v-6z" />
    <glyph glyph-name="agrave" unicode="&#xe0;" horiz-adv-x="275" 
d="M189 235q0 -3 -0.5 -5t-1.5 -4q2 0 3.5 0.5t3.5 0.5q14 0 21 -9.5t7 -25.5q-3 -13 -8.5 -33t-11.5 -41.5t-10.5 -42.5t-4.5 -37q0 -9 2 -17q15 1 28 12t25 23.5t22 23t18 10.5q16 0 16 -16q0 -6 -4 -13q-5 -5 -16.5 -19t-26.5 -29t-33.5 -27t-36.5 -12q-14 0 -23 8.5
t-13.5 21.5t-6 27t-1.5 26q-6 -6 -15.5 -14t-20.5 -16t-22 -13.5t-19 -5.5q-26 0 -42 17t-16 47q0 42 12.5 81t32.5 69.5t44.5 48.5t47.5 18q22 0 36 -15t14 -35v-4zM61 77q21 12 34 30t24 38t22 39t27 33q-11 4 -11 16l-1 7l-23 8q-18 -12 -31.5 -30t-22.5 -39.5
t-13.5 -44.5t-4.5 -45v-12zM89 407q-5 5 -5 10t3.5 8.5t9.5 3.5q3 0 5 -1q31 -9 50 -27t33 -48q4 -4 4 -9q0 -4 -4 -7.5t-9 -3.5q-3 0 -10 5q-14 9 -22 13.5t-15.5 10.5t-16 16t-23.5 29z" />
    <glyph glyph-name="aacute" unicode="&#xe1;" horiz-adv-x="275" 
d="M189 235q0 -3 -0.5 -5t-1.5 -4q2 0 3.5 0.5t3.5 0.5q14 0 21 -9.5t7 -25.5q-3 -13 -8.5 -33t-11.5 -41.5t-10.5 -42.5t-4.5 -37q0 -9 2 -17q15 1 28 12t25 23.5t22 23t18 10.5q16 0 16 -16q0 -6 -4 -13q-5 -5 -16.5 -19t-26.5 -29t-33.5 -27t-36.5 -12q-14 0 -23 8.5
t-13.5 21.5t-6 27t-1.5 26q-6 -6 -15.5 -14t-20.5 -16t-22 -13.5t-19 -5.5q-26 0 -42 17t-16 47q0 42 12.5 81t32.5 69.5t44.5 48.5t47.5 18q22 0 36 -15t14 -35v-4zM61 77q21 12 34 30t24 38t22 39t27 33q-11 4 -11 16l-1 7l-23 8q-18 -12 -31.5 -30t-22.5 -39.5
t-13.5 -44.5t-4.5 -45v-12zM185 407q-15 -19 -23.5 -29t-15.5 -16t-15.5 -10.5t-22.5 -13.5q-5 -5 -11 -5q-5 0 -8 3.5t-3 7.5t3 9q14 30 33.5 48t50.5 27q1 1 5 1q5 0 8.5 -3.5t3.5 -8.5t-5 -10z" />
    <glyph glyph-name="acircumflex" unicode="&#xe2;" horiz-adv-x="275" 
d="M189 235q0 -3 -0.5 -5t-1.5 -4q2 0 3.5 0.5t3.5 0.5q14 0 21 -9.5t7 -25.5q-3 -13 -8.5 -33t-11.5 -41.5t-10.5 -42.5t-4.5 -37q0 -9 2 -17q15 1 28 12t25 23.5t22 23t18 10.5q16 0 16 -16q0 -6 -4 -13q-5 -5 -16.5 -19t-26.5 -29t-33.5 -27t-36.5 -12q-14 0 -23 8.5
t-13.5 21.5t-6 27t-1.5 26q-6 -6 -15.5 -14t-20.5 -16t-22 -13.5t-19 -5.5q-26 0 -42 17t-16 47q0 42 12.5 81t32.5 69.5t44.5 48.5t47.5 18q22 0 36 -15t14 -35v-4zM61 77q21 12 34 30t24 38t22 39t27 33q-11 4 -11 16l-1 7l-23 8q-18 -12 -31.5 -30t-22.5 -39.5
t-13.5 -44.5t-4.5 -45v-12zM98 340q-7 -5 -12 -5q-11 0 -11 11q0 10 10 26t24 32t29.5 28.5t27.5 15.5q20 0 26 -16.5t6 -35.5q0 -12 -1 -25t-1 -26q0 -5 1 -9t1 -9q0 -11 -13 -11q-9 0 -14.5 8t-8.5 19.5t-4 24t-1 21.5q-17 -12 -34.5 -26.5t-24.5 -22.5z" />
    <glyph glyph-name="atilde" unicode="&#xe3;" horiz-adv-x="275" 
d="M189 235q0 -3 -0.5 -5t-1.5 -4q2 0 3.5 0.5t3.5 0.5q14 0 21 -9.5t7 -25.5q-3 -13 -8.5 -33t-11.5 -41.5t-10.5 -42.5t-4.5 -37q0 -9 2 -17q15 1 28 12t25 23.5t22 23t18 10.5q16 0 16 -16q0 -6 -4 -13q-5 -5 -16.5 -19t-26.5 -29t-33.5 -27t-36.5 -12q-14 0 -23 8.5
t-13.5 21.5t-6 27t-1.5 26q-6 -6 -15.5 -14t-20.5 -16t-22 -13.5t-19 -5.5q-26 0 -42 17t-16 47q0 42 12.5 81t32.5 69.5t44.5 48.5t47.5 18q22 0 36 -15t14 -35v-4zM61 77q21 12 34 30t24 38t22 39t27 33q-11 4 -11 16l-1 7l-23 8q-18 -12 -31.5 -30t-22.5 -39.5
t-13.5 -44.5t-4.5 -45v-12zM67 335q-4 -2 -7 -2q-5 0 -8.5 3.5t-3.5 8.5t2 8q9 11 18.5 26t20 29t23 24t27.5 12q21 0 28 -17.5t7 -35.5v-16v-8q7 3 10.5 4t6 2.5t5 4t8.5 9.5q-1 -2 -1 -4v-1q3 17 14 17q5 0 8.5 -3t3.5 -8q0 -11 -5.5 -22t-15 -20t-21.5 -14.5t-24 -5.5
q-14 0 -21 5.5t-10.5 14.5t-4.5 19.5t-1 20.5q-8 -6 -17 -13.5t-17 -15t-15 -13.5t-10 -9z" />
    <glyph glyph-name="adieresis" unicode="&#xe4;" horiz-adv-x="275" 
d="M189 235q0 -3 -0.5 -5t-1.5 -4q2 0 3.5 0.5t3.5 0.5q14 0 21 -9.5t7 -25.5q-3 -13 -8.5 -33t-11.5 -41.5t-10.5 -42.5t-4.5 -37q0 -9 2 -17q15 1 28 12t25 23.5t22 23t18 10.5q16 0 16 -16q0 -6 -4 -13q-5 -5 -16.5 -19t-26.5 -29t-33.5 -27t-36.5 -12q-14 0 -23 8.5
t-13.5 21.5t-6 27t-1.5 26q-6 -6 -15.5 -14t-20.5 -16t-22 -13.5t-19 -5.5q-26 0 -42 17t-16 47q0 42 12.5 81t32.5 69.5t44.5 48.5t47.5 18q22 0 36 -15t14 -35v-4zM61 77q21 12 34 30t24 38t22 39t27 33q-11 4 -11 16l-1 7l-23 8q-18 -12 -31.5 -30t-22.5 -39.5
t-13.5 -44.5t-4.5 -45v-12zM122 376q6 -8 6 -17q0 -10 -6.5 -17.5t-16.5 -7.5q-11 0 -18 8t-7 16q0 9 7.5 16.5t18.5 7.5q8 0 16 -6zM195 377q5 -8 5 -17q0 -10 -6.5 -17.5t-16.5 -7.5q-11 0 -18 7.5t-7 15.5q0 10 7.5 17.5t18.5 7.5q8 0 17 -6z" />
    <glyph glyph-name="aring" unicode="&#xe5;" horiz-adv-x="275" 
d="M189 235q0 -3 -0.5 -5t-1.5 -4q2 0 3.5 0.5t3.5 0.5q14 0 21 -9.5t7 -25.5q-3 -13 -8.5 -33t-11.5 -41.5t-10.5 -42.5t-4.5 -37q0 -9 2 -17q15 1 28 12t25 23.5t22 23t18 10.5q16 0 16 -16q0 -6 -4 -13q-5 -5 -16.5 -19t-26.5 -29t-33.5 -27t-36.5 -12q-14 0 -23 8.5
t-13.5 21.5t-6 27t-1.5 26q-6 -6 -15.5 -14t-20.5 -16t-22 -13.5t-19 -5.5q-26 0 -42 17t-16 47q0 42 12.5 81t32.5 69.5t44.5 48.5t47.5 18q22 0 36 -15t14 -35v-4zM61 77q21 12 34 30t24 38t22 39t27 33q-11 4 -11 16l-1 7l-23 8q-18 -12 -31.5 -30t-22.5 -39.5
t-13.5 -44.5t-4.5 -45v-12zM83 370q1 10 6.5 19.5t13 17t16.5 11.5t17 4q19 0 24 -20h8q2 0 7 -1t10.5 -3t10 -6.5t4.5 -11.5q0 -12 -7.5 -22.5t-18.5 -17.5t-24 -11t-25 -4q-17 0 -30 8.5t-13 28.5q0 5 1 8zM146 377l-3 1.5l-3 1.5l-2 5l-1 1q-1 -1 -2 -1t-3 -2q1 0 1 -2
q0 -1 -1.5 -3t-2.5 -4h10t9 2q0 1 -2 1z" />
    <glyph glyph-name="ae" unicode="&#xe6;" horiz-adv-x="395" 
d="M330 219q-10 -21 -21.5 -42t-26 -39t-31.5 -31.5t-39 -19.5q0 -21 5.5 -41.5t24.5 -20.5q5 0 10.5 1t12.5 6q6 3 17.5 11t25 18.5t26 23t18.5 25.5q3 7 10 7t12.5 -6t5.5 -14q0 -7 -12 -22t-27.5 -31t-32 -30t-25.5 -18q-3 -1 -17.5 -9t-24.5 -8q-23 0 -40.5 11t-28.5 28
q-7 -12 -14.5 -20.5t-13.5 -8.5q-5 0 -6.5 9t-1.5 22q0 10 0.5 20t0.5 17q-6 -6 -15.5 -14t-20.5 -16t-22 -13.5t-19 -5.5q-26 0 -42 17t-16 47q0 42 12.5 81t32.5 69.5t44.5 48.5t47.5 18t36.5 -16t13.5 -38q16 36 42 65t62 29q27 0 37 -18.5t10 -42.5q0 -14 -2.5 -27.5
t-7.5 -21.5zM61 77q21 12 34 30t24 38t22 39t27 33q-11 4 -11 16l-1 7l-23 8q-18 -12 -31.5 -30t-22.5 -39.5t-13.5 -44.5t-4.5 -45v-12zM282 261q-10 -8 -20 -23.5t-18 -33.5t-15 -37t-11 -35q12 11 30 42l10 17.5t11 23t9 24.5t4 22z" />
    <glyph glyph-name="ccedilla" unicode="&#xe7;" horiz-adv-x="221" 
d="M193 223q0 -8 -5 -13t-10 -5q-11 0 -17 11l-4 48h-11q-15 -9 -29.5 -28t-26.5 -42.5t-19.5 -48t-7.5 -45.5q0 -3 1 -10.5t3.5 -15.5t7.5 -14.5t13 -7.5q12 2 28 12.5t31.5 22.5t29.5 21.5t22 9.5q17 0 17 -16q0 -6 -5 -13q-13 -11 -27.5 -27t-30 -30.5t-33 -24.5
t-35.5 -10q-19 0 -34.5 9.5t-26.5 24t-17 32t-6 34.5q0 33 10.5 69.5t29.5 68t45 52t56 20.5q23 0 37.5 -15.5t14.5 -46.5v-10.5t-1 -11.5zM85 40q5 4 10 4q12 0 12 -13q0 -8 -6.5 -22t-6.5 -18l1 -1q1 0 1 1l1 2q-3 -6 -3 -17q7 4 14.5 8t15.5 4q15 0 22.5 -10.5t7.5 -18.5
q0 -9 -6 -19.5t-14.5 -18.5t-18.5 -13.5t-18 -5.5q-12 0 -12 14q0 4 3 10.5t10 6.5q-4 -2 -14 -2q-18 0 -26 10t-8 21q0 23 12 44.5t23 33.5zM99 4v1v-2q0 -1 -0.5 -2t-0.5 -2q0 2 0.5 3t0.5 2zM98 -1q0 -2 -0.5 -3t-0.5 -3q0 2 0.5 3.5t0.5 2.5z" />
    <glyph glyph-name="egrave" unicode="&#xe8;" 
d="M185 219q-10 -21 -21.5 -42t-26 -39t-32 -31.5t-39.5 -19.5q0 -21 6 -41.5t25 -20.5q5 0 10.5 1t12.5 6q6 3 17.5 11t25 18.5t26 23t18.5 25.5q3 7 9 7q7 0 13 -6t6 -14q0 -7 -12 -22t-27.5 -31t-32 -30t-25.5 -18q-3 -1 -17.5 -9t-24.5 -8q-22 0 -38 9t-26.5 24
t-15.5 34.5t-5 40.5q-6 3 -6 11q0 7 5 12q0 12 1 24.5t5 25.5q6 21 16.5 50t26.5 55.5t38 45t50 18.5t38 -18.5t10 -42.5q0 -14 -2.5 -27.5t-7.5 -21.5zM137 261q-10 -8 -20 -23.5t-18 -33.5t-15 -37t-11 -35q12 11 30 42l10 17.5t11 23t9 24.5t4 22zM89 424q-5 5 -5 10
t3.5 8.5t9.5 3.5q3 0 5 -1q31 -9 50 -27t33 -48q4 -4 4 -9q0 -4 -4 -7.5t-9 -3.5q-3 0 -10 5q-14 9 -22 13.5t-15.5 10.5t-16 16t-23.5 29z" />
    <glyph glyph-name="eacute" unicode="&#xe9;" 
d="M185 219q-10 -21 -21.5 -42t-26 -39t-32 -31.5t-39.5 -19.5q0 -21 6 -41.5t25 -20.5q5 0 10.5 1t12.5 6q6 3 17.5 11t25 18.5t26 23t18.5 25.5q3 7 9 7q7 0 13 -6t6 -14q0 -7 -12 -22t-27.5 -31t-32 -30t-25.5 -18q-3 -1 -17.5 -9t-24.5 -8q-22 0 -38 9t-26.5 24
t-15.5 34.5t-5 40.5q-6 3 -6 11q0 7 5 12q0 12 1 24.5t5 25.5q6 21 16.5 50t26.5 55.5t38 45t50 18.5t38 -18.5t10 -42.5q0 -14 -2.5 -27.5t-7.5 -21.5zM137 261q-10 -8 -20 -23.5t-18 -33.5t-15 -37t-11 -35q12 11 30 42l10 17.5t11 23t9 24.5t4 22zM194 423
q-15 -19 -23.5 -29t-15.5 -16t-15.5 -10.5t-22.5 -13.5q-5 -5 -11 -5q-5 0 -8 3.5t-3 7.5t3 9q14 30 33.5 48t50.5 27q1 1 5 1q5 0 8.5 -3.5t3.5 -8.5t-5 -10z" />
    <glyph glyph-name="ecircumflex" unicode="&#xea;" 
d="M185 219q-10 -21 -21.5 -42t-26 -39t-32 -31.5t-39.5 -19.5q0 -21 6 -41.5t25 -20.5q5 0 10.5 1t12.5 6q6 3 17.5 11t25 18.5t26 23t18.5 25.5q3 7 9 7q7 0 13 -6t6 -14q0 -7 -12 -22t-27.5 -31t-32 -30t-25.5 -18q-3 -1 -17.5 -9t-24.5 -8q-22 0 -38 9t-26.5 24
t-15.5 34.5t-5 40.5q-6 3 -6 11q0 7 5 12q0 12 1 24.5t5 25.5q6 21 16.5 50t26.5 55.5t38 45t50 18.5t38 -18.5t10 -42.5q0 -14 -2.5 -27.5t-7.5 -21.5zM137 261q-10 -8 -20 -23.5t-18 -33.5t-15 -37t-11 -35q12 11 30 42l10 17.5t11 23t9 24.5t4 22zM117 365q-7 -5 -12 -5
q-11 0 -11 11q0 10 10 26t24 32t29.5 28.5t27.5 15.5q20 0 26 -16.5t6 -35.5q0 -12 -1 -25t-1 -26q0 -5 1 -9t1 -9q0 -11 -13 -11q-9 0 -14.5 8t-8.5 19.5t-4 24t-1 21.5q-17 -12 -34.5 -26.5t-24.5 -22.5z" />
    <glyph glyph-name="edieresis" unicode="&#xeb;" 
d="M185 219q-10 -21 -21.5 -42t-26 -39t-32 -31.5t-39.5 -19.5q0 -21 6 -41.5t25 -20.5q5 0 10.5 1t12.5 6q6 3 17.5 11t25 18.5t26 23t18.5 25.5q3 7 9 7q7 0 13 -6t6 -14q0 -7 -12 -22t-27.5 -31t-32 -30t-25.5 -18q-3 -1 -17.5 -9t-24.5 -8q-22 0 -38 9t-26.5 24
t-15.5 34.5t-5 40.5q-6 3 -6 11q0 7 5 12q0 12 1 24.5t5 25.5q6 21 16.5 50t26.5 55.5t38 45t50 18.5t38 -18.5t10 -42.5q0 -14 -2.5 -27.5t-7.5 -21.5zM137 261q-10 -8 -20 -23.5t-18 -33.5t-15 -37t-11 -35q12 11 30 42l10 17.5t11 23t9 24.5t4 22zM132 402q6 -8 6 -17
q0 -10 -6.5 -17.5t-16.5 -7.5q-11 0 -18 8t-7 16q0 9 7.5 16.5t18.5 7.5q8 0 16 -6zM205 403q5 -8 5 -17q0 -10 -6.5 -17.5t-16.5 -7.5q-11 0 -18 7.5t-7 15.5q0 10 7.5 17.5t18.5 7.5q8 0 17 -6z" />
    <glyph glyph-name="igrave" unicode="&#xec;" horiz-adv-x="207" 
d="M53 235q12 15 21 15q11 0 11 -19q-8 -49 -15.5 -91t-7.5 -68q0 -28 11 -29q7 -3 16 -3q24 0 54 14t51 36q6 2 9 2q7 0 12 -5t5 -12q0 -5 -5 -12q-51 -42 -88 -58.5t-63 -16.5q-30 0 -43.5 19.5t-13.5 49.5q0 55 15 97.5t31 80.5zM55 407q-5 5 -5 10t3.5 8.5t9.5 3.5
q3 0 5 -1q31 -9 50 -27t33 -48q4 -4 4 -9q0 -4 -4 -7.5t-9 -3.5q-3 0 -10 5q-14 9 -22 13.5t-15.5 10.5t-16 16t-23.5 29z" />
    <glyph glyph-name="iacute" unicode="&#xed;" horiz-adv-x="207" 
d="M53 235q12 15 21 15q11 0 11 -19q-8 -49 -15.5 -91t-7.5 -68q0 -28 11 -29q7 -3 16 -3q24 0 54 14t51 36q6 2 9 2q7 0 12 -5t5 -12q0 -5 -5 -12q-51 -42 -88 -58.5t-63 -16.5q-30 0 -43.5 19.5t-13.5 49.5q0 55 15 97.5t31 80.5zM152 407q-15 -19 -23.5 -29t-15.5 -16
t-15.5 -10.5t-22.5 -13.5q-5 -5 -11 -5q-5 0 -8 3.5t-3 7.5t3 9q14 30 33.5 48t50.5 27q1 1 5 1q5 0 8.5 -3.5t3.5 -8.5t-5 -10z" />
    <glyph glyph-name="icircumflex" unicode="&#xee;" horiz-adv-x="207" 
d="M53 235q12 15 21 15q11 0 11 -19q-8 -49 -15.5 -91t-7.5 -68q0 -28 11 -29q7 -3 16 -3q24 0 54 14t51 36q6 2 9 2q7 0 12 -5t5 -12q0 -5 -5 -12q-51 -42 -88 -58.5t-63 -16.5q-30 0 -43.5 19.5t-13.5 49.5q0 55 15 97.5t31 80.5zM64 340q-7 -5 -12 -5q-11 0 -11 11
q0 10 10 26t24 32t29.5 28.5t27.5 15.5q20 0 26 -16.5t6 -35.5q0 -12 -1 -25t-1 -26q0 -5 1 -9t1 -9q0 -11 -13 -11q-9 0 -14.5 8t-8.5 19.5t-4 24t-1 21.5q-17 -12 -34.5 -26.5t-24.5 -22.5z" />
    <glyph glyph-name="idieresis" unicode="&#xef;" horiz-adv-x="207" 
d="M53 235q12 15 21 15q11 0 11 -19q-8 -49 -15.5 -91t-7.5 -68q0 -28 11 -29q7 -3 16 -3q24 0 54 14t51 36q6 2 9 2q7 0 12 -5t5 -12q0 -5 -5 -12q-51 -42 -88 -58.5t-63 -16.5q-30 0 -43.5 19.5t-13.5 49.5q0 55 15 97.5t31 80.5zM88 376q6 -8 6 -17q0 -10 -6.5 -17.5
t-16.5 -7.5q-11 0 -18 8t-7 16q0 9 7.5 16.5t18.5 7.5q8 0 16 -6zM161 377q5 -8 5 -17q0 -10 -6.5 -17.5t-16.5 -7.5q-11 0 -18 7.5t-7 15.5q0 10 7.5 17.5t18.5 7.5q8 0 17 -6z" />
    <glyph glyph-name="eth" unicode="&#xf0;" horiz-adv-x="266" 
d="M253 436q-9 -37 -16.5 -77.5t-15.5 -81.5t-17 -81.5t-20 -76.5q0 -7 -7.5 -26.5t-20 -40.5t-29.5 -37t-35 -16q-17 0 -33.5 18.5t-29 46.5t-20 61.5t-7.5 62.5q0 13 3 32.5t9.5 37.5t17.5 30.5t27 12.5q20 0 33.5 -11t22 -26.5t12 -33.5t3.5 -33q0 -22 -4 -43.5t-9 -41.5
q17 31 32 75.5t28.5 92t25 92.5t20.5 78q3 12 13 12q6 0 11.5 -6t5.5 -16v-4zM71 235q-9 -3 -12.5 -16t-3.5 -31q0 -15 2 -31t5 -28.5t7 -21t8 -8.5q3 0 5 10.5t3.5 24t2.5 27t1 20.5q0 19 -4 33.5t-14 20.5zM266 368q-29 -38 -54 -59.5t-54 -38.5q-4 -5 -10 -5
q-5 0 -8.5 3.5t-3.5 7.5q0 11 14 30t33.5 38t40.5 32.5t35 13.5q12 0 12 -11q0 -7 -5 -11z" />
    <glyph glyph-name="ntilde" unicode="&#xf1;" horiz-adv-x="278" 
d="M78 246l2 -24t1 -24q0 -3 -0.5 -6.5t-0.5 -7.5q7 13 19 32.5t25.5 37.5t27 31t23.5 13q24 0 34 -13t10 -25q0 -43 -8 -84.5t-8 -83.5q0 -11 0.5 -22t2.5 -22l16 -12l55 17q6 2 8 2q17 0 17 -16q0 -7 -10.5 -15t-24.5 -14.5t-28.5 -10.5t-22.5 -4q-28 0 -48.5 29t-20.5 82
q0 21 2 41t4 34q-19 -25 -34 -53t-29 -56q-5 -9 -10 -21.5t-11.5 -23.5t-15.5 -18.5t-21 -7.5q-11 0 -18 7t-9 21q0 18 4 38.5t9.5 41t11.5 39.5t10 36v1q1 9 1.5 21.5t2 24t5 19.5t12.5 8q13 0 16 -12h1zM36 167l3 10zM92 335q-4 -2 -7 -2q-5 0 -8.5 3.5t-3.5 8.5t2 8
q9 11 18.5 26t20 29t23 24t27.5 12q21 0 28 -17.5t7 -35.5v-16v-8q7 3 10.5 4t6 2.5t5 4t8.5 9.5q-1 -2 -1 -4v-1q3 17 14 17q5 0 8.5 -3t3.5 -8q0 -11 -5.5 -22t-15 -20t-21.5 -14.5t-24 -5.5q-14 0 -21 5.5t-10.5 14.5t-4.5 19.5t-1 20.5q-8 -6 -17 -13.5t-17 -15
t-15 -13.5t-10 -9z" />
    <glyph glyph-name="ograve" unicode="&#xf2;" horiz-adv-x="282" 
d="M117 234q0 -1 1 -2q44 20 92.5 34t94.5 25q19 0 19 -16q0 -9 -10 -15q-32 -13 -63 -26.5t-62 -28.5q9 -15 9 -34q0 -15 -7 -38.5t-19.5 -46.5t-31.5 -42.5t-43 -28.5q-10 -4 -21.5 -4t-23.5 -2q-17 2 -31.5 21.5t-14.5 46.5q0 21 9.5 51.5t23.5 59t29.5 49t28.5 20.5
q9 0 15 -9l5 -13v-1zM109 173q-17 9 -20 23q-14 -29 -19 -61.5t-5 -63.5q16 2 29 16.5t22 31.5t14.5 32t5.5 17v2q-6 2 -14 1.5t-13 1.5zM92 407q-5 5 -5 10t3.5 8.5t9.5 3.5q3 0 5 -1q31 -9 50 -27t33 -48q4 -4 4 -9q0 -4 -4 -7.5t-9 -3.5q-3 0 -10 5q-14 9 -22 13.5
t-15.5 10.5t-16 16t-23.5 29z" />
    <glyph glyph-name="oacute" unicode="&#xf3;" horiz-adv-x="282" 
d="M117 234q0 -1 1 -2q44 20 92.5 34t94.5 25q19 0 19 -16q0 -9 -10 -15q-32 -13 -63 -26.5t-62 -28.5q9 -15 9 -34q0 -15 -7 -38.5t-19.5 -46.5t-31.5 -42.5t-43 -28.5q-10 -4 -21.5 -4t-23.5 -2q-17 2 -31.5 21.5t-14.5 46.5q0 21 9.5 51.5t23.5 59t29.5 49t28.5 20.5
q9 0 15 -9l5 -13v-1zM109 173q-17 9 -20 23q-14 -29 -19 -61.5t-5 -63.5q16 2 29 16.5t22 31.5t14.5 32t5.5 17v2q-6 2 -14 1.5t-13 1.5zM188 407q-15 -19 -23.5 -29t-15.5 -16t-15.5 -10.5t-22.5 -13.5q-5 -5 -11 -5q-5 0 -8 3.5t-3 7.5t3 9q14 30 33.5 48t50.5 27q1 1 5 1
q5 0 8.5 -3.5t3.5 -8.5t-5 -10z" />
    <glyph glyph-name="ocircumflex" unicode="&#xf4;" horiz-adv-x="282" 
d="M117 234q0 -1 1 -2q44 20 92.5 34t94.5 25q19 0 19 -16q0 -9 -10 -15q-32 -13 -63 -26.5t-62 -28.5q9 -15 9 -34q0 -15 -7 -38.5t-19.5 -46.5t-31.5 -42.5t-43 -28.5q-10 -4 -21.5 -4t-23.5 -2q-17 2 -31.5 21.5t-14.5 46.5q0 21 9.5 51.5t23.5 59t29.5 49t28.5 20.5
q9 0 15 -9l5 -13v-1zM109 173q-17 9 -20 23q-14 -29 -19 -61.5t-5 -63.5q16 2 29 16.5t22 31.5t14.5 32t5.5 17v2q-6 2 -14 1.5t-13 1.5zM102 340q-7 -5 -12 -5q-11 0 -11 11q0 10 10 26t24 32t29.5 28.5t27.5 15.5q20 0 26 -16.5t6 -35.5q0 -12 -1 -25t-1 -26q0 -5 1 -9
t1 -9q0 -11 -13 -11q-9 0 -14.5 8t-8.5 19.5t-4 24t-1 21.5q-17 -12 -34.5 -26.5t-24.5 -22.5z" />
    <glyph glyph-name="otilde" unicode="&#xf5;" horiz-adv-x="282" 
d="M117 234q0 -1 1 -2q44 20 92.5 34t94.5 25q19 0 19 -16q0 -9 -10 -15q-32 -13 -63 -26.5t-62 -28.5q9 -15 9 -34q0 -15 -7 -38.5t-19.5 -46.5t-31.5 -42.5t-43 -28.5q-10 -4 -21.5 -4t-23.5 -2q-17 2 -31.5 21.5t-14.5 46.5q0 21 9.5 51.5t23.5 59t29.5 49t28.5 20.5
q9 0 15 -9l5 -13v-1zM109 173q-17 9 -20 23q-14 -29 -19 -61.5t-5 -63.5q16 2 29 16.5t22 31.5t14.5 32t5.5 17v2q-6 2 -14 1.5t-13 1.5zM71 335q-4 -2 -7 -2q-5 0 -8.5 3.5t-3.5 8.5t2 8q9 11 18.5 26t20 29t23 24t27.5 12q21 0 28 -17.5t7 -35.5v-16v-8q7 3 10.5 4t6 2.5
t5 4t8.5 9.5q-1 -2 -1 -4v-1q3 17 14 17q5 0 8.5 -3t3.5 -8q0 -11 -5.5 -22t-15 -20t-21.5 -14.5t-24 -5.5q-14 0 -21 5.5t-10.5 14.5t-4.5 19.5t-1 20.5q-8 -6 -17 -13.5t-17 -15t-15 -13.5t-10 -9z" />
    <glyph glyph-name="odieresis" unicode="&#xf6;" horiz-adv-x="282" 
d="M117 234q0 -1 1 -2q44 20 92.5 34t94.5 25q19 0 19 -16q0 -9 -10 -15q-32 -13 -63 -26.5t-62 -28.5q9 -15 9 -34q0 -15 -7 -38.5t-19.5 -46.5t-31.5 -42.5t-43 -28.5q-10 -4 -21.5 -4t-23.5 -2q-17 2 -31.5 21.5t-14.5 46.5q0 21 9.5 51.5t23.5 59t29.5 49t28.5 20.5
q9 0 15 -9l5 -13v-1zM109 173q-17 9 -20 23q-14 -29 -19 -61.5t-5 -63.5q16 2 29 16.5t22 31.5t14.5 32t5.5 17v2q-6 2 -14 1.5t-13 1.5zM126 376q6 -8 6 -17q0 -10 -6.5 -17.5t-16.5 -7.5q-11 0 -18 8t-7 16q0 9 7.5 16.5t18.5 7.5q8 0 16 -6zM199 377q5 -8 5 -17
q0 -10 -6.5 -17.5t-16.5 -7.5q-11 0 -18 7.5t-7 15.5q0 10 7.5 17.5t18.5 7.5q8 0 17 -6z" />
    <glyph glyph-name="divide" unicode="&#xf7;" horiz-adv-x="360" 
d="M312 210q8 -1 13 -6t5 -11q0 -5 -3 -9t-9 -6q-41 -2 -69 -4.5t-50 -4.5t-39.5 -3t-37.5 -1q-22 0 -49 1t-68 6q-2 6 -2 8q0 6 9 15q43 4 71 7.5t49 5.5t39 3t42 1h42.5t56.5 -2zM169 126q5 -8 5 -15q0 -9 -5.5 -15.5t-13.5 -6.5q-9 0 -15 7.5t-6 14.5q0 8 6 14t14 6
q9 0 15 -5zM194 282q5 -6 5 -16q0 -8 -5.5 -14.5t-13.5 -6.5t-14.5 7t-6.5 14q0 8 6 14.5t15 6.5q6 0 14 -5z" />
    <glyph glyph-name="oslash" unicode="&#xf8;" horiz-adv-x="282" 
d="M117 234q0 -1 1 -2q44 20 92.5 34t94.5 25q19 0 19 -16q0 -9 -10 -15q-32 -13 -63 -26.5t-62 -28.5q9 -15 9 -34q0 -15 -7 -38.5t-19.5 -46.5t-31.5 -42.5t-43 -28.5q-10 -4 -21.5 -4t-23.5 -2q-17 2 -31.5 21.5t-14.5 46.5q0 21 9.5 51.5t23.5 59t29.5 49t28.5 20.5
q9 0 15 -9l5 -13v-1zM109 173q-17 9 -20 23q-14 -29 -19 -61.5t-5 -63.5q16 2 29 16.5t22 31.5t14.5 32t5.5 17v2q-6 2 -14 1.5t-13 1.5zM179.916 315.116q7.09375 9.66406 13.4795 9.66406q3.54785 0 5.67578 -2.14746t3.54785 -4.83203q0 -4.83301 -2.83789 -13.1553
t-7.0957 -17.9863q-4.25586 -9.66504 -9.22266 -19.5986q-4.9668 -9.93262 -9.22266 -17.9863q-31.2168 -64.9688 -69.5293 -134.5q-38.3105 -69.5322 -83.7168 -144.165q-3.54785 -5.36914 -7.0957 -7.5166q-3.54688 -2.14844 -7.09375 -2.14844q-7.0957 0 -7.0957 5.90625
q0 1.07422 1.41992 5.36914q13.4795 29.5312 26.6045 57.1826q13.126 27.6523 26.96 55.0352q13.835 27.3838 29.0889 56.3779q15.2529 28.9932 32.9902 62.2832q14.8994 27.3828 31.5713 55.8398q16.6729 28.457 31.5723 56.3779z" />
    <glyph glyph-name="ugrave" unicode="&#xf9;" horiz-adv-x="287" 
d="M61 296q6 10 15 10q6 0 11 -4.5t5 -12.5q0 -2 -2 -8q-12 -37 -22 -88.5t-10 -99.5q0 -35 7 -60q9 5 16 10v1q9 14 23 27t23 27q10 15 21 37.5t21.5 43t21.5 35t23 14.5q11 0 19 -8.5t8 -22.5q0 -17 -4.5 -43t-4.5 -55q0 -7 0.5 -18t2.5 -22t5 -19t8 -8q7 0 17 7.5t19 7.5
q5 0 7.5 -5.5t2.5 -7.5q0 -9 -7 -16t-16 -12.5t-18 -8t-14 -2.5q-14 0 -23.5 9.5t-15.5 22.5t-9 26.5t-5 20.5q-9 -18 -23.5 -36.5t-31 -33.5t-35 -24.5t-35.5 -9.5q-10 0 -20.5 4.5t-19 15t-14 27.5t-5.5 42t5.5 59t14.5 68.5t19.5 64.5t19.5 45zM105 407q-5 5 -5 10
t3.5 8.5t9.5 3.5q3 0 5 -1q31 -9 50 -27t33 -48q4 -4 4 -9q0 -4 -4 -7.5t-9 -3.5q-3 0 -10 5q-14 9 -22 13.5t-15.5 10.5t-16 16t-23.5 29z" />
    <glyph glyph-name="uacute" unicode="&#xfa;" horiz-adv-x="287" 
d="M61 296q6 10 15 10q6 0 11 -4.5t5 -12.5q0 -2 -2 -8q-12 -37 -22 -88.5t-10 -99.5q0 -35 7 -60q9 5 16 10v1q9 14 23 27t23 27q10 15 21 37.5t21.5 43t21.5 35t23 14.5q11 0 19 -8.5t8 -22.5q0 -17 -4.5 -43t-4.5 -55q0 -7 0.5 -18t2.5 -22t5 -19t8 -8q7 0 17 7.5t19 7.5
q5 0 7.5 -5.5t2.5 -7.5q0 -9 -7 -16t-16 -12.5t-18 -8t-14 -2.5q-14 0 -23.5 9.5t-15.5 22.5t-9 26.5t-5 20.5q-9 -18 -23.5 -36.5t-31 -33.5t-35 -24.5t-35.5 -9.5q-10 0 -20.5 4.5t-19 15t-14 27.5t-5.5 42t5.5 59t14.5 68.5t19.5 64.5t19.5 45zM234 407
q-15 -19 -23.5 -29t-15.5 -16t-15.5 -10.5t-22.5 -13.5q-5 -5 -11 -5q-5 0 -8 3.5t-3 7.5t3 9q14 30 33.5 48t50.5 27q1 1 5 1q5 0 8.5 -3.5t3.5 -8.5t-5 -10z" />
    <glyph glyph-name="ucircumflex" unicode="&#xfb;" horiz-adv-x="287" 
d="M61 296q6 10 15 10q6 0 11 -4.5t5 -12.5q0 -2 -2 -8q-12 -37 -22 -88.5t-10 -99.5q0 -35 7 -60q9 5 16 10v1q9 14 23 27t23 27q10 15 21 37.5t21.5 43t21.5 35t23 14.5q11 0 19 -8.5t8 -22.5q0 -17 -4.5 -43t-4.5 -55q0 -7 0.5 -18t2.5 -22t5 -19t8 -8q7 0 17 7.5t19 7.5
q5 0 7.5 -5.5t2.5 -7.5q0 -9 -7 -16t-16 -12.5t-18 -8t-14 -2.5q-14 0 -23.5 9.5t-15.5 22.5t-9 26.5t-5 20.5q-9 -18 -23.5 -36.5t-31 -33.5t-35 -24.5t-35.5 -9.5q-10 0 -20.5 4.5t-19 15t-14 27.5t-5.5 42t5.5 59t14.5 68.5t19.5 64.5t19.5 45zM133 340q-7 -5 -12 -5
q-11 0 -11 11q0 10 10 26t24 32t29.5 28.5t27.5 15.5q20 0 26 -16.5t6 -35.5q0 -12 -1 -25t-1 -26q0 -5 1 -9t1 -9q0 -11 -13 -11q-9 0 -14.5 8t-8.5 19.5t-4 24t-1 21.5q-17 -12 -34.5 -26.5t-24.5 -22.5z" />
    <glyph glyph-name="udieresis" unicode="&#xfc;" horiz-adv-x="287" 
d="M61 296q6 10 15 10q6 0 11 -4.5t5 -12.5q0 -2 -2 -8q-12 -37 -22 -88.5t-10 -99.5q0 -35 7 -60q9 5 16 10v1q9 14 23 27t23 27q10 15 21 37.5t21.5 43t21.5 35t23 14.5q11 0 19 -8.5t8 -22.5q0 -17 -4.5 -43t-4.5 -55q0 -7 0.5 -18t2.5 -22t5 -19t8 -8q7 0 17 7.5t19 7.5
q5 0 7.5 -5.5t2.5 -7.5q0 -9 -7 -16t-16 -12.5t-18 -8t-14 -2.5q-14 0 -23.5 9.5t-15.5 22.5t-9 26.5t-5 20.5q-9 -18 -23.5 -36.5t-31 -33.5t-35 -24.5t-35.5 -9.5q-10 0 -20.5 4.5t-19 15t-14 27.5t-5.5 42t5.5 59t14.5 68.5t19.5 64.5t19.5 45zM159 376q6 -8 6 -17
q0 -10 -6.5 -17.5t-16.5 -7.5q-11 0 -18 8t-7 16q0 9 7.5 16.5t18.5 7.5q8 0 16 -6zM232 377q5 -8 5 -17q0 -10 -6.5 -17.5t-16.5 -7.5q-11 0 -18 7.5t-7 15.5q0 10 7.5 17.5t18.5 7.5q8 0 17 -6z" />
    <glyph glyph-name="yacute" unicode="&#xfd;" horiz-adv-x="309" 
d="M83 246q1 8 6 12t10 4q16 0 16 -23q0 -29 -4 -58.5t-4 -59.5q0 -11 0.5 -21t3.5 -21q25 20 39.5 43.5t24.5 49.5t17.5 53t18.5 55q10 17 27 17t22 -14.5t5 -39.5q0 -27 -1.5 -54t-1.5 -54v-19q27 15 58 28.5t59 13.5q12 0 21.5 -4.5t9.5 -17.5q0 -11 -5.5 -16.5
t-11.5 -5.5q-11 0 -14 10h-6q-29 -8 -56.5 -22.5t-52.5 -31.5q0 -15 0.5 -29.5t0.5 -28.5q0 -63 -6.5 -124t-26.5 -124q-7 -22 -18 -44.5t-26 -41t-34.5 -30.5t-43.5 -12q-26 0 -45.5 12t-33.5 31t-21 43t-7 47q0 53 16 98.5t43.5 83.5t64 70t77.5 59v19t1 18q-1 0 -5 -6.5
t-9.5 -15.5t-11.5 -17t-9 -11l-37 -26q-10 -7 -22 -7q-14 0 -22.5 6.5t-13.5 17t-6.5 23.5t-1.5 26q0 35 7 69.5t9 69.5zM201 -84q3 39 3 77v33q-64 -51 -101.5 -112.5t-41.5 -135.5q0 -9 2.5 -23t8 -26.5t14 -22t21.5 -9.5q14 0 24 9.5t17.5 23t13 28t8.5 24.5
q10 27 18 61.5t13 72.5zM215 407q-15 -19 -23.5 -29t-15.5 -16t-15.5 -10.5t-22.5 -13.5q-5 -5 -11 -5q-5 0 -8 3.5t-3 7.5t3 9q14 30 33.5 48t50.5 27q1 1 5 1q5 0 8.5 -3.5t3.5 -8.5t-5 -10z" />
    <glyph glyph-name="thorn" unicode="&#xfe;" horiz-adv-x="213" 
d="M106 378q14 69 32.5 106.5t27.5 37.5q6 0 6 -16q0 -5 -0.5 -11.5t-1.5 -14.5q-27 -148 -62.5 -306.5t-79.5 -329.5q-6 -21 -17 -21q-4 0 -7.5 5t-3.5 14q0 5 1 7q12 69 23.5 132t24 126t26.5 129.5t31 141.5zM71 54l43 -1q9 5 20 16t20.5 28.5t16 41t6.5 53.5
q0 22 -7.5 34.5t-30.5 12.5q-20 0 -30 -4l7 58q10 5 26 5q39 0 65.5 -32t26.5 -83q0 -31 -9.5 -63.5t-29 -59.5t-48.5 -44.5t-69 -17.5h-12.5t-13.5 2zM59 71q0 1 0.5 1.5t0.5 1.5l-1 -2q0 -1 -1 -1h1z" />
    <glyph glyph-name="ydieresis" unicode="&#xff;" horiz-adv-x="309" 
d="M83 246q1 8 6 12t10 4q16 0 16 -23q0 -29 -4 -58.5t-4 -59.5q0 -11 0.5 -21t3.5 -21q25 20 39.5 43.5t24.5 49.5t17.5 53t18.5 55q10 17 27 17t22 -14.5t5 -39.5q0 -27 -1.5 -54t-1.5 -54v-19q27 15 58 28.5t59 13.5q12 0 21.5 -4.5t9.5 -17.5q0 -11 -5.5 -16.5
t-11.5 -5.5q-11 0 -14 10h-6q-29 -8 -56.5 -22.5t-52.5 -31.5q0 -15 0.5 -29.5t0.5 -28.5q0 -63 -6.5 -124t-26.5 -124q-7 -22 -18 -44.5t-26 -41t-34.5 -30.5t-43.5 -12q-26 0 -45.5 12t-33.5 31t-21 43t-7 47q0 53 16 98.5t43.5 83.5t64 70t77.5 59v19t1 18q-1 0 -5 -6.5
t-9.5 -15.5t-11.5 -17t-9 -11l-37 -26q-10 -7 -22 -7q-14 0 -22.5 6.5t-13.5 17t-6.5 23.5t-1.5 26q0 35 7 69.5t9 69.5zM201 -84q3 39 3 77v33q-64 -51 -101.5 -112.5t-41.5 -135.5q0 -9 2.5 -23t8 -26.5t14 -22t21.5 -9.5q14 0 24 9.5t17.5 23t13 28t8.5 24.5
q10 27 18 61.5t13 72.5zM147 376q6 -8 6 -17q0 -10 -6.5 -17.5t-16.5 -7.5q-11 0 -18 8t-7 16q0 9 7.5 16.5t18.5 7.5q8 0 16 -6zM220 377q5 -8 5 -17q0 -10 -6.5 -17.5t-16.5 -7.5q-11 0 -18 7.5t-7 15.5q0 10 7.5 17.5t18.5 7.5q8 0 17 -6z" />
    <glyph glyph-name="Amacron" unicode="&#x100;" horiz-adv-x="510" 
d="M33 -76q-4 -4 -9 -4q-8 0 -13.5 8.5t-5.5 19.5q0 14 13 22t24 19l12 12q28 29 52 64t38 59q47 79 81 165.5t66 170.5q7 17 14 40.5t15.5 44.5t18.5 35.5t24 14.5q17 0 26.5 -12.5t9.5 -32.5q0 -14 -2.5 -27.5t-4.5 -22.5q-5 -39 -10 -69.5t-10 -63.5t-10 -74t-9 -101
q33 16 63.5 29t56.5 23q6 2 8 2q17 0 17 -16q0 -8 -10 -15q-36 -21 -70 -43t-69 -45q0 -40 5.5 -74.5t21.5 -52.5q4 -6 12 -9.5t15 -6.5t12.5 -7.5t5.5 -11.5q0 -16 -20 -16q-12 6 -25.5 10.5t-24.5 12.5t-18.5 23t-12.5 33t-8 36.5t-5 34.5q-29 -19 -63 -40t-70 -43.5
t-72 -46t-69 -45.5zM312 349q-27 -64 -56.5 -126.5t-67.5 -120.5q28 17 57 34t58 31q0 6 -0.5 12.5t-0.5 11.5q0 40 3 79.5t7 78.5zM461 667q8 -1 12.5 -6t4.5 -11q0 -8 -10 -13t-25.5 -7.5t-34.5 -3.5t-38 -1t-40 1t-44 3q0 2 -0.5 4t-0.5 4q0 7 9 15q40 6 70.5 11t68.5 5
q7 0 13.5 -0.5t14.5 -0.5z" />
    <glyph glyph-name="amacron" unicode="&#x101;" horiz-adv-x="275" 
d="M189 235q0 -3 -0.5 -5t-1.5 -4q2 0 3.5 0.5t3.5 0.5q14 0 21 -9.5t7 -25.5q-3 -13 -8.5 -33t-11.5 -41.5t-10.5 -42.5t-4.5 -37q0 -9 2 -17q15 1 28 12t25 23.5t22 23t18 10.5q16 0 16 -16q0 -6 -4 -13q-5 -5 -16.5 -19t-26.5 -29t-33.5 -27t-36.5 -12q-14 0 -23 8.5
t-13.5 21.5t-6 27t-1.5 26q-6 -6 -15.5 -14t-20.5 -16t-22 -13.5t-19 -5.5q-26 0 -42 17t-16 47q0 42 12.5 81t32.5 69.5t44.5 48.5t47.5 18q22 0 36 -15t14 -35v-4zM61 77q21 12 34 30t24 38t22 39t27 33q-11 4 -11 16l-1 7l-23 8q-18 -12 -31.5 -30t-22.5 -39.5
t-13.5 -44.5t-4.5 -45v-12zM220 383q8 -1 12.5 -6t4.5 -11q0 -8 -10 -13t-25.5 -7.5t-34.5 -3.5t-38 -1t-40 1t-44 3q0 2 -0.5 4t-0.5 4q0 7 9 15q40 6 70.5 11t68.5 5q7 0 13.5 -0.5t14.5 -0.5z" />
    <glyph glyph-name="Abreve" unicode="&#x102;" horiz-adv-x="510" 
d="M33 -76q-4 -4 -9 -4q-8 0 -13.5 8.5t-5.5 19.5q0 14 13 22t24 19l12 12q28 29 52 64t38 59q47 79 81 165.5t66 170.5q7 17 14 40.5t15.5 44.5t18.5 35.5t24 14.5q17 0 26.5 -12.5t9.5 -32.5q0 -14 -2.5 -27.5t-4.5 -22.5q-5 -39 -10 -69.5t-10 -63.5t-10 -74t-9 -101
q33 16 63.5 29t56.5 23q6 2 8 2q17 0 17 -16q0 -8 -10 -15q-36 -21 -70 -43t-69 -45q0 -40 5.5 -74.5t21.5 -52.5q4 -6 12 -9.5t15 -6.5t12.5 -7.5t5.5 -11.5q0 -16 -20 -16q-12 6 -25.5 10.5t-24.5 12.5t-18.5 23t-12.5 33t-8 36.5t-5 34.5q-29 -19 -63 -40t-70 -43.5
t-72 -46t-69 -45.5zM312 349q-27 -64 -56.5 -126.5t-67.5 -120.5q28 17 57 34t58 31q0 6 -0.5 12.5t-0.5 11.5q0 40 3 79.5t7 78.5zM333 703q0 15 13 15q5 0 8.5 -5t7.5 -11.5t9.5 -11.5t13.5 -5q15 0 23 4.5t12.5 9.5t7.5 9.5t7 4.5q2 0 8.5 -1.5t6.5 -8.5l1 -1v-8
q0 -12 -6.5 -22.5t-16 -18t-22 -12t-24.5 -4.5q-20 0 -35 12.5t-15 42.5q0 6 1 11z" />
    <glyph glyph-name="abreve" unicode="&#x103;" horiz-adv-x="275" 
d="M189 235q0 -3 -0.5 -5t-1.5 -4q2 0 3.5 0.5t3.5 0.5q14 0 21 -9.5t7 -25.5q-3 -13 -8.5 -33t-11.5 -41.5t-10.5 -42.5t-4.5 -37q0 -9 2 -17q15 1 28 12t25 23.5t22 23t18 10.5q16 0 16 -16q0 -6 -4 -13q-5 -5 -16.5 -19t-26.5 -29t-33.5 -27t-36.5 -12q-14 0 -23 8.5
t-13.5 21.5t-6 27t-1.5 26q-6 -6 -15.5 -14t-20.5 -16t-22 -13.5t-19 -5.5q-26 0 -42 17t-16 47q0 42 12.5 81t32.5 69.5t44.5 48.5t47.5 18q22 0 36 -15t14 -35v-4zM61 77q21 12 34 30t24 38t22 39t27 33q-11 4 -11 16l-1 7l-23 8q-18 -12 -31.5 -30t-22.5 -39.5
t-13.5 -44.5t-4.5 -45v-12zM101 399q0 15 13 15q5 0 8.5 -5t7.5 -11.5t9.5 -11.5t13.5 -5q15 0 23 4.5t12.5 9.5t7.5 9.5t7 4.5q2 0 8.5 -1.5t6.5 -8.5l1 -1v-8q0 -12 -6.5 -22.5t-16 -18t-22 -12t-24.5 -4.5q-20 0 -35 12.5t-15 42.5q0 6 1 11z" />
    <glyph glyph-name="Aogonek" unicode="&#x104;" horiz-adv-x="510" 
d="M33 -76q-4 -4 -9 -4q-8 0 -13.5 8.5t-5.5 19.5q0 14 13 22t24 19l12 12q28 29 52 64t38 59q47 79 81 165.5t66 170.5q7 17 14 40.5t15.5 44.5t18.5 35.5t24 14.5q17 0 26.5 -12.5t9.5 -32.5q0 -14 -2.5 -27.5t-4.5 -22.5q-5 -39 -10 -69.5t-10 -63.5t-10 -74t-9 -101
q33 16 63.5 29t56.5 23q6 2 8 2q17 0 17 -16q0 -8 -10 -15q-36 -21 -70 -43t-69 -45q0 -40 5.5 -74.5t21.5 -52.5q4 -6 12 -9.5t15 -6.5t12.5 -7.5t5.5 -11.5q0 -16 -20 -16q-12 6 -25.5 10.5t-24.5 12.5t-18.5 23t-12.5 33t-8 36.5t-5 34.5q-29 -19 -63 -40t-70 -43.5
t-72 -46t-69 -45.5zM312 349q-27 -64 -56.5 -126.5t-67.5 -120.5q28 17 57 34t58 31q0 6 -0.5 12.5t-0.5 11.5q0 40 3 79.5t7 78.5zM404 -25q13 0 13 -11q0 -6 -4 -10q-11 -11 -16.5 -32t-5.5 -37q11 0 20 6t19 6q6 0 9.5 -3.5t3.5 -8.5q0 -2 -6 -9.5t-15 -15t-19 -13.5
t-18 -6q-18 0 -29.5 12.5t-11.5 29.5q0 28 14 54.5t41 37.5h5z" />
    <glyph glyph-name="aogonek" unicode="&#x105;" horiz-adv-x="275" 
d="M189 235q0 -3 -0.5 -5t-1.5 -4q2 0 3.5 0.5t3.5 0.5q14 0 21 -9.5t7 -25.5q-3 -13 -8.5 -33t-11.5 -41.5t-10.5 -42.5t-4.5 -37q0 -9 2 -17q15 1 28 12t25 23.5t22 23t18 10.5q16 0 16 -16q0 -6 -4 -13q-5 -5 -16.5 -19t-26.5 -29t-33.5 -27t-36.5 -12q-14 0 -23 8.5
t-13.5 21.5t-6 27t-1.5 26q-6 -6 -15.5 -14t-20.5 -16t-22 -13.5t-19 -5.5q-26 0 -42 17t-16 47q0 42 12.5 81t32.5 69.5t44.5 48.5t47.5 18q22 0 36 -15t14 -35v-4zM61 77q21 12 34 30t24 38t22 39t27 33q-11 4 -11 16l-1 7l-23 8q-18 -12 -31.5 -30t-22.5 -39.5
t-13.5 -44.5t-4.5 -45v-12zM170 32q13 0 13 -11q0 -6 -4 -10q-11 -11 -16.5 -32t-5.5 -37q11 0 20 6t19 6q6 0 9.5 -3.5t3.5 -8.5q0 -2 -6 -9.5t-15 -15t-19 -13.5t-18 -6q-18 0 -29.5 12.5t-11.5 29.5q0 28 14 54.5t41 37.5h5z" />
    <glyph glyph-name="Cacute" unicode="&#x106;" horiz-adv-x="568" 
d="M462 421q-6 -3 -11 -3q-7 0 -11 4.5t-4 9.5q0 8 9.5 24.5t9.5 33.5q0 38 -28 55.5t-64 17.5q-38 0 -73 -18.5t-65.5 -47t-56 -63t-43.5 -67.5q-26 -47 -42.5 -101t-16.5 -103q0 -39 12 -66.5t32.5 -44.5t49 -24.5t61.5 -7.5q44 0 93 12t96 31.5t89.5 45t73.5 53.5
q7 4 13 4q13 0 13 -12q0 -9 -7 -16q-33 -32 -81.5 -64t-103.5 -57t-112 -40.5t-107 -15.5t-85.5 17.5t-58 46t-32.5 64t-10 71.5q0 55 19 114t51 115q20 35 50 73.5t66.5 71t78 53.5t84.5 21q29 0 55 -8t45.5 -22.5t31 -34.5t11.5 -44q0 -17 -7.5 -37t-24.5 -41zM416 728
q-15 -19 -23.5 -29t-15.5 -16t-15.5 -10.5t-22.5 -13.5q-5 -5 -11 -5q-5 0 -8 3.5t-3 7.5t3 9q14 30 33.5 48t50.5 27q1 1 5 1q5 0 8.5 -3.5t3.5 -8.5t-5 -10z" />
    <glyph glyph-name="cacute" unicode="&#x107;" horiz-adv-x="221" 
d="M193 223q0 -8 -5 -13t-10 -5q-11 0 -17 11l-4 48h-11q-15 -9 -29.5 -28t-26.5 -42.5t-19.5 -48t-7.5 -45.5q0 -3 1 -10.5t3.5 -15.5t7.5 -14.5t13 -7.5q12 2 28 12.5t31.5 22.5t29.5 21.5t22 9.5q17 0 17 -16q0 -6 -5 -13q-13 -11 -27.5 -27t-30 -30.5t-33 -24.5
t-35.5 -10q-19 0 -34.5 9.5t-26.5 24t-17 32t-6 34.5q0 33 10.5 69.5t29.5 68t45 52t56 20.5q23 0 37.5 -15.5t14.5 -46.5v-10.5t-1 -11.5zM190 405q-15 -19 -23.5 -29t-15.5 -16t-15.5 -10.5t-22.5 -13.5q-5 -5 -11 -5q-5 0 -8 3.5t-3 7.5t3 9q14 30 33.5 48t50.5 27
q1 1 5 1q5 0 8.5 -3.5t3.5 -8.5t-5 -10z" />
    <glyph glyph-name="Ccircumflex" unicode="&#x108;" horiz-adv-x="568" 
d="M462 421q-6 -3 -11 -3q-7 0 -11 4.5t-4 9.5q0 8 9.5 24.5t9.5 33.5q0 38 -28 55.5t-64 17.5q-38 0 -73 -18.5t-65.5 -47t-56 -63t-43.5 -67.5q-26 -47 -42.5 -101t-16.5 -103q0 -39 12 -66.5t32.5 -44.5t49 -24.5t61.5 -7.5q44 0 93 12t96 31.5t89.5 45t73.5 53.5
q7 4 13 4q13 0 13 -12q0 -9 -7 -16q-33 -32 -81.5 -64t-103.5 -57t-112 -40.5t-107 -15.5t-85.5 17.5t-58 46t-32.5 64t-10 71.5q0 55 19 114t51 115q20 35 50 73.5t66.5 71t78 53.5t84.5 21q29 0 55 -8t45.5 -22.5t31 -34.5t11.5 -44q0 -17 -7.5 -37t-24.5 -41zM341 657
q-7 -5 -12 -5q-11 0 -11 11q0 10 10 26t24 32t29.5 28.5t27.5 15.5q20 0 26 -16.5t6 -35.5q0 -12 -1 -25t-1 -26q0 -5 1 -9t1 -9q0 -11 -13 -11q-9 0 -14.5 8t-8.5 19.5t-4 24t-1 21.5q-17 -12 -34.5 -26.5t-24.5 -22.5z" />
    <glyph glyph-name="ccircumflex" unicode="&#x109;" horiz-adv-x="221" 
d="M193 223q0 -8 -5 -13t-10 -5q-11 0 -17 11l-4 48h-11q-15 -9 -29.5 -28t-26.5 -42.5t-19.5 -48t-7.5 -45.5q0 -3 1 -10.5t3.5 -15.5t7.5 -14.5t13 -7.5q12 2 28 12.5t31.5 22.5t29.5 21.5t22 9.5q17 0 17 -16q0 -6 -5 -13q-13 -11 -27.5 -27t-30 -30.5t-33 -24.5
t-35.5 -10q-19 0 -34.5 9.5t-26.5 24t-17 32t-6 34.5q0 33 10.5 69.5t29.5 68t45 52t56 20.5q23 0 37.5 -15.5t14.5 -46.5v-10.5t-1 -11.5zM110 343q-7 -5 -12 -5q-11 0 -11 11q0 10 10 26t24 32t29.5 28.5t27.5 15.5q20 0 26 -16.5t6 -35.5q0 -12 -1 -25t-1 -26q0 -5 1 -9
t1 -9q0 -11 -13 -11q-9 0 -14.5 8t-8.5 19.5t-4 24t-1 21.5q-17 -12 -34.5 -26.5t-24.5 -22.5z" />
    <glyph glyph-name="Cdotaccent" unicode="&#x10a;" horiz-adv-x="568" 
d="M462 421q-6 -3 -11 -3q-7 0 -11 4.5t-4 9.5q0 8 9.5 24.5t9.5 33.5q0 38 -28 55.5t-64 17.5q-38 0 -73 -18.5t-65.5 -47t-56 -63t-43.5 -67.5q-26 -47 -42.5 -101t-16.5 -103q0 -39 12 -66.5t32.5 -44.5t49 -24.5t61.5 -7.5q44 0 93 12t96 31.5t89.5 45t73.5 53.5
q7 4 13 4q13 0 13 -12q0 -9 -7 -16q-33 -32 -81.5 -64t-103.5 -57t-112 -40.5t-107 -15.5t-85.5 17.5t-58 46t-32.5 64t-10 71.5q0 55 19 114t51 115q20 35 50 73.5t66.5 71t78 53.5t84.5 21q29 0 55 -8t45.5 -22.5t31 -34.5t11.5 -44q0 -17 -7.5 -37t-24.5 -41zM411 693
q6 -8 6 -17q0 -10 -6.5 -17.5t-16.5 -7.5q-11 0 -18 8t-7 16q0 9 7.5 16.5t18.5 7.5q8 0 16 -6z" />
    <glyph glyph-name="cdotaccent" unicode="&#x10b;" horiz-adv-x="221" 
d="M193 223q0 -8 -5 -13t-10 -5q-11 0 -17 11l-4 48h-11q-15 -9 -29.5 -28t-26.5 -42.5t-19.5 -48t-7.5 -45.5q0 -3 1 -10.5t3.5 -15.5t7.5 -14.5t13 -7.5q12 2 28 12.5t31.5 22.5t29.5 21.5t22 9.5q17 0 17 -16q0 -6 -5 -13q-13 -11 -27.5 -27t-30 -30.5t-33 -24.5
t-35.5 -10q-19 0 -34.5 9.5t-26.5 24t-17 32t-6 34.5q0 33 10.5 69.5t29.5 68t45 52t56 20.5q23 0 37.5 -15.5t14.5 -46.5v-10.5t-1 -11.5zM167 392q6 -8 6 -17q0 -10 -6.5 -17.5t-16.5 -7.5q-11 0 -18 8t-7 16q0 9 7.5 16.5t18.5 7.5q8 0 16 -6z" />
    <glyph glyph-name="Ccaron" unicode="&#x10c;" horiz-adv-x="568" 
d="M462 421q-6 -3 -11 -3q-7 0 -11 4.5t-4 9.5q0 8 9.5 24.5t9.5 33.5q0 38 -28 55.5t-64 17.5q-38 0 -73 -18.5t-65.5 -47t-56 -63t-43.5 -67.5q-26 -47 -42.5 -101t-16.5 -103q0 -39 12 -66.5t32.5 -44.5t49 -24.5t61.5 -7.5q44 0 93 12t96 31.5t89.5 45t73.5 53.5
q7 4 13 4q13 0 13 -12q0 -9 -7 -16q-33 -32 -81.5 -64t-103.5 -57t-112 -40.5t-107 -15.5t-85.5 17.5t-58 46t-32.5 64t-10 71.5q0 55 19 114t51 115q20 35 50 73.5t66.5 71t78 53.5t84.5 21q29 0 55 -8t45.5 -22.5t31 -34.5t11.5 -44q0 -17 -7.5 -37t-24.5 -41zM430 751
q5 5 10 5q12 0 12 -12q0 -9 -9.5 -25t-24 -32t-30 -28.5t-27.5 -15.5q-12 0 -19 6.5t-10.5 17t-5 23t-1.5 25.5q0 14 1.5 26t3.5 18q-1 1 -1 5q0 11 13 11q2 0 3 -0.5t3 -0.5q9 -31 12 -46t10 -26q7 1 16.5 7.5t18 14.5t15.5 15.5t10 11.5z" />
    <glyph glyph-name="ccaron" unicode="&#x10d;" horiz-adv-x="221" 
d="M193 223q0 -8 -5 -13t-10 -5q-11 0 -17 11l-4 48h-11q-15 -9 -29.5 -28t-26.5 -42.5t-19.5 -48t-7.5 -45.5q0 -3 1 -10.5t3.5 -15.5t7.5 -14.5t13 -7.5q12 2 28 12.5t31.5 22.5t29.5 21.5t22 9.5q17 0 17 -16q0 -6 -5 -13q-13 -11 -27.5 -27t-30 -30.5t-33 -24.5
t-35.5 -10q-19 0 -34.5 9.5t-26.5 24t-17 32t-6 34.5q0 33 10.5 69.5t29.5 68t45 52t56 20.5q23 0 37.5 -15.5t14.5 -46.5v-10.5t-1 -11.5zM203 442q5 5 10 5q12 0 12 -12q0 -9 -9.5 -25t-24 -32t-30 -28.5t-27.5 -15.5q-12 0 -19 6.5t-10.5 17t-5 23t-1.5 25.5q0 14 1.5 26
t3.5 18q-1 1 -1 5q0 11 13 11q2 0 3 -0.5t3 -0.5q9 -31 12 -46t10 -26q7 1 16.5 7.5t18 14.5t15.5 15.5t10 11.5z" />
    <glyph glyph-name="Dcaron" unicode="&#x10e;" horiz-adv-x="591" 
d="M206 564q1 8 6 12t10 4q11 0 16 -14v-1q37 26 70 37t63 11q45 0 81 -24t60.5 -62t37.5 -85t13 -94q0 -67 -21 -137.5t-58 -128t-86 -94.5t-105 -37q-8 0 -24.5 2.5t-33.5 7.5t-29.5 14t-12.5 21q0 8 4 15t10 7q9 0 17 -14l-6 -4q16 -7 32 -10t30 -3q51 0 92.5 32.5
t70.5 83t45 112.5t16 122q0 39 -8 76.5t-25 66.5t-42.5 46.5t-61.5 17.5q-23 0 -41.5 -5.5t-33.5 -14.5t-28 -20t-25 -21q-2 -47 -6 -93t-9 -91q-2 -18 -6 -51t-10.5 -72t-16 -79t-23.5 -72.5t-33 -53.5t-43 -21q-20 0 -37 14.5t-29 38t-19 54.5t-7 64q0 59 17.5 118.5
t46 114t65.5 102t76 81.5q1 7 1 13.5v13.5zM181 305q6 34 10.5 68.5t7.5 69.5q-63 -71 -101.5 -157t-38.5 -175q0 -10 1 -26.5t4 -32.5t9 -28.5t16 -15.5q9 0 15.5 11.5t10.5 19.5q29 61 42 129.5t24 136.5zM447 764q5 5 10 5q12 0 12 -12q0 -9 -9.5 -25t-24 -32t-30 -28.5
t-27.5 -15.5q-12 0 -19 6.5t-10.5 17t-5 23t-1.5 25.5q0 14 1.5 26t3.5 18q-1 1 -1 5q0 11 13 11q2 0 3 -0.5t3 -0.5q9 -31 12 -46t10 -26q7 1 16.5 7.5t18 14.5t15.5 15.5t10 11.5z" />
    <glyph glyph-name="dcaron" unicode="&#x10f;" horiz-adv-x="364" 
d="M162 256q11 -2 19 -8l4 9q10 46 21.5 92t24.5 91q4 13 10.5 37t16 46.5t23.5 39.5t33 17t26.5 -12t7.5 -32q0 -15 -3.5 -32t-8 -34t-10 -33t-9.5 -29q-14 -42 -33 -87.5t-45 -90.5q-7 -38 -13.5 -75.5t-12.5 -75.5v2l-2 -20t-1 -20q0 -26 8 -43q11 0 26 12t30 28t27.5 31
t18.5 21q7 5 12 5q16 0 16 -16q0 -6 -4 -13q-17 -18 -33.5 -37t-32.5 -35t-31 -26.5t-30 -10.5q-14 0 -24 9.5t-16 26t-8.5 39t-2.5 48.5v19t1 18q-12 -16 -29 -36.5t-34.5 -39t-34.5 -31t-30 -12.5h-5q-17 9 -23.5 13t-8.5 18q0 37 13.5 77.5t35.5 73.5t49.5 54.5
t56.5 21.5h5zM52 64q31 32 59.5 72t54.5 84q-3 1 -8 1h-1q-48 -22 -71 -64.5t-34 -92.5zM214 89q-1 -1 -1 -4q1 1 1 4zM303 468q0 1 0.5 1.5t0.5 1.5q-1 -1 -1 -3v-1v1zM360 387q9 -8 9 -20q0 -10 -4.5 -20.5t-10.5 -19.5t-11.5 -15t-7.5 -6q-1 0 -3 8q3 8 7 16.5t4 15.5
q0 3 -3 5.5t-6.5 5t-6.5 6t-3 9.5q0 8 6 14.5t15 6.5t15 -6z" />
    <glyph glyph-name="Dcroat" unicode="&#x110;" horiz-adv-x="591" 
d="M206 564q1 8 6 12t10 4q11 0 16 -14v-1q37 26 70 37t63 11q45 0 81 -24t60.5 -62t37.5 -85t13 -94q0 -67 -21 -137.5t-58 -128t-86 -94.5t-105 -37q-8 0 -24.5 2.5t-33.5 7.5t-29.5 14t-12.5 21q0 8 4 15t10 7q9 0 17 -14l-6 -4q16 -7 32 -10t30 -3q51 0 92.5 32.5
t70.5 83t45 112.5t16 122q0 39 -8 76.5t-25 66.5t-42.5 46.5t-61.5 17.5q-23 0 -41.5 -5.5t-33.5 -14.5t-28 -20t-25 -21q-2 -47 -6 -93t-9 -91q-2 -18 -6 -51t-10.5 -72t-16 -79t-23.5 -72.5t-33 -53.5t-43 -21q-20 0 -37 14.5t-29 38t-19 54.5t-7 64q0 59 17.5 118.5
t46 114t65.5 102t76 81.5q1 7 1 13.5v13.5zM181 305q6 34 10.5 68.5t7.5 69.5q-63 -71 -101.5 -157t-38.5 -175q0 -10 1 -26.5t4 -32.5t9 -28.5t16 -15.5q9 0 15.5 11.5t10.5 19.5q29 61 42 129.5t24 136.5zM261.65 276.592q13.8779 -1.0166 21.6836 -6.10254
q7.80566 -5.08691 7.80566 -11.1895q0 -8.1377 -17.3467 -13.2236t-44.2344 -7.62988q-26.8867 -2.54297 -59.8457 -3.55957q-32.959 -1.01758 -65.918 -1.01758t-69.3877 1.01758q-36.4277 1.0166 -76.3262 3.05176q0 2.03418 -0.867188 4.06836t-0.867188 4.06934
q0 7.12012 15.6123 15.2578q69.3867 6.10352 122.295 11.1895t118.825 5.08594q12.1436 0 23.4189 -0.508789t25.1523 -0.508789z" />
    <glyph glyph-name="dcroat" unicode="&#x111;" horiz-adv-x="364" 
d="M162 256q11 -2 19 -8l4 9q10 46 21.5 92t24.5 91q4 13 10.5 37t16 46.5t23.5 39.5t33 17t26.5 -12t7.5 -32q0 -15 -3.5 -32t-8 -34t-10 -33t-9.5 -29q-14 -42 -33 -87.5t-45 -90.5q-7 -38 -13.5 -75.5t-12.5 -75.5v2l-2 -20t-1 -20q0 -26 8 -43q11 0 26 12t30 28t27.5 31
t18.5 21q7 5 12 5q16 0 16 -16q0 -6 -4 -13q-17 -18 -33.5 -37t-32.5 -35t-31 -26.5t-30 -10.5q-14 0 -24 9.5t-16 26t-8.5 39t-2.5 48.5v19t1 18q-12 -16 -29 -36.5t-34.5 -39t-34.5 -31t-30 -12.5h-5q-17 9 -23.5 13t-8.5 18q0 37 13.5 77.5t35.5 73.5t49.5 54.5
t56.5 21.5h5zM52 64q31 32 59.5 72t54.5 84q-3 1 -8 1h-1q-48 -22 -71 -64.5t-34 -92.5zM214 89q-1 -1 -1 -4q1 1 1 4zM303 468q0 1 0.5 1.5t0.5 1.5q-1 -1 -1 -3v-1v1zM345 335q8 -1 12.5 -6t4.5 -11q0 -9 -12.5 -14t-34 -7.5t-49.5 -3t-59 -0.5q-29 0 -57.5 1t-50.5 3
q-2 6 -2 8q0 6 9 15q20 3 45.5 6t53 5t55.5 3.5t53 1.5q8 0 16 -0.5t16 -0.5z" />
    <glyph glyph-name="Emacron" unicode="&#x112;" horiz-adv-x="390" 
d="M339 608q9 0 14 -7t5 -15q0 -6 -3.5 -12t-11.5 -7q-25 -2 -51.5 -6t-52 -12.5t-47.5 -22t-38 -35.5q-9 -14 -9 -27q0 -20 11.5 -33t29 -20t37 -9.5t35.5 -2.5q4 0 7.5 0.5t7.5 0.5q17 0 26.5 -10.5t9.5 -21.5q0 -8 -3 -15q-34 -23 -76.5 -48.5t-80 -56.5t-63 -70
t-25.5 -90q0 -27 7 -44.5t19 -28.5t28 -15.5t34 -4.5q20 0 42 5t43 12t40 15.5t33 15.5q2 0 4.5 0.5t4.5 0.5q8 0 12 -4.5t4 -10.5q0 -10 -10 -16q-42 -26 -93 -43.5t-99 -17.5q-26 0 -49.5 7.5t-40.5 24t-27 43.5t-10 66q0 43 15 80.5t39 70t55 59.5t63 49l1 1
q-17 6 -32.5 16.5t-27.5 24t-19 29.5t-7 33q0 24 13 45.5t32.5 39t43.5 30.5t46 20q29 10 56.5 13t57.5 4zM358 700q8 -1 12.5 -6t4.5 -11q0 -8 -10 -13t-25.5 -7.5t-34.5 -3.5t-38 -1t-40 1t-44 3q0 2 -0.5 4t-0.5 4q0 7 9 15q40 6 70.5 11t68.5 5q7 0 13.5 -0.5t14.5 -0.5
z" />
    <glyph glyph-name="emacron" unicode="&#x113;" 
d="M185 219q-10 -21 -21.5 -42t-26 -39t-32 -31.5t-39.5 -19.5q0 -21 6 -41.5t25 -20.5q5 0 10.5 1t12.5 6q6 3 17.5 11t25 18.5t26 23t18.5 25.5q3 7 9 7q7 0 13 -6t6 -14q0 -7 -12 -22t-27.5 -31t-32 -30t-25.5 -18q-3 -1 -17.5 -9t-24.5 -8q-22 0 -38 9t-26.5 24
t-15.5 34.5t-5 40.5q-6 3 -6 11q0 7 5 12q0 12 1 24.5t5 25.5q6 21 16.5 50t26.5 55.5t38 45t50 18.5t38 -18.5t10 -42.5q0 -14 -2.5 -27.5t-7.5 -21.5zM137 261q-10 -8 -20 -23.5t-18 -33.5t-15 -37t-11 -35q12 11 30 42l10 17.5t11 23t9 24.5t4 22zM226 403q8 -1 12.5 -6
t4.5 -11q0 -8 -10 -13t-25.5 -7.5t-34.5 -3.5t-38 -1t-40 1t-44 3q0 2 -0.5 4t-0.5 4q0 7 9 15q40 6 70.5 11t68.5 5q7 0 13.5 -0.5t14.5 -0.5z" />
    <glyph glyph-name="Ebreve" unicode="&#x114;" horiz-adv-x="390" 
d="M339 608q9 0 14 -7t5 -15q0 -6 -3.5 -12t-11.5 -7q-25 -2 -51.5 -6t-52 -12.5t-47.5 -22t-38 -35.5q-9 -14 -9 -27q0 -20 11.5 -33t29 -20t37 -9.5t35.5 -2.5q4 0 7.5 0.5t7.5 0.5q17 0 26.5 -10.5t9.5 -21.5q0 -8 -3 -15q-34 -23 -76.5 -48.5t-80 -56.5t-63 -70
t-25.5 -90q0 -27 7 -44.5t19 -28.5t28 -15.5t34 -4.5q20 0 42 5t43 12t40 15.5t33 15.5q2 0 4.5 0.5t4.5 0.5q8 0 12 -4.5t4 -10.5q0 -10 -10 -16q-42 -26 -93 -43.5t-99 -17.5q-26 0 -49.5 7.5t-40.5 24t-27 43.5t-10 66q0 43 15 80.5t39 70t55 59.5t63 49l1 1
q-17 6 -32.5 16.5t-27.5 24t-19 29.5t-7 33q0 24 13 45.5t32.5 39t43.5 30.5t46 20q29 10 56.5 13t57.5 4zM224 711q0 15 13 15q5 0 8.5 -5t7.5 -11.5t9.5 -11.5t13.5 -5q15 0 23 4.5t12.5 9.5t7.5 9.5t7 4.5q2 0 8.5 -1.5t6.5 -8.5l1 -1v-8q0 -12 -6.5 -22.5t-16 -18
t-22 -12t-24.5 -4.5q-20 0 -35 12.5t-15 42.5q0 6 1 11z" />
    <glyph glyph-name="ebreve" unicode="&#x115;" 
d="M185 219q-10 -21 -21.5 -42t-26 -39t-32 -31.5t-39.5 -19.5q0 -21 6 -41.5t25 -20.5q5 0 10.5 1t12.5 6q6 3 17.5 11t25 18.5t26 23t18.5 25.5q3 7 9 7q7 0 13 -6t6 -14q0 -7 -12 -22t-27.5 -31t-32 -30t-25.5 -18q-3 -1 -17.5 -9t-24.5 -8q-22 0 -38 9t-26.5 24
t-15.5 34.5t-5 40.5q-6 3 -6 11q0 7 5 12q0 12 1 24.5t5 25.5q6 21 16.5 50t26.5 55.5t38 45t50 18.5t38 -18.5t10 -42.5q0 -14 -2.5 -27.5t-7.5 -21.5zM137 261q-10 -8 -20 -23.5t-18 -33.5t-15 -37t-11 -35q12 11 30 42l10 17.5t11 23t9 24.5t4 22zM113 422q0 15 13 15
q5 0 8.5 -5t7.5 -11.5t9.5 -11.5t13.5 -5q15 0 23 4.5t12.5 9.5t7.5 9.5t7 4.5q2 0 8.5 -1.5t6.5 -8.5l1 -1v-8q0 -12 -6.5 -22.5t-16 -18t-22 -12t-24.5 -4.5q-20 0 -35 12.5t-15 42.5q0 6 1 11z" />
    <glyph glyph-name="Edotaccent" unicode="&#x116;" horiz-adv-x="390" 
d="M339 608q9 0 14 -7t5 -15q0 -6 -3.5 -12t-11.5 -7q-25 -2 -51.5 -6t-52 -12.5t-47.5 -22t-38 -35.5q-9 -14 -9 -27q0 -20 11.5 -33t29 -20t37 -9.5t35.5 -2.5q4 0 7.5 0.5t7.5 0.5q17 0 26.5 -10.5t9.5 -21.5q0 -8 -3 -15q-34 -23 -76.5 -48.5t-80 -56.5t-63 -70
t-25.5 -90q0 -27 7 -44.5t19 -28.5t28 -15.5t34 -4.5q20 0 42 5t43 12t40 15.5t33 15.5q2 0 4.5 0.5t4.5 0.5q8 0 12 -4.5t4 -10.5q0 -10 -10 -16q-42 -26 -93 -43.5t-99 -17.5q-26 0 -49.5 7.5t-40.5 24t-27 43.5t-10 66q0 43 15 80.5t39 70t55 59.5t63 49l1 1
q-17 6 -32.5 16.5t-27.5 24t-19 29.5t-7 33q0 24 13 45.5t32.5 39t43.5 30.5t46 20q29 10 56.5 13t57.5 4zM293 690q6 -8 6 -17q0 -10 -6.5 -17.5t-16.5 -7.5q-11 0 -18 8t-7 16q0 9 7.5 16.5t18.5 7.5q8 0 16 -6z" />
    <glyph glyph-name="edotaccent" unicode="&#x117;" 
d="M185 219q-10 -21 -21.5 -42t-26 -39t-32 -31.5t-39.5 -19.5q0 -21 6 -41.5t25 -20.5q5 0 10.5 1t12.5 6q6 3 17.5 11t25 18.5t26 23t18.5 25.5q3 7 9 7q7 0 13 -6t6 -14q0 -7 -12 -22t-27.5 -31t-32 -30t-25.5 -18q-3 -1 -17.5 -9t-24.5 -8q-22 0 -38 9t-26.5 24
t-15.5 34.5t-5 40.5q-6 3 -6 11q0 7 5 12q0 12 1 24.5t5 25.5q6 21 16.5 50t26.5 55.5t38 45t50 18.5t38 -18.5t10 -42.5q0 -14 -2.5 -27.5t-7.5 -21.5zM137 261q-10 -8 -20 -23.5t-18 -33.5t-15 -37t-11 -35q12 11 30 42l10 17.5t11 23t9 24.5t4 22zM170 411q6 -8 6 -17
q0 -10 -6.5 -17.5t-16.5 -7.5q-11 0 -18 8t-7 16q0 9 7.5 16.5t18.5 7.5q8 0 16 -6z" />
    <glyph glyph-name="Eogonek" unicode="&#x118;" horiz-adv-x="390" 
d="M339 608q9 0 14 -7t5 -15q0 -6 -3.5 -12t-11.5 -7q-25 -2 -51.5 -6t-52 -12.5t-47.5 -22t-38 -35.5q-9 -14 -9 -27q0 -20 11.5 -33t29 -20t37 -9.5t35.5 -2.5q4 0 7.5 0.5t7.5 0.5q17 0 26.5 -10.5t9.5 -21.5q0 -8 -3 -15q-34 -23 -76.5 -48.5t-80 -56.5t-63 -70
t-25.5 -90q0 -27 7 -44.5t19 -28.5t28 -15.5t34 -4.5q20 0 42 5t43 12t40 15.5t33 15.5q2 0 4.5 0.5t4.5 0.5q8 0 12 -4.5t4 -10.5q0 -10 -10 -16q-42 -26 -93 -43.5t-99 -17.5q-26 0 -49.5 7.5t-40.5 24t-27 43.5t-10 66q0 43 15 80.5t39 70t55 59.5t63 49l1 1
q-17 6 -32.5 16.5t-27.5 24t-19 29.5t-7 33q0 24 13 45.5t32.5 39t43.5 30.5t46 20q29 10 56.5 13t57.5 4zM315 40q13 0 13 -11q0 -6 -4 -10q-11 -11 -16.5 -32t-5.5 -37q11 0 20 6t19 6q6 0 9.5 -3.5t3.5 -8.5q0 -2 -6 -9.5t-15 -15t-19 -13.5t-18 -6q-18 0 -29.5 12.5
t-11.5 29.5q0 28 14 54.5t41 37.5h5z" />
    <glyph glyph-name="eogonek" unicode="&#x119;" 
d="M185 219q-10 -21 -21.5 -42t-26 -39t-32 -31.5t-39.5 -19.5q0 -21 6 -41.5t25 -20.5q5 0 10.5 1t12.5 6q6 3 17.5 11t25 18.5t26 23t18.5 25.5q3 7 9 7q7 0 13 -6t6 -14q0 -7 -12 -22t-27.5 -31t-32 -30t-25.5 -18q-3 -1 -17.5 -9t-24.5 -8q-22 0 -38 9t-26.5 24
t-15.5 34.5t-5 40.5q-6 3 -6 11q0 7 5 12q0 12 1 24.5t5 25.5q6 21 16.5 50t26.5 55.5t38 45t50 18.5t38 -18.5t10 -42.5q0 -14 -2.5 -27.5t-7.5 -21.5zM137 261q-10 -8 -20 -23.5t-18 -33.5t-15 -37t-11 -35q12 11 30 42l10 17.5t11 23t9 24.5t4 22zM168 46q13 0 13 -11
q0 -6 -4 -10q-11 -11 -16.5 -32t-5.5 -37q11 0 20 6t19 6q6 0 9.5 -3.5t3.5 -8.5q0 -2 -6 -9.5t-15 -15t-19 -13.5t-18 -6q-18 0 -29.5 12.5t-11.5 29.5q0 28 14 54.5t41 37.5h5z" />
    <glyph glyph-name="Ecaron" unicode="&#x11a;" horiz-adv-x="390" 
d="M339 608q9 0 14 -7t5 -15q0 -6 -3.5 -12t-11.5 -7q-25 -2 -51.5 -6t-52 -12.5t-47.5 -22t-38 -35.5q-9 -14 -9 -27q0 -20 11.5 -33t29 -20t37 -9.5t35.5 -2.5q4 0 7.5 0.5t7.5 0.5q17 0 26.5 -10.5t9.5 -21.5q0 -8 -3 -15q-34 -23 -76.5 -48.5t-80 -56.5t-63 -70
t-25.5 -90q0 -27 7 -44.5t19 -28.5t28 -15.5t34 -4.5q20 0 42 5t43 12t40 15.5t33 15.5q2 0 4.5 0.5t4.5 0.5q8 0 12 -4.5t4 -10.5q0 -10 -10 -16q-42 -26 -93 -43.5t-99 -17.5q-26 0 -49.5 7.5t-40.5 24t-27 43.5t-10 66q0 43 15 80.5t39 70t55 59.5t63 49l1 1
q-17 6 -32.5 16.5t-27.5 24t-19 29.5t-7 33q0 24 13 45.5t32.5 39t43.5 30.5t46 20q29 10 56.5 13t57.5 4zM339 746q5 5 10 5q12 0 12 -12q0 -9 -9.5 -25t-24 -32t-30 -28.5t-27.5 -15.5q-12 0 -19 6.5t-10.5 17t-5 23t-1.5 25.5q0 14 1.5 26t3.5 18q-1 1 -1 5q0 11 13 11
q2 0 3 -0.5t3 -0.5q9 -31 12 -46t10 -26q7 1 16.5 7.5t18 14.5t15.5 15.5t10 11.5z" />
    <glyph glyph-name="ecaron" unicode="&#x11b;" 
d="M185 219q-10 -21 -21.5 -42t-26 -39t-32 -31.5t-39.5 -19.5q0 -21 6 -41.5t25 -20.5q5 0 10.5 1t12.5 6q6 3 17.5 11t25 18.5t26 23t18.5 25.5q3 7 9 7q7 0 13 -6t6 -14q0 -7 -12 -22t-27.5 -31t-32 -30t-25.5 -18q-3 -1 -17.5 -9t-24.5 -8q-22 0 -38 9t-26.5 24
t-15.5 34.5t-5 40.5q-6 3 -6 11q0 7 5 12q0 12 1 24.5t5 25.5q6 21 16.5 50t26.5 55.5t38 45t50 18.5t38 -18.5t10 -42.5q0 -14 -2.5 -27.5t-7.5 -21.5zM137 261q-10 -8 -20 -23.5t-18 -33.5t-15 -37t-11 -35q12 11 30 42l10 17.5t11 23t9 24.5t4 22zM227 460q5 5 10 5
q12 0 12 -12q0 -9 -9.5 -25t-24 -32t-30 -28.5t-27.5 -15.5q-12 0 -19 6.5t-10.5 17t-5 23t-1.5 25.5q0 14 1.5 26t3.5 18q-1 1 -1 5q0 11 13 11q2 0 3 -0.5t3 -0.5q9 -31 12 -46t10 -26q7 1 16.5 7.5t18 14.5t15.5 15.5t10 11.5z" />
    <glyph glyph-name="Gcircumflex" unicode="&#x11c;" horiz-adv-x="556" 
d="M184 220q-1 0 -2 -0.5t-2 -0.5q-8 0 -12.5 4.5t-4.5 10.5q0 11 13 17q20 6 51 17.5t66.5 22t73.5 18.5t71 8t59 -10t38 -36q4 -9 3 -19.5t1 -20.5q-2 -18 -17 -18q-10 0 -15 11q-8 22 -18.5 29.5t-26.5 7.5q-20 0 -51 -5t-58 -11l-5 -29q-7 -44 -14.5 -78.5t-15 -66.5
t-15.5 -66.5t-15 -79.5q-8 -8 -17 -8q-15 0 -15 23q0 16 2 35t5 36.5t5.5 31t3.5 18.5q-14 -21 -31.5 -42.5t-38.5 -39t-44.5 -28.5t-48.5 -11q-29 0 -49.5 13t-33 34t-18.5 47t-6 52q0 47 11.5 98t26.5 96q26 75 63.5 141t87.5 128q20 26 51 42.5t65 16.5q48 0 70 -42
t22 -109q0 -20 -2.5 -38.5t-7.5 -33.5t-11.5 -24t-15.5 -9q-16 0 -16 15q0 5 6 27t6 57q0 20 -2.5 41t-8.5 37.5t-15.5 27t-24.5 10.5t-31 -11q-34 -23 -63 -58.5t-52.5 -78t-41.5 -89t-30 -90.5t-18 -82.5t-6 -65.5q0 -16 2 -31t8 -27.5t16 -21t25 -10.5q38 13 68.5 36.5
t53 54t37 65.5t20.5 71q-1 -3 -2 -9t-1 -5q4 9 5 18q-27 -7 -56 -8.5t-57 -4.5zM285 651q-7 -5 -12 -5q-11 0 -11 11q0 10 10 26t24 32t29.5 28.5t27.5 15.5q20 0 26 -16.5t6 -35.5q0 -12 -1 -25t-1 -26q0 -5 1 -9t1 -9q0 -11 -13 -11q-9 0 -14.5 8t-8.5 19.5t-4 24t-1 21.5
q-17 -12 -34.5 -26.5t-24.5 -22.5z" />
    <glyph glyph-name="gcircumflex" unicode="&#x11d;" horiz-adv-x="328" 
d="M109 238q20 15 41 15q23 0 34 -20q13 17 18 25.5t19 8.5q22 0 28 -24q0 -30 -2.5 -60t-2.5 -60v-3l7 7q4 4 12 11t17.5 13.5t19.5 11t19 4.5q7 0 7 -5q0 -14 -13 -26.5t-24 -23.5t-21.5 -22.5t-20.5 -23.5q2 -39 5 -77t3 -76q0 -31 -2.5 -62t-8.5 -65q-4 -21 -14.5 -43
t-26 -40t-36 -29t-44.5 -11q-27 0 -44 8t-27 20.5t-14 28t-4 29.5q0 13 2 26t4 27q5 27 19 60t32.5 66t39.5 63t40 53l14 18q-1 14 -1 29v30v26q-32 -34 -67 -67t-78 -49q-4 -1 -9 -1q-10 0 -18 8t-8 27q0 21 11 47t27.5 50.5t34.5 45t32 30.5zM191 -139q1 14 1.5 27.5
t0.5 27.5q0 40 -3 81q-25 -35 -44 -74t-34 -78q-2 -4 -5.5 -14t-7 -22.5t-6.5 -26t-3 -25.5q0 -14 6 -23t21 -9q24 0 38 15t21.5 36t10 44.5t4.5 40.5zM61 102q18 16 47.5 43.5t53.5 56.5q-7 7 -4.5 12t-3.5 5q-17 0 -31.5 -13.5t-26.5 -32.5t-21 -39t-14 -32zM145 327
q-7 -5 -12 -5q-11 0 -11 11q0 10 10 26t24 32t29.5 28.5t27.5 15.5q20 0 26 -16.5t6 -35.5q0 -12 -1 -25t-1 -26q0 -5 1 -9t1 -9q0 -11 -13 -11q-9 0 -14.5 8t-8.5 19.5t-4 24t-1 21.5q-17 -12 -34.5 -26.5t-24.5 -22.5z" />
    <glyph glyph-name="Gbreve" unicode="&#x11e;" horiz-adv-x="556" 
d="M184 220q-1 0 -2 -0.5t-2 -0.5q-8 0 -12.5 4.5t-4.5 10.5q0 11 13 17q20 6 51 17.5t66.5 22t73.5 18.5t71 8t59 -10t38 -36q4 -9 3 -19.5t1 -20.5q-2 -18 -17 -18q-10 0 -15 11q-8 22 -18.5 29.5t-26.5 7.5q-20 0 -51 -5t-58 -11l-5 -29q-7 -44 -14.5 -78.5t-15 -66.5
t-15.5 -66.5t-15 -79.5q-8 -8 -17 -8q-15 0 -15 23q0 16 2 35t5 36.5t5.5 31t3.5 18.5q-14 -21 -31.5 -42.5t-38.5 -39t-44.5 -28.5t-48.5 -11q-29 0 -49.5 13t-33 34t-18.5 47t-6 52q0 47 11.5 98t26.5 96q26 75 63.5 141t87.5 128q20 26 51 42.5t65 16.5q48 0 70 -42
t22 -109q0 -20 -2.5 -38.5t-7.5 -33.5t-11.5 -24t-15.5 -9q-16 0 -16 15q0 5 6 27t6 57q0 20 -2.5 41t-8.5 37.5t-15.5 27t-24.5 10.5t-31 -11q-34 -23 -63 -58.5t-52.5 -78t-41.5 -89t-30 -90.5t-18 -82.5t-6 -65.5q0 -16 2 -31t8 -27.5t16 -21t25 -10.5q38 13 68.5 36.5
t53 54t37 65.5t20.5 71q-1 -3 -2 -9t-1 -5q4 9 5 18q-27 -7 -56 -8.5t-57 -4.5zM269 710q0 15 13 15q5 0 8.5 -5t7.5 -11.5t9.5 -11.5t13.5 -5q15 0 23 4.5t12.5 9.5t7.5 9.5t7 4.5q2 0 8.5 -1.5t6.5 -8.5l1 -1v-8q0 -12 -6.5 -22.5t-16 -18t-22 -12t-24.5 -4.5
q-20 0 -35 12.5t-15 42.5q0 6 1 11z" />
    <glyph glyph-name="gbreve" unicode="&#x11f;" horiz-adv-x="328" 
d="M109 238q20 15 41 15q23 0 34 -20q13 17 18 25.5t19 8.5q22 0 28 -24q0 -30 -2.5 -60t-2.5 -60v-3l7 7q4 4 12 11t17.5 13.5t19.5 11t19 4.5q7 0 7 -5q0 -14 -13 -26.5t-24 -23.5t-21.5 -22.5t-20.5 -23.5q2 -39 5 -77t3 -76q0 -31 -2.5 -62t-8.5 -65q-4 -21 -14.5 -43
t-26 -40t-36 -29t-44.5 -11q-27 0 -44 8t-27 20.5t-14 28t-4 29.5q0 13 2 26t4 27q5 27 19 60t32.5 66t39.5 63t40 53l14 18q-1 14 -1 29v30v26q-32 -34 -67 -67t-78 -49q-4 -1 -9 -1q-10 0 -18 8t-8 27q0 21 11 47t27.5 50.5t34.5 45t32 30.5zM191 -139q1 14 1.5 27.5
t0.5 27.5q0 40 -3 81q-25 -35 -44 -74t-34 -78q-2 -4 -5.5 -14t-7 -22.5t-6.5 -26t-3 -25.5q0 -14 6 -23t21 -9q24 0 38 15t21.5 36t10 44.5t4.5 40.5zM61 102q18 16 47.5 43.5t53.5 56.5q-7 7 -4.5 12t-3.5 5q-17 0 -31.5 -13.5t-26.5 -32.5t-21 -39t-14 -32zM124 389
q0 15 13 15q5 0 8.5 -5t7.5 -11.5t9.5 -11.5t13.5 -5q15 0 23 4.5t12.5 9.5t7.5 9.5t7 4.5q2 0 8.5 -1.5t6.5 -8.5l1 -1v-8q0 -12 -6.5 -22.5t-16 -18t-22 -12t-24.5 -4.5q-20 0 -35 12.5t-15 42.5q0 6 1 11z" />
    <glyph glyph-name="Gdotaccent" unicode="&#x120;" horiz-adv-x="556" 
d="M184 220q-1 0 -2 -0.5t-2 -0.5q-8 0 -12.5 4.5t-4.5 10.5q0 11 13 17q20 6 51 17.5t66.5 22t73.5 18.5t71 8t59 -10t38 -36q4 -9 3 -19.5t1 -20.5q-2 -18 -17 -18q-10 0 -15 11q-8 22 -18.5 29.5t-26.5 7.5q-20 0 -51 -5t-58 -11l-5 -29q-7 -44 -14.5 -78.5t-15 -66.5
t-15.5 -66.5t-15 -79.5q-8 -8 -17 -8q-15 0 -15 23q0 16 2 35t5 36.5t5.5 31t3.5 18.5q-14 -21 -31.5 -42.5t-38.5 -39t-44.5 -28.5t-48.5 -11q-29 0 -49.5 13t-33 34t-18.5 47t-6 52q0 47 11.5 98t26.5 96q26 75 63.5 141t87.5 128q20 26 51 42.5t65 16.5q48 0 70 -42
t22 -109q0 -20 -2.5 -38.5t-7.5 -33.5t-11.5 -24t-15.5 -9q-16 0 -16 15q0 5 6 27t6 57q0 20 -2.5 41t-8.5 37.5t-15.5 27t-24.5 10.5t-31 -11q-34 -23 -63 -58.5t-52.5 -78t-41.5 -89t-30 -90.5t-18 -82.5t-6 -65.5q0 -16 2 -31t8 -27.5t16 -21t25 -10.5q38 13 68.5 36.5
t53 54t37 65.5t20.5 71q-1 -3 -2 -9t-1 -5q4 9 5 18q-27 -7 -56 -8.5t-57 -4.5zM341 696q6 -8 6 -17q0 -10 -6.5 -17.5t-16.5 -7.5q-11 0 -18 8t-7 16q0 9 7.5 16.5t18.5 7.5q8 0 16 -6z" />
    <glyph glyph-name="gdotaccent" unicode="&#x121;" horiz-adv-x="328" 
d="M109 238q20 15 41 15q23 0 34 -20q13 17 18 25.5t19 8.5q22 0 28 -24q0 -30 -2.5 -60t-2.5 -60v-3l7 7q4 4 12 11t17.5 13.5t19.5 11t19 4.5q7 0 7 -5q0 -14 -13 -26.5t-24 -23.5t-21.5 -22.5t-20.5 -23.5q2 -39 5 -77t3 -76q0 -31 -2.5 -62t-8.5 -65q-4 -21 -14.5 -43
t-26 -40t-36 -29t-44.5 -11q-27 0 -44 8t-27 20.5t-14 28t-4 29.5q0 13 2 26t4 27q5 27 19 60t32.5 66t39.5 63t40 53l14 18q-1 14 -1 29v30v26q-32 -34 -67 -67t-78 -49q-4 -1 -9 -1q-10 0 -18 8t-8 27q0 21 11 47t27.5 50.5t34.5 45t32 30.5zM191 -139q1 14 1.5 27.5
t0.5 27.5q0 40 -3 81q-25 -35 -44 -74t-34 -78q-2 -4 -5.5 -14t-7 -22.5t-6.5 -26t-3 -25.5q0 -14 6 -23t21 -9q24 0 38 15t21.5 36t10 44.5t4.5 40.5zM61 102q18 16 47.5 43.5t53.5 56.5q-7 7 -4.5 12t-3.5 5q-17 0 -31.5 -13.5t-26.5 -32.5t-21 -39t-14 -32zM185 376
q6 -8 6 -17q0 -10 -6.5 -17.5t-16.5 -7.5q-11 0 -18 8t-7 16q0 9 7.5 16.5t18.5 7.5q8 0 16 -6z" />
    <glyph glyph-name="Gcommaaccent" unicode="&#x122;" horiz-adv-x="556" 
d="M184 220q-1 0 -2 -0.5t-2 -0.5q-8 0 -12.5 4.5t-4.5 10.5q0 11 13 17q20 6 51 17.5t66.5 22t73.5 18.5t71 8t59 -10t38 -36q4 -9 3 -19.5t1 -20.5q-2 -18 -17 -18q-10 0 -15 11q-8 22 -18.5 29.5t-26.5 7.5q-20 0 -51 -5t-58 -11l-5 -29q-7 -44 -14.5 -78.5t-15 -66.5
t-15.5 -66.5t-15 -79.5q-8 -8 -17 -8q-15 0 -15 23q0 16 2 35t5 36.5t5.5 31t3.5 18.5q-14 -21 -31.5 -42.5t-38.5 -39t-44.5 -28.5t-48.5 -11q-29 0 -49.5 13t-33 34t-18.5 47t-6 52q0 47 11.5 98t26.5 96q26 75 63.5 141t87.5 128q20 26 51 42.5t65 16.5q48 0 70 -42
t22 -109q0 -20 -2.5 -38.5t-7.5 -33.5t-11.5 -24t-15.5 -9q-16 0 -16 15q0 5 6 27t6 57q0 20 -2.5 41t-8.5 37.5t-15.5 27t-24.5 10.5t-31 -11q-34 -23 -63 -58.5t-52.5 -78t-41.5 -89t-30 -90.5t-18 -82.5t-6 -65.5q0 -16 2 -31t8 -27.5t16 -21t25 -10.5q38 13 68.5 36.5
t53 54t37 65.5t20.5 71q-1 -3 -2 -9t-1 -5q4 9 5 18q-27 -7 -56 -8.5t-57 -4.5zM191 -93q9 -8 9 -20q0 -10 -4.5 -20.5t-10.5 -19.5t-11.5 -15t-7.5 -6q-1 0 -3 8q3 8 7 16.5t4 15.5q0 3 -3 5.5t-6.5 5t-6.5 6t-3 9.5q0 8 6 14.5t15 6.5t15 -6z" />
    <glyph glyph-name="gcommaaccent" unicode="&#x123;" horiz-adv-x="328" 
d="M109 238q20 15 41 15q23 0 34 -20q13 17 18 25.5t19 8.5q22 0 28 -24q0 -30 -2.5 -60t-2.5 -60v-3l7 7q4 4 12 11t17.5 13.5t19.5 11t19 4.5q7 0 7 -5q0 -14 -13 -26.5t-24 -23.5t-21.5 -22.5t-20.5 -23.5q2 -39 5 -77t3 -76q0 -31 -2.5 -62t-8.5 -65q-4 -21 -14.5 -43
t-26 -40t-36 -29t-44.5 -11q-27 0 -44 8t-27 20.5t-14 28t-4 29.5q0 13 2 26t4 27q5 27 19 60t32.5 66t39.5 63t40 53l14 18q-1 14 -1 29v30v26q-32 -34 -67 -67t-78 -49q-4 -1 -9 -1q-10 0 -18 8t-8 27q0 21 11 47t27.5 50.5t34.5 45t32 30.5zM191 -139q1 14 1.5 27.5
t0.5 27.5q0 40 -3 81q-25 -35 -44 -74t-34 -78q-2 -4 -5.5 -14t-7 -22.5t-6.5 -26t-3 -25.5q0 -14 6 -23t21 -9q24 0 38 15t21.5 36t10 44.5t4.5 40.5zM61 102q18 16 47.5 43.5t53.5 56.5q-7 7 -4.5 12t-3.5 5q-17 0 -31.5 -13.5t-26.5 -32.5t-21 -39t-14 -32z
M169.005 324.003q-8.99902 7.99902 -8.99902 19.998q0 10 4.5 20.499q4.49902 10.5 10.499 19.499q5.99902 8.99902 11.499 14.999t7.5 6q1 0 3 -8q-3 -7.99902 -7 -16.499q-4 -8.49902 -4 -15.499q0 -3 3 -5.5q3 -2.49902 6.5 -4.99902q3.49902 -2.5 6.49902 -6t3 -9.49902
q0 -8 -6 -14.499q-5.99902 -6.5 -14.999 -6.5q-8.99902 0 -14.999 6z" />
    <glyph glyph-name="Hcircumflex" unicode="&#x124;" horiz-adv-x="665" 
d="M278 597q2 7 7 10.5t10 3.5q13 0 15 -15q-8 -80 -21 -158.5t-30 -158.5q0 -1 -0.5 -1t-0.5 -1v-1q57 6 114 8l114 4q8 26 16.5 52t18.5 52q7 19 19.5 45.5t24.5 52t21.5 46t11.5 28.5q3 14 16 14q6 0 11 -4.5t5 -12.5v-3q-9 -35 -21 -69t-23 -69q-10 -33 -19.5 -66
t-17.5 -65q14 -3 14 -16q0 -5 -4 -10t-13 -6l-6 -1q-4 -12 -10 -32t-12 -43.5t-10 -48.5t-4 -47q0 -12 1.5 -24t7 -21.5t15 -15.5t25.5 -6q13 0 27 4.5t28 10.5t27.5 13t25.5 13q2 1 6 1q8 0 12.5 -5t4.5 -10q0 -8 -19 -21.5t-44 -26.5t-50 -22.5t-36 -9.5q-20 0 -36.5 10
t-28 26.5t-17.5 36.5t-6 41q0 44 8.5 87.5t19.5 85.5q-53 -5 -111.5 -9t-115.5 -15l-16 -60t-18 -61q-7 -24 -16.5 -52.5t-23 -53t-31 -41t-38.5 -16.5q-20 0 -38.5 16t-33 41t-23.5 55.5t-9 59.5q0 33 12.5 57t32.5 41t44 27t46.5 16t41.5 9t28 4q23 84 41 167.5t31 159.5z
M94 31q3 -4 6 -4q9 0 23 23t27.5 54t24.5 62t14 48q-57 -17 -91 -40.5t-34 -61.5q0 -33 30 -81zM423 606q-7 -5 -12 -5q-11 0 -11 11q0 10 10 26t24 32t29.5 28.5t27.5 15.5q20 0 26 -16.5t6 -35.5q0 -12 -1 -25t-1 -26q0 -5 1 -9t1 -9q0 -11 -13 -11q-9 0 -14.5 8
t-8.5 19.5t-4 24t-1 21.5q-17 -12 -34.5 -26.5t-24.5 -22.5z" />
    <glyph glyph-name="hcircumflex" unicode="&#x125;" horiz-adv-x="333" 
d="M12 155q7 48 14 96.5t16.5 96.5t23 94.5t33.5 90.5q10 22 24 46t32 43.5t39.5 32.5t46.5 13q32 0 54.5 -23.5t22.5 -61.5q0 -56 -20.5 -104.5t-52.5 -90.5t-71.5 -78t-77.5 -68l-9 -7q-5 -29 -9 -58t-7 -58q5 6 13.5 16t18.5 19t20.5 15.5t18.5 6.5q5 0 9 -1
q23 -10 30.5 -26.5t9 -37t1.5 -42.5t6 -44q3 0 4 -1q8 7 19.5 16t19.5 9q16 0 16 -16q0 -5 -6 -13t-15 -16t-19.5 -13.5t-19.5 -5.5q-18 0 -28 18.5t-15 43t-7 47.5t-5 32q-17 -14 -28 -31.5t-20 -36t-18.5 -37.5t-23.5 -35q-9 -6 -18 -6q-10 0 -16.5 6.5t-10 17t-4.5 22.5
t-1 24q0 27 3.5 54.5t6.5 50.5zM133 436q-11 -35 -19.5 -69t-15.5 -69l22 21q27 27 52.5 56.5t45 61.5t31.5 67.5t12 76.5q0 10 -6.5 16t-16.5 6q-19 0 -35.5 -18t-29.5 -43.5t-23 -54.5t-17 -51zM228 704q-7 -5 -12 -5q-11 0 -11 11q0 10 10 26t24 32t29.5 28.5t27.5 15.5
q20 0 26 -16.5t6 -35.5q0 -12 -1 -25t-1 -26q0 -5 1 -9t1 -9q0 -11 -13 -11q-9 0 -14.5 8t-8.5 19.5t-4 24t-1 21.5q-17 -12 -34.5 -26.5t-24.5 -22.5z" />
    <glyph glyph-name="Hbar" unicode="&#x126;" horiz-adv-x="665" 
d="M278 597q2 7 7 10.5t10 3.5q13 0 15 -15q-8 -80 -21 -158.5t-30 -158.5q0 -1 -0.5 -1t-0.5 -1v-1q57 6 114 8l114 4q8 26 16.5 52t18.5 52q7 19 19.5 45.5t24.5 52t21.5 46t11.5 28.5q3 14 16 14q6 0 11 -4.5t5 -12.5v-3q-9 -35 -21 -69t-23 -69q-10 -33 -19.5 -66
t-17.5 -65q14 -3 14 -16q0 -5 -4 -10t-13 -6l-6 -1q-4 -12 -10 -32t-12 -43.5t-10 -48.5t-4 -47q0 -12 1.5 -24t7 -21.5t15 -15.5t25.5 -6q13 0 27 4.5t28 10.5t27.5 13t25.5 13q2 1 6 1q8 0 12.5 -5t4.5 -10q0 -8 -19 -21.5t-44 -26.5t-50 -22.5t-36 -9.5q-20 0 -36.5 10
t-28 26.5t-17.5 36.5t-6 41q0 44 8.5 87.5t19.5 85.5q-53 -5 -111.5 -9t-115.5 -15l-16 -60t-18 -61q-7 -24 -16.5 -52.5t-23 -53t-31 -41t-38.5 -16.5q-20 0 -38.5 16t-33 41t-23.5 55.5t-9 59.5q0 33 12.5 57t32.5 41t44 27t46.5 16t41.5 9t28 4q23 84 41 167.5t31 159.5z
M94 31q3 -4 6 -4q9 0 23 23t27.5 54t24.5 62t14 48q-57 -17 -91 -40.5t-34 -61.5q0 -33 30 -81zM-136.275 391.8q-9.86133 -1.05176 -15.4092 -6.31055q-5.54688 -5.25781 -5.54688 -11.5684q0 -8.41309 12.3271 -13.6719q12.3262 -5.25879 31.4326 -7.8877
t42.5273 -3.68066t46.8408 -1.05176q23.4209 0 49.3066 1.05176q25.8867 1.05176 54.2373 3.1543q0 2.10352 0.616211 4.20703q0.617188 2.10352 0.617188 4.20703q0 7.3623 -11.0947 15.7754q-49.3066 6.31055 -86.9023 11.5684q-37.5967 5.25879 -84.4385 5.25879
q-8.62793 0 -16.6406 -0.525391q-8.01172 -0.526367 -17.873 -0.526367z" />
    <glyph glyph-name="hbar" unicode="&#x127;" horiz-adv-x="333" 
d="M12 155q7 48 14 96.5t16.5 96.5t23 94.5t33.5 90.5q10 22 24 46t32 43.5t39.5 32.5t46.5 13q32 0 54.5 -23.5t22.5 -61.5q0 -56 -20.5 -104.5t-52.5 -90.5t-71.5 -78t-77.5 -68l-9 -7q-5 -29 -9 -58t-7 -58q5 6 13.5 16t18.5 19t20.5 15.5t18.5 6.5q5 0 9 -1
q23 -10 30.5 -26.5t9 -37t1.5 -42.5t6 -44q3 0 4 -1q8 7 19.5 16t19.5 9q16 0 16 -16q0 -5 -6 -13t-15 -16t-19.5 -13.5t-19.5 -5.5q-18 0 -28 18.5t-15 43t-7 47.5t-5 32q-17 -14 -28 -31.5t-20 -36t-18.5 -37.5t-23.5 -35q-9 -6 -18 -6q-10 0 -16.5 6.5t-10 17t-4.5 22.5
t-1 24q0 27 3.5 54.5t6.5 50.5zM133 436q-11 -35 -19.5 -69t-15.5 -69l22 21q27 27 52.5 56.5t45 61.5t31.5 67.5t12 76.5q0 10 -6.5 16t-16.5 6q-19 0 -35.5 -18t-29.5 -43.5t-23 -54.5t-17 -51zM201 515q8 -1 12.5 -6t4.5 -11q0 -8 -10 -13t-25.5 -7.5t-34.5 -3.5t-38 -1
t-40 1t-44 3q0 2 -0.5 4t-0.5 4q0 7 9 15q40 6 70.5 11t68.5 5q7 0 13.5 -0.5t14.5 -0.5z" />
    <glyph glyph-name="Itilde" unicode="&#x128;" horiz-adv-x="198" 
d="M141 592q2 9 6.5 13.5t9.5 4.5q17 0 17 -34q0 -17 -2.5 -38.5t-6 -43t-7 -41t-5.5 -32.5q-18 -117 -47 -228t-65 -223q-2 -7 -6.5 -10t-9.5 -3q-6 0 -10.5 5t-4.5 13v4q18 110 38 218t46 217q11 45 23.5 89t23.5 89zM108 646q-4 -2 -7 -2q-5 0 -8.5 3.5t-3.5 8.5t2 8
q9 11 18.5 26t20 29t23 24t27.5 12q21 0 28 -17.5t7 -35.5v-16v-8q7 3 10.5 4t6 2.5t5 4t8.5 9.5q-1 -2 -1 -4v-1q3 17 14 17q5 0 8.5 -3t3.5 -8q0 -11 -5.5 -22t-15 -20t-21.5 -14.5t-24 -5.5q-14 0 -21 5.5t-10.5 14.5t-4.5 19.5t-1 20.5q-8 -6 -17 -13.5t-17 -15
t-15 -13.5t-10 -9z" />
    <glyph glyph-name="itilde" unicode="&#x129;" horiz-adv-x="207" 
d="M53 235q12 15 21 15q11 0 11 -19q-8 -49 -15.5 -91t-7.5 -68q0 -28 11 -29q7 -3 16 -3q24 0 54 14t51 36q6 2 9 2q7 0 12 -5t5 -12q0 -5 -5 -12q-51 -42 -88 -58.5t-63 -16.5q-30 0 -43.5 19.5t-13.5 49.5q0 55 15 97.5t31 80.5zM34 335q-4 -2 -7 -2q-5 0 -8.5 3.5
t-3.5 8.5t2 8q9 11 18.5 26t20 29t23 24t27.5 12q21 0 28 -17.5t7 -35.5v-16v-8q7 3 10.5 4t6 2.5t5 4t8.5 9.5q-1 -2 -1 -4v-1q3 17 14 17q5 0 8.5 -3t3.5 -8q0 -11 -5.5 -22t-15 -20t-21.5 -14.5t-24 -5.5q-14 0 -21 5.5t-10.5 14.5t-4.5 19.5t-1 20.5q-8 -6 -17 -13.5
t-17 -15t-15 -13.5t-10 -9z" />
    <glyph glyph-name="Imacron" unicode="&#x12a;" horiz-adv-x="198" 
d="M141 592q2 9 6.5 13.5t9.5 4.5q17 0 17 -34q0 -17 -2.5 -38.5t-6 -43t-7 -41t-5.5 -32.5q-18 -117 -47 -228t-65 -223q-2 -7 -6.5 -10t-9.5 -3q-6 0 -10.5 5t-4.5 13v4q18 110 38 218t46 217q11 45 23.5 89t23.5 89zM244 694q8 -1 12.5 -6t4.5 -11q0 -8 -10 -13
t-25.5 -7.5t-34.5 -3.5t-38 -1t-40 1t-44 3q0 2 -0.5 4t-0.5 4q0 7 9 15q40 6 70.5 11t68.5 5q7 0 13.5 -0.5t14.5 -0.5z" />
    <glyph glyph-name="imacron" unicode="&#x12b;" horiz-adv-x="207" 
d="M53 235q12 15 21 15q11 0 11 -19q-8 -49 -15.5 -91t-7.5 -68q0 -28 11 -29q7 -3 16 -3q24 0 54 14t51 36q6 2 9 2q7 0 12 -5t5 -12q0 -5 -5 -12q-51 -42 -88 -58.5t-63 -16.5q-30 0 -43.5 19.5t-13.5 49.5q0 55 15 97.5t31 80.5zM180 383q8 -1 12.5 -6t4.5 -11
q0 -8 -10 -13t-25.5 -7.5t-34.5 -3.5t-38 -1t-40 1t-44 3q0 2 -0.5 4t-0.5 4q0 7 9 15q40 6 70.5 11t68.5 5q7 0 13.5 -0.5t14.5 -0.5z" />
    <glyph glyph-name="Ibreve" unicode="&#x12c;" horiz-adv-x="198" 
d="M141 592q2 9 6.5 13.5t9.5 4.5q17 0 17 -34q0 -17 -2.5 -38.5t-6 -43t-7 -41t-5.5 -32.5q-18 -117 -47 -228t-65 -223q-2 -7 -6.5 -10t-9.5 -3q-6 0 -10.5 5t-4.5 13v4q18 110 38 218t46 217q11 45 23.5 89t23.5 89zM128 710q0 15 13 15q5 0 8.5 -5t7.5 -11.5t9.5 -11.5
t13.5 -5q15 0 23 4.5t12.5 9.5t7.5 9.5t7 4.5q2 0 8.5 -1.5t6.5 -8.5l1 -1v-8q0 -12 -6.5 -22.5t-16 -18t-22 -12t-24.5 -4.5q-20 0 -35 12.5t-15 42.5q0 6 1 11z" />
    <glyph glyph-name="ibreve" unicode="&#x12d;" horiz-adv-x="207" 
d="M53 235q12 15 21 15q11 0 11 -19q-8 -49 -15.5 -91t-7.5 -68q0 -28 11 -29q7 -3 16 -3q24 0 54 14t51 36q6 2 9 2q7 0 12 -5t5 -12q0 -5 -5 -12q-51 -42 -88 -58.5t-63 -16.5q-30 0 -43.5 19.5t-13.5 49.5q0 55 15 97.5t31 80.5zM44 399q0 15 13 15q5 0 8.5 -5t7.5 -11.5
t9.5 -11.5t13.5 -5q15 0 23 4.5t12.5 9.5t7.5 9.5t7 4.5q2 0 8.5 -1.5t6.5 -8.5l1 -1v-8q0 -12 -6.5 -22.5t-16 -18t-22 -12t-24.5 -4.5q-20 0 -35 12.5t-15 42.5q0 6 1 11z" />
    <glyph glyph-name="Iogonek" unicode="&#x12e;" horiz-adv-x="198" 
d="M141 592q2 9 6.5 13.5t9.5 4.5q17 0 17 -34q0 -17 -2.5 -38.5t-6 -43t-7 -41t-5.5 -32.5q-18 -117 -47 -228t-65 -223q-2 -7 -6.5 -10t-9.5 -3q-6 0 -10.5 5t-4.5 13v4q18 110 38 218t46 217q11 45 23.5 89t23.5 89zM26 -19q13 0 13 -11q0 -6 -4 -10q-11 -11 -16.5 -32
t-5.5 -37q11 0 20 6t19 6q6 0 9.5 -3.5t3.5 -8.5q0 -2 -6 -9.5t-15 -15t-19 -13.5t-18 -6q-18 0 -29.5 12.5t-11.5 29.5q0 28 14 54.5t41 37.5h5z" />
    <glyph glyph-name="iogonek" unicode="&#x12f;" horiz-adv-x="207" 
d="M53 235q12 15 21 15q11 0 11 -19q-8 -49 -15.5 -91t-7.5 -68q0 -28 11 -29q7 -3 16 -3q24 0 54 14t51 36q6 2 9 2q7 0 12 -5t5 -12q0 -5 -5 -12q-51 -42 -88 -58.5t-63 -16.5q-30 0 -43.5 19.5t-13.5 49.5q0 55 15 97.5t31 80.5zM118 417q5 -8 5 -15q0 -9 -5.5 -15.5
t-13.5 -6.5t-14.5 7.5t-6.5 14.5q0 8 6 14t14 6q9 0 15 -5zM111 39q13 0 13 -11q0 -6 -4 -10q-11 -11 -16.5 -32t-5.5 -37q11 0 20 6t19 6q6 0 9.5 -3.5t3.5 -8.5q0 -2 -6 -9.5t-15 -15t-19 -13.5t-18 -6q-18 0 -29.5 12.5t-11.5 29.5q0 28 14 54.5t41 37.5h5z" />
    <glyph glyph-name="Idotaccent" unicode="&#x130;" horiz-adv-x="198" 
d="M141 592q2 9 6.5 13.5t9.5 4.5q17 0 17 -34q0 -17 -2.5 -38.5t-6 -43t-7 -41t-5.5 -32.5q-18 -117 -47 -228t-65 -223q-2 -7 -6.5 -10t-9.5 -3q-6 0 -10.5 5t-4.5 13v4q18 110 38 218t46 217q11 45 23.5 89t23.5 89zM196 687q6 -8 6 -17q0 -10 -6.5 -17.5t-16.5 -7.5
q-11 0 -18 8t-7 16q0 9 7.5 16.5t18.5 7.5q8 0 16 -6z" />
    <glyph glyph-name="dotlessi" unicode="&#x131;" horiz-adv-x="207" 
d="M53 235q12 15 21 15q11 0 11 -19q-8 -49 -15.5 -91t-7.5 -68q0 -28 11 -29q7 -3 16 -3q24 0 54 14t51 36q6 2 9 2q7 0 12 -5t5 -12q0 -5 -5 -12q-51 -42 -88 -58.5t-63 -16.5q-30 0 -43.5 19.5t-13.5 49.5q0 55 15 97.5t31 80.5z" />
    <glyph glyph-name="Jcircumflex" unicode="&#x134;" horiz-adv-x="476" 
d="M424 599q6 9 15 9q15 0 15 -19q-3 -13 -8 -55.5t-11 -100.5t-14 -124.5t-17.5 -127.5t-21.5 -109t-25 -70q-18 -28 -49 -40.5t-68 -12.5q-40 0 -82.5 13t-77.5 35t-57.5 51.5t-22.5 61.5q0 17 7 34.5t24 34.5q22 24 51.5 38t61 22.5t64.5 13.5t63 10q18 -2 18 -15
q0 -10 -11 -16q-27 -8 -54.5 -14.5t-54.5 -15t-52 -22t-46 -34.5q-7 -6 -9.5 -14t-2.5 -16q0 -21 14 -37q9 -11 28 -23.5t43 -23t49.5 -17t48.5 -6.5q20 0 36.5 6t24.5 22q24 41 41 105.5t30 140.5t24.5 158t25.5 158zM404 651q-7 -5 -12 -5q-11 0 -11 11q0 10 10 26t24 32
t29.5 28.5t27.5 15.5q20 0 26 -16.5t6 -35.5q0 -12 -1 -25t-1 -26q0 -5 1 -9t1 -9q0 -11 -13 -11q-9 0 -14.5 8t-8.5 19.5t-4 24t-1 21.5q-17 -12 -34.5 -26.5t-24.5 -22.5z" />
    <glyph glyph-name="jcircumflex" unicode="&#x135;" horiz-adv-x="280" 
d="M180 248q3 15 17 15q5 0 9 -3t6 -10q0 -27 1 -54t1 -54l69 47q2 0 4 0.5t4 0.5q16 0 16 -15q0 -6 -11 -17t-26 -23.5t-31 -24.5t-25 -21q-1 -21 -2 -41l-2 -40q-2 -30 -10 -77.5t-23.5 -93t-39 -78.5t-55.5 -33q-21 0 -36 15.5t-25 39.5t-14.5 51.5t-4.5 51.5
q0 32 9.5 59t30 53t52 53t75.5 60q1 19 3 42t4 43.5t3 35.5t1 18zM162 42l-7 -7q-15 -14 -32 -29t-30.5 -31.5t-22.5 -36t-9 -41.5q0 -23 6.5 -45.5t14.5 -45.5l4 -12l7 8l23 50q13 31 19 52.5t13 51.5zM154 340q-7 -5 -12 -5q-11 0 -11 11q0 10 10 26t24 32t29.5 28.5
t27.5 15.5q20 0 26 -16.5t6 -35.5q0 -12 -1 -25t-1 -26q0 -5 1 -9t1 -9q0 -11 -13 -11q-9 0 -14.5 8t-8.5 19.5t-4 24t-1 21.5q-17 -12 -34.5 -26.5t-24.5 -22.5z" />
    <glyph glyph-name="Kcommaaccent" unicode="&#x136;" horiz-adv-x="512" 
d="M466 511q7 5 12 5q7 0 11.5 -5t4.5 -12t-4 -12q-42 -43 -86.5 -81.5t-89.5 -77.5q5 2 19 3.5t29 1.5q29 0 47.5 -8.5t29 -21.5t14 -28t3.5 -28q0 -20 -5.5 -46.5t-12 -55.5t-12 -58t-5.5 -53q0 -25 8 -42t30 -33q8 -5 8 -16q0 -6 -3.5 -10.5t-11.5 -4.5q-3 0 -10.5 2.5
t-16 6.5t-17 9.5t-12.5 10.5q-12 17 -16.5 37.5t-4.5 42.5q0 27 3.5 50.5t7 45l7 43t3.5 45.5q0 15 -3.5 28t-12.5 24q-26 -1 -44.5 -5.5t-35 -12.5t-32.5 -19t-36 -24q2 2 5.5 3.5t5.5 3.5q3 2 5 3q-16 -10 -31 -19.5t-32 -18.5q-14 -35 -29.5 -70.5t-30.5 -70.5
q0 2 0.5 3.5t0.5 2.5t1 2q-5 -11 -11 -25.5t-8 -28.5q2 -3 2 -8t-3.5 -9.5t-11.5 -5.5q-2 0 -2 -1q-18 1 -18 21q0 33 13.5 69t24.5 68l10 30q-23 3 -25 31q3 25 22.5 44t39.5 35q8 23 14.5 46.5t13.5 47.5q4 13 9 31.5t10 38.5t8.5 41t3.5 39q0 11 -2 25.5t-11 14.5
q-15 0 -42 -22.5t-54 -56.5t-47 -73t-20 -73q0 -4 1.5 -8t7.5 -9t18 -12.5t32 -17.5q9 -8 9 -16q0 -6 -5.5 -10.5t-14.5 -4.5q-50 0 -69.5 22.5t-19.5 55.5q0 26 8.5 55t21.5 56.5t27 51t26 38.5q13 16 30 30.5t36 25t38 16.5t36 6q19 0 30.5 -7t17.5 -19t8 -27t2 -30
q0 -29 -6 -57.5t-11 -47.5q-5 -21 -10.5 -41.5t-12.5 -40.5q56 43 112.5 84t110.5 88zM125 43l-2 -4q-1 -1 -1 -2v1zM271 -19q9 -8 9 -20q0 -10 -4.5 -20.5t-10.5 -19.5t-11.5 -15t-7.5 -6q-1 0 -3 8q3 8 7 16.5t4 15.5q0 3 -3 5.5t-6.5 5t-6.5 6t-3 9.5q0 8 6 14.5t15 6.5
t15 -6z" />
    <glyph glyph-name="kcommaaccent" unicode="&#x137;" horiz-adv-x="364" 
d="M125 219q-24 -19 -49 -29l-3 -24l-2 -12q9 12 20.5 25.5t25 24.5t28 18.5t28.5 7.5q20 0 36.5 -12t16.5 -34q0 -34 -13.5 -58.5t-35.5 -50.5l-24 -27q17 4 37.5 9.5t40 11t35 9.5t22.5 6q8 0 13.5 -5t5.5 -12t-10 -15q-14 -3 -37.5 -11t-50.5 -16.5t-52.5 -15t-41.5 -6.5
q-14 0 -20 7t-6 15q0 13 13.5 30.5t30 37t30.5 39t14 36.5q0 3 -2 11q-6 0 -10 -4.5t-9 -8.5q-29 -24 -48 -57.5t-32 -68.5q-3 -8 -5.5 -18.5t-6.5 -19.5t-11.5 -15.5t-19.5 -6.5q-24 0 -29 30q0 70 7.5 146t21.5 148t34.5 136.5t47.5 113.5t59 77.5t70 28.5q23 0 42 -15.5
t32 -38.5t20 -49.5t7 -48.5q0 -11 -1 -19t-5 -13q-4 -38 -27 -74.5t-54.5 -70t-67.5 -62t-65 -50.5zM136 444q-10 -28 -18 -53t-14 -50.5t-11.5 -52t-10.5 -56.5q15 10 27 21q31 25 59.5 50t52 52.5t41 60t26.5 72.5q1 7 2 15t1 17q0 12 -2.5 25.5t-8 24.5t-14.5 18.5
t-23 7.5q-20 0 -38.5 -21t-32.5 -47.5t-23.5 -51t-12.5 -32.5zM123 -41q9 -8 9 -20q0 -10 -4.5 -20.5t-10.5 -19.5t-11.5 -15t-7.5 -6q-1 0 -3 8q3 8 7 16.5t4 15.5q0 3 -3 5.5t-6.5 5t-6.5 6t-3 9.5q0 8 6 14.5t15 6.5t15 -6z" />
    <glyph glyph-name="kgreenlandic" unicode="&#x138;" horiz-adv-x="364" 
d="M49 350l1 2q4 6 10.5 9.5t11.5 3.5q2 0 4 -0.5t4 -0.5l4 -2l9 -5q6 -6 6 -14q0 -16 -4 -42.5t-9 -55t-9.5 -53.5t-5.5 -38q9 12 20.5 25.5t25 24.5t28 18.5t28.5 7.5q20 0 36.5 -12t16.5 -34q0 -34 -13.5 -58.5t-35.5 -50.5l-24 -27q17 4 37.5 9.5t40 11t35 9.5t22.5 6
q8 0 13.5 -5t5.5 -12t-10 -15q-14 -3 -37.5 -11t-50.5 -16.5t-52.5 -15t-41.5 -6.5q-14 0 -20 7t-6 15q0 13 13.5 30.5t30 37t30.5 39t14 36.5q0 3 -0.5 7t-4.5 4q-14 0 -28 -14.5t-27 -35.5t-23.5 -45.5t-17.5 -43.5q-3 -8 -5.5 -18.5t-6.5 -19.5t-11.5 -15.5t-19.5 -6.5
q-24 0 -29 30q0 87 10.5 173.5t29.5 167.5z" />
    <glyph glyph-name="Lacute" unicode="&#x139;" horiz-adv-x="592" 
d="M147 399q-3 6 -3 9q0 7 5 12t12 5q3 0 11 -4q9 -9 31 -19t47.5 -18t51 -14t42.5 -8q7 38 16.5 74.5t24.5 71.5q7 15 18.5 33t26 33t32 25.5t36.5 10.5q15 0 29.5 -8t25 -21.5t17 -30t6.5 -34.5q0 -33 -16.5 -67.5t-42 -62.5t-57 -46t-61.5 -19q-5 -24 -8 -39t-6 -28
l-6 -26t-8 -34h-1q-1 0 -2 -5.5t-2.5 -13.5t-3 -16.5t-3.5 -14.5q-25 -99 -86 -149t-142 -50q-32 0 -56.5 11.5t-41 30.5t-25 42t-8.5 46q0 29 10 56.5t26.5 50.5t36 39t39.5 23q23 7 47 11t50 4q29 0 57.5 -6t51.5 -20q4 19 6.5 28.5t4 17t3.5 17t5 29.5q-18 3 -45 9.5
t-55 16t-52.5 21.5t-37.5 27zM290 134q5 12 8.5 24t7.5 25q-47 26 -95 26q-26 0 -53 -8.5t-48.5 -25t-35.5 -41t-14 -55.5q0 -37 24 -57t53 -20q23 0 46.5 11t44 29.5t37 42t25.5 49.5zM500 563q-21 -14 -36 -35t-25.5 -47.5t-17.5 -55.5t-13 -57q23 6 44 20t37.5 33t26 41
t9.5 45q0 29 -19 54zM336 223q40 -25 65 -71t39.5 -98t20 -102t5.5 -82v-1q-1 -2 -2 -6t-3 -4l-3 -3q-1 -1 -2.5 -1.5t-2.5 -1.5h-3q-1 0 -1 -0.5t-1 -0.5q-5 0 -10 4.5t-5 13.5q-10 79 -23.5 130t-28.5 84.5t-31.5 53.5t-32.5 37zM568 711q-15 -19 -23.5 -29t-15.5 -16
t-15.5 -10.5t-22.5 -13.5q-5 -5 -11 -5q-5 0 -8 3.5t-3 7.5t3 9q14 30 33.5 48t50.5 27q1 1 5 1q5 0 8.5 -3.5t3.5 -8.5t-5 -10z" />
    <glyph glyph-name="lacute" unicode="&#x13a;" horiz-adv-x="265" 
d="M235 482q-7 -35 -23 -83.5t-37.5 -97.5t-48.5 -92.5t-55 -67.5q1 -26 6 -51.5t28 -40.5q45 9 81 33.5t65 60.5q7 5 12 5q7 0 12 -4.5t5 -12.5q0 -4 -2 -8q-13 -19 -33 -40.5t-43.5 -39.5t-48.5 -29.5t-48 -11.5q-42 0 -67 46t-25 136q0 37 8 97.5t26.5 123t48.5 116.5
t74 79q13 8 24 8q28 0 38.5 -22t10.5 -46q0 -17 -2.5 -32t-5.5 -26zM120 415q-47 -108 -50 -224q14 20 24 42t19 45q10 24 22 56.5t23 67t18.5 69t7.5 61.5q-23 -25 -37 -55.5t-27 -61.5zM247 700q-15 -19 -23.5 -29t-15.5 -16t-15.5 -10.5t-22.5 -13.5q-5 -5 -11 -5
q-5 0 -8 3.5t-3 7.5t3 9q14 30 33.5 48t50.5 27q1 1 5 1q5 0 8.5 -3.5t3.5 -8.5t-5 -10z" />
    <glyph glyph-name="Lcommaaccent" unicode="&#x13b;" horiz-adv-x="592" 
d="M147 399q-3 6 -3 9q0 7 5 12t12 5q3 0 11 -4q9 -9 31 -19t47.5 -18t51 -14t42.5 -8q7 38 16.5 74.5t24.5 71.5q7 15 18.5 33t26 33t32 25.5t36.5 10.5q15 0 29.5 -8t25 -21.5t17 -30t6.5 -34.5q0 -33 -16.5 -67.5t-42 -62.5t-57 -46t-61.5 -19q-5 -24 -8 -39t-6 -28
l-6 -26t-8 -34h-1q-1 0 -2 -5.5t-2.5 -13.5t-3 -16.5t-3.5 -14.5q-25 -99 -86 -149t-142 -50q-32 0 -56.5 11.5t-41 30.5t-25 42t-8.5 46q0 29 10 56.5t26.5 50.5t36 39t39.5 23q23 7 47 11t50 4q29 0 57.5 -6t51.5 -20q4 19 6.5 28.5t4 17t3.5 17t5 29.5q-18 3 -45 9.5
t-55 16t-52.5 21.5t-37.5 27zM290 134q5 12 8.5 24t7.5 25q-47 26 -95 26q-26 0 -53 -8.5t-48.5 -25t-35.5 -41t-14 -55.5q0 -37 24 -57t53 -20q23 0 46.5 11t44 29.5t37 42t25.5 49.5zM500 563q-21 -14 -36 -35t-25.5 -47.5t-17.5 -55.5t-13 -57q23 6 44 20t37.5 33t26 41
t9.5 45q0 29 -19 54zM336 223q40 -25 65 -71t39.5 -98t20 -102t5.5 -82v-1q-1 -2 -2 -6t-3 -4l-3 -3q-1 -1 -2.5 -1.5t-2.5 -1.5h-3q-1 0 -1 -0.5t-1 -0.5q-5 0 -10 4.5t-5 13.5q-10 79 -23.5 130t-28.5 84.5t-31.5 53.5t-32.5 37zM239 -96q9 -8 9 -20q0 -10 -4.5 -20.5
t-10.5 -19.5t-11.5 -15t-7.5 -6q-1 0 -3 8q3 8 7 16.5t4 15.5q0 3 -3 5.5t-6.5 5t-6.5 6t-3 9.5q0 8 6 14.5t15 6.5t15 -6z" />
    <glyph glyph-name="lcommaaccent" unicode="&#x13c;" horiz-adv-x="265" 
d="M235 482q-7 -35 -23 -83.5t-37.5 -97.5t-48.5 -92.5t-55 -67.5q1 -26 6 -51.5t28 -40.5q45 9 81 33.5t65 60.5q7 5 12 5q7 0 12 -4.5t5 -12.5q0 -4 -2 -8q-13 -19 -33 -40.5t-43.5 -39.5t-48.5 -29.5t-48 -11.5q-42 0 -67 46t-25 136q0 37 8 97.5t26.5 123t48.5 116.5
t74 79q13 8 24 8q28 0 38.5 -22t10.5 -46q0 -17 -2.5 -32t-5.5 -26zM120 415q-47 -108 -50 -224q14 20 24 42t19 45q10 24 22 56.5t23 67t18.5 69t7.5 61.5q-23 -25 -37 -55.5t-27 -61.5zM104 -32q9 -8 9 -20q0 -10 -4.5 -20.5t-10.5 -19.5t-11.5 -15t-7.5 -6q-1 0 -3 8
q3 8 7 16.5t4 15.5q0 3 -3 5.5t-6.5 5t-6.5 6t-3 9.5q0 8 6 14.5t15 6.5t15 -6z" />
    <glyph glyph-name="Lcaron" unicode="&#x13d;" horiz-adv-x="592" 
d="M147 399q-3 6 -3 9q0 7 5 12t12 5q3 0 11 -4q9 -9 31 -19t47.5 -18t51 -14t42.5 -8q7 38 16.5 74.5t24.5 71.5q7 15 18.5 33t26 33t32 25.5t36.5 10.5q15 0 29.5 -8t25 -21.5t17 -30t6.5 -34.5q0 -33 -16.5 -67.5t-42 -62.5t-57 -46t-61.5 -19q-5 -24 -8 -39t-6 -28
l-6 -26t-8 -34h-1q-1 0 -2 -5.5t-2.5 -13.5t-3 -16.5t-3.5 -14.5q-25 -99 -86 -149t-142 -50q-32 0 -56.5 11.5t-41 30.5t-25 42t-8.5 46q0 29 10 56.5t26.5 50.5t36 39t39.5 23q23 7 47 11t50 4q29 0 57.5 -6t51.5 -20q4 19 6.5 28.5t4 17t3.5 17t5 29.5q-18 3 -45 9.5
t-55 16t-52.5 21.5t-37.5 27zM290 134q5 12 8.5 24t7.5 25q-47 26 -95 26q-26 0 -53 -8.5t-48.5 -25t-35.5 -41t-14 -55.5q0 -37 24 -57t53 -20q23 0 46.5 11t44 29.5t37 42t25.5 49.5zM500 563q-21 -14 -36 -35t-25.5 -47.5t-17.5 -55.5t-13 -57q23 6 44 20t37.5 33t26 41
t9.5 45q0 29 -19 54zM336 223q40 -25 65 -71t39.5 -98t20 -102t5.5 -82v-1q-1 -2 -2 -6t-3 -4l-3 -3q-1 -1 -2.5 -1.5t-2.5 -1.5h-3q-1 0 -1 -0.5t-1 -0.5q-5 0 -10 4.5t-5 13.5q-10 79 -23.5 130t-28.5 84.5t-31.5 53.5t-32.5 37zM588 739q5 5 10 5q12 0 12 -12
q0 -9 -9.5 -25t-24 -32t-30 -28.5t-27.5 -15.5q-12 0 -19 6.5t-10.5 17t-5 23t-1.5 25.5q0 14 1.5 26t3.5 18q-1 1 -1 5q0 11 13 11q2 0 3 -0.5t3 -0.5q9 -31 12 -46t10 -26q7 1 16.5 7.5t18 14.5t15.5 15.5t10 11.5z" />
    <glyph glyph-name="lcaron" unicode="&#x13e;" horiz-adv-x="265" 
d="M235 482q-7 -35 -23 -83.5t-37.5 -97.5t-48.5 -92.5t-55 -67.5q1 -26 6 -51.5t28 -40.5q45 9 81 33.5t65 60.5q7 5 12 5q7 0 12 -4.5t5 -12.5q0 -4 -2 -8q-13 -19 -33 -40.5t-43.5 -39.5t-48.5 -29.5t-48 -11.5q-42 0 -67 46t-25 136q0 37 8 97.5t26.5 123t48.5 116.5
t74 79q13 8 24 8q28 0 38.5 -22t10.5 -46q0 -17 -2.5 -32t-5.5 -26zM120 415q-47 -108 -50 -224q14 20 24 42t19 45q10 24 22 56.5t23 67t18.5 69t7.5 61.5q-23 -25 -37 -55.5t-27 -61.5zM268 432q9 -8 9 -20q0 -10 -4.5 -20.5t-10.5 -19.5t-11.5 -15t-7.5 -6q-1 0 -3 8
q3 8 7 16.5t4 15.5q0 3 -3 5.5t-6.5 5t-6.5 6t-3 9.5q0 8 6 14.5t15 6.5t15 -6z" />
    <glyph glyph-name="Ldot" unicode="&#x13f;" horiz-adv-x="592" 
d="M147 399q-3 6 -3 9q0 7 5 12t12 5q3 0 11 -4q9 -9 31 -19t47.5 -18t51 -14t42.5 -8q7 38 16.5 74.5t24.5 71.5q7 15 18.5 33t26 33t32 25.5t36.5 10.5q15 0 29.5 -8t25 -21.5t17 -30t6.5 -34.5q0 -33 -16.5 -67.5t-42 -62.5t-57 -46t-61.5 -19q-5 -24 -8 -39t-6 -28
l-6 -26t-8 -34h-1q-1 0 -2 -5.5t-2.5 -13.5t-3 -16.5t-3.5 -14.5q-25 -99 -86 -149t-142 -50q-32 0 -56.5 11.5t-41 30.5t-25 42t-8.5 46q0 29 10 56.5t26.5 50.5t36 39t39.5 23q23 7 47 11t50 4q29 0 57.5 -6t51.5 -20q4 19 6.5 28.5t4 17t3.5 17t5 29.5q-18 3 -45 9.5
t-55 16t-52.5 21.5t-37.5 27zM290 134q5 12 8.5 24t7.5 25q-47 26 -95 26q-26 0 -53 -8.5t-48.5 -25t-35.5 -41t-14 -55.5q0 -37 24 -57t53 -20q23 0 46.5 11t44 29.5t37 42t25.5 49.5zM500 563q-21 -14 -36 -35t-25.5 -47.5t-17.5 -55.5t-13 -57q23 6 44 20t37.5 33t26 41
t9.5 45q0 29 -19 54zM336 223q40 -25 65 -71t39.5 -98t20 -102t5.5 -82v-1q-1 -2 -2 -6t-3 -4l-3 -3q-1 -1 -2.5 -1.5t-2.5 -1.5h-3q-1 0 -1 -0.5t-1 -0.5q-5 0 -10 4.5t-5 13.5q-10 79 -23.5 130t-28.5 84.5t-31.5 53.5t-32.5 37zM457 252q5 -6 5 -16q0 -8 -5.5 -14.5
t-13.5 -6.5t-14.5 7t-6.5 14q0 8 6 14.5t14 6.5q7 0 15 -5z" />
    <glyph glyph-name="ldot" unicode="&#x140;" horiz-adv-x="375" 
d="M235 482q-7 -35 -23 -83.5t-37.5 -97.5t-48.5 -92.5t-55 -67.5q1 -26 6 -51.5t28 -40.5q45 9 81 33.5t65 60.5q7 5 12 5q7 0 12 -4.5t5 -12.5q0 -4 -2 -8q-13 -19 -33 -40.5t-43.5 -39.5t-48.5 -29.5t-48 -11.5q-42 0 -67 46t-25 136q0 37 8 97.5t26.5 123t48.5 116.5
t74 79q13 8 24 8q28 0 38.5 -22t10.5 -46q0 -17 -2.5 -32t-5.5 -26zM120 415q-47 -108 -50 -224q14 20 24 42t19 45q10 24 22 56.5t23 67t18.5 69t7.5 61.5q-23 -25 -37 -55.5t-27 -61.5zM219 247q5 -6 5 -16q0 -8 -5.5 -14.5t-13.5 -6.5t-14.5 7t-6.5 14q0 8 6 14.5t14 6.5
q7 0 15 -5z" />
    <glyph glyph-name="Lslash" unicode="&#x141;" horiz-adv-x="592" 
d="M444 253q-16 -20 -48.5 -43t-66 -43t-59 -33t-27.5 -13q-12 0 -12 11q0 7 12.5 20.5t32 29.5t43.5 33t46.5 30.5t41.5 22t29 8.5q6 0 9.5 -3.5t3.5 -8.5q0 -4 -5 -11zM147 399q-3 6 -3 9q0 7 5 12t12 5q3 0 11 -4q9 -9 31 -19t47.5 -18t51 -14t42.5 -8q7 38 16.5 74.5
t24.5 71.5q7 15 18.5 33t26 33t32 25.5t36.5 10.5q15 0 29.5 -8t25 -21.5t17 -30t6.5 -34.5q0 -33 -16.5 -67.5t-42 -62.5t-57 -46t-61.5 -19q-5 -24 -8 -39t-6 -28l-6 -26t-8 -34h-1q-1 0 -2 -5.5t-2.5 -13.5t-3 -16.5t-3.5 -14.5q-25 -99 -86 -149t-142 -50
q-32 0 -56.5 11.5t-41 30.5t-25 42t-8.5 46q0 29 10 56.5t26.5 50.5t36 39t39.5 23q23 7 47 11t50 4q29 0 57.5 -6t51.5 -20q4 19 6.5 28.5t4 17t3.5 17t5 29.5q-18 3 -45 9.5t-55 16t-52.5 21.5t-37.5 27zM290 134q5 12 8.5 24t7.5 25q-47 26 -95 26q-26 0 -53 -8.5
t-48.5 -25t-35.5 -41t-14 -55.5q0 -37 24 -57t53 -20q23 0 46.5 11t44 29.5t37 42t25.5 49.5zM500 563q-21 -14 -36 -35t-25.5 -47.5t-17.5 -55.5t-13 -57q23 6 44 20t37.5 33t26 41t9.5 45q0 29 -19 54zM336 223q40 -25 65 -71t39.5 -98t20 -102t5.5 -82v-1q-1 -2 -2 -6
t-3 -4l-3 -3q-1 -1 -2.5 -1.5t-2.5 -1.5h-3q-1 0 -1 -0.5t-1 -0.5q-5 0 -10 4.5t-5 13.5q-10 79 -23.5 130t-28.5 84.5t-31.5 53.5t-32.5 37z" />
    <glyph glyph-name="lslash" unicode="&#x142;" horiz-adv-x="265" 
d="M254 408q-12 -15 -36.5 -34.5t-53.5 -39t-59.5 -38.5t-55.5 -33.5t-40.5 -23.5t-14.5 -9q-5 0 -8 3.5t-3 8.5q0 4 3 9q5 10 24.5 27.5t46 37.5t57.5 40.5t58.5 36.5t48 26.5t26.5 10.5q12 0 12 -11q0 -4 -5 -11zM235 482q-7 -35 -23 -83.5t-37.5 -97.5t-48.5 -92.5
t-55 -67.5q1 -26 6 -51.5t28 -40.5q45 9 81 33.5t65 60.5q7 5 12 5q7 0 12 -4.5t5 -12.5q0 -4 -2 -8q-13 -19 -33 -40.5t-43.5 -39.5t-48.5 -29.5t-48 -11.5q-42 0 -67 46t-25 136q0 37 8 97.5t26.5 123t48.5 116.5t74 79q13 8 24 8q28 0 38.5 -22t10.5 -46q0 -17 -2.5 -32
t-5.5 -26zM120 415q-47 -108 -50 -224q14 20 24 42t19 45q10 24 22 56.5t23 67t18.5 69t7.5 61.5q-23 -25 -37 -55.5t-27 -61.5z" />
    <glyph glyph-name="Nacute" unicode="&#x143;" horiz-adv-x="476" 
d="M52 250q4 -4 4 -11t-5 -12t-13 -5q-10 0 -17.5 7t-12 17.5t-7 22t-2.5 20.5q0 27 7 62t20 71.5t30.5 71t39 62t46 44t50.5 16.5q25 0 34.5 -20.5t9.5 -56.5q0 -29 -4.5 -61.5t-10.5 -62t-11.5 -52.5t-7.5 -32q5 18 28 46.5t52.5 55.5t61.5 46.5t55 19.5q13 0 21 -9
t12.5 -22.5t5.5 -30t1 -30.5q0 -40 -7.5 -80.5t-17 -82.5t-17 -84t-7.5 -85q0 -27 7 -38.5t24 -11.5q11 0 28 5t40 13q2 0 4.5 0.5t4.5 0.5q15 0 15 -14q0 -11 -14 -18t-31.5 -11t-33 -6t-19.5 -2q-40 0 -51.5 28t-11.5 72v19.5t1 20.5q1 16 6 44.5t10.5 62t10 67.5t4.5 61
q0 23 -5 38t-17 15q-14 0 -35 -20q-26 -24 -50 -57t-45 -69.5t-38.5 -74t-30.5 -69.5q-16 -38 -29 -77t-27 -77l-4 -7q-5 -10 -13.5 -14t-16.5 -4q-11 0 -20 8t-10 24q9 65 25 117t33.5 101.5t34.5 101.5t29 118q2 11 5 26t6 30.5t5 30.5t2 27q0 13 -3 21t-10 8
q-14 0 -36.5 -26.5t-44 -66.5t-37 -87.5t-15.5 -89.5q0 -31 15 -45zM393 651q-15 -19 -23.5 -29t-15.5 -16t-15.5 -10.5t-22.5 -13.5q-5 -5 -11 -5q-5 0 -8 3.5t-3 7.5t3 9q14 30 33.5 48t50.5 27q1 1 5 1q5 0 8.5 -3.5t3.5 -8.5t-5 -10z" />
    <glyph glyph-name="nacute" unicode="&#x144;" horiz-adv-x="278" 
d="M78 246l2 -24t1 -24q0 -3 -0.5 -6.5t-0.5 -7.5q7 13 19 32.5t25.5 37.5t27 31t23.5 13q24 0 34 -13t10 -25q0 -43 -8 -84.5t-8 -83.5q0 -11 0.5 -22t2.5 -22l16 -12l55 17q6 2 8 2q17 0 17 -16q0 -7 -10.5 -15t-24.5 -14.5t-28.5 -10.5t-22.5 -4q-28 0 -48.5 29t-20.5 82
q0 21 2 41t4 34q-19 -25 -34 -53t-29 -56q-5 -9 -10 -21.5t-11.5 -23.5t-15.5 -18.5t-21 -7.5q-11 0 -18 7t-9 21q0 18 4 38.5t9.5 41t11.5 39.5t10 36v1q1 9 1.5 21.5t2 24t5 19.5t12.5 8q13 0 16 -12h1zM36 167l3 10zM188 407q-15 -19 -23.5 -29t-15.5 -16t-15.5 -10.5
t-22.5 -13.5q-5 -5 -11 -5q-5 0 -8 3.5t-3 7.5t3 9q14 30 33.5 48t50.5 27q1 1 5 1q5 0 8.5 -3.5t3.5 -8.5t-5 -10z" />
    <glyph glyph-name="Ncommaaccent" unicode="&#x145;" horiz-adv-x="476" 
d="M52 250q4 -4 4 -11t-5 -12t-13 -5q-10 0 -17.5 7t-12 17.5t-7 22t-2.5 20.5q0 27 7 62t20 71.5t30.5 71t39 62t46 44t50.5 16.5q25 0 34.5 -20.5t9.5 -56.5q0 -29 -4.5 -61.5t-10.5 -62t-11.5 -52.5t-7.5 -32q5 18 28 46.5t52.5 55.5t61.5 46.5t55 19.5q13 0 21 -9
t12.5 -22.5t5.5 -30t1 -30.5q0 -40 -7.5 -80.5t-17 -82.5t-17 -84t-7.5 -85q0 -27 7 -38.5t24 -11.5q11 0 28 5t40 13q2 0 4.5 0.5t4.5 0.5q15 0 15 -14q0 -11 -14 -18t-31.5 -11t-33 -6t-19.5 -2q-40 0 -51.5 28t-11.5 72v19.5t1 20.5q1 16 6 44.5t10.5 62t10 67.5t4.5 61
q0 23 -5 38t-17 15q-14 0 -35 -20q-26 -24 -50 -57t-45 -69.5t-38.5 -74t-30.5 -69.5q-16 -38 -29 -77t-27 -77l-4 -7q-5 -10 -13.5 -14t-16.5 -4q-11 0 -20 8t-10 24q9 65 25 117t33.5 101.5t34.5 101.5t29 118q2 11 5 26t6 30.5t5 30.5t2 27q0 13 -3 21t-10 8
q-14 0 -36.5 -26.5t-44 -66.5t-37 -87.5t-15.5 -89.5q0 -31 15 -45zM261 6q9 -8 9 -20q0 -10 -4.5 -20.5t-10.5 -19.5t-11.5 -15t-7.5 -6q-1 0 -3 8q3 8 7 16.5t4 15.5q0 3 -3 5.5t-6.5 5t-6.5 6t-3 9.5q0 8 6 14.5t15 6.5t15 -6z" />
    <glyph glyph-name="ncommaaccent" unicode="&#x146;" horiz-adv-x="278" 
d="M78 246l2 -24t1 -24q0 -3 -0.5 -6.5t-0.5 -7.5q7 13 19 32.5t25.5 37.5t27 31t23.5 13q24 0 34 -13t10 -25q0 -43 -8 -84.5t-8 -83.5q0 -11 0.5 -22t2.5 -22l16 -12l55 17q6 2 8 2q17 0 17 -16q0 -7 -10.5 -15t-24.5 -14.5t-28.5 -10.5t-22.5 -4q-28 0 -48.5 29t-20.5 82
q0 21 2 41t4 34q-19 -25 -34 -53t-29 -56q-5 -9 -10 -21.5t-11.5 -23.5t-15.5 -18.5t-21 -7.5q-11 0 -18 7t-9 21q0 18 4 38.5t9.5 41t11.5 39.5t10 36v1q1 9 1.5 21.5t2 24t5 19.5t12.5 8q13 0 16 -12h1zM36 167l3 10zM123 -23q9 -8 9 -20q0 -10 -4.5 -20.5t-10.5 -19.5
t-11.5 -15t-7.5 -6q-1 0 -3 8q3 8 7 16.5t4 15.5q0 3 -3 5.5t-6.5 5t-6.5 6t-3 9.5q0 8 6 14.5t15 6.5t15 -6z" />
    <glyph glyph-name="Ncaron" unicode="&#x147;" horiz-adv-x="476" 
d="M52 250q4 -4 4 -11t-5 -12t-13 -5q-10 0 -17.5 7t-12 17.5t-7 22t-2.5 20.5q0 27 7 62t20 71.5t30.5 71t39 62t46 44t50.5 16.5q25 0 34.5 -20.5t9.5 -56.5q0 -29 -4.5 -61.5t-10.5 -62t-11.5 -52.5t-7.5 -32q5 18 28 46.5t52.5 55.5t61.5 46.5t55 19.5q13 0 21 -9
t12.5 -22.5t5.5 -30t1 -30.5q0 -40 -7.5 -80.5t-17 -82.5t-17 -84t-7.5 -85q0 -27 7 -38.5t24 -11.5q11 0 28 5t40 13q2 0 4.5 0.5t4.5 0.5q15 0 15 -14q0 -11 -14 -18t-31.5 -11t-33 -6t-19.5 -2q-40 0 -51.5 28t-11.5 72v19.5t1 20.5q1 16 6 44.5t10.5 62t10 67.5t4.5 61
q0 23 -5 38t-17 15q-14 0 -35 -20q-26 -24 -50 -57t-45 -69.5t-38.5 -74t-30.5 -69.5q-16 -38 -29 -77t-27 -77l-4 -7q-5 -10 -13.5 -14t-16.5 -4q-11 0 -20 8t-10 24q9 65 25 117t33.5 101.5t34.5 101.5t29 118q2 11 5 26t6 30.5t5 30.5t2 27q0 13 -3 21t-10 8
q-14 0 -36.5 -26.5t-44 -66.5t-37 -87.5t-15.5 -89.5q0 -31 15 -45zM403 645q5 5 10 5q12 0 12 -12q0 -9 -9.5 -25t-24 -32t-30 -28.5t-27.5 -15.5q-12 0 -19 6.5t-10.5 17t-5 23t-1.5 25.5q0 14 1.5 26t3.5 18q-1 1 -1 5q0 11 13 11q2 0 3 -0.5t3 -0.5q9 -31 12 -46t10 -26
q7 1 16.5 7.5t18 14.5t15.5 15.5t10 11.5z" />
    <glyph glyph-name="ncaron" unicode="&#x148;" horiz-adv-x="278" 
d="M78 246l2 -24t1 -24q0 -3 -0.5 -6.5t-0.5 -7.5q7 13 19 32.5t25.5 37.5t27 31t23.5 13q24 0 34 -13t10 -25q0 -43 -8 -84.5t-8 -83.5q0 -11 0.5 -22t2.5 -22l16 -12l55 17q6 2 8 2q17 0 17 -16q0 -7 -10.5 -15t-24.5 -14.5t-28.5 -10.5t-22.5 -4q-28 0 -48.5 29t-20.5 82
q0 21 2 41t4 34q-19 -25 -34 -53t-29 -56q-5 -9 -10 -21.5t-11.5 -23.5t-15.5 -18.5t-21 -7.5q-11 0 -18 7t-9 21q0 18 4 38.5t9.5 41t11.5 39.5t10 36v1q1 9 1.5 21.5t2 24t5 19.5t12.5 8q13 0 16 -12h1zM36 167l3 10zM216 453q5 5 10 5q12 0 12 -12q0 -9 -9.5 -25t-24 -32
t-30 -28.5t-27.5 -15.5q-12 0 -19 6.5t-10.5 17t-5 23t-1.5 25.5q0 14 1.5 26t3.5 18q-1 1 -1 5q0 11 13 11q2 0 3 -0.5t3 -0.5q9 -31 12 -46t10 -26q7 1 16.5 7.5t18 14.5t15.5 15.5t10 11.5z" />
    <glyph glyph-name="napostrophe" unicode="&#x149;" horiz-adv-x="278" 
d="M78 246l2 -24t1 -24q0 -3 -0.5 -6.5t-0.5 -7.5q7 13 19 32.5t25.5 37.5t27 31t23.5 13q24 0 34 -13t10 -25q0 -43 -8 -84.5t-8 -83.5q0 -11 0.5 -22t2.5 -22l16 -12l55 17q6 2 8 2q17 0 17 -16q0 -7 -10.5 -15t-24.5 -14.5t-28.5 -10.5t-22.5 -4q-28 0 -48.5 29t-20.5 82
q0 21 2 41t4 34q-19 -25 -34 -53t-29 -56q-5 -9 -10 -21.5t-11.5 -23.5t-15.5 -18.5t-21 -7.5q-11 0 -18 7t-9 21q0 18 4 38.5t9.5 41t11.5 39.5t10 36v1q1 9 1.5 21.5t2 24t5 19.5t12.5 8q13 0 16 -12h1zM36 167l3 10zM26 355q9 -8 9 -20q0 -10 -4.5 -20.5t-10.5 -19.5
t-11.5 -15t-7.5 -6q-1 0 -3 8q3 8 7 16.5t4 15.5q0 3 -3 5.5t-6.5 5t-6.5 6t-3 9.5q0 8 6 14.5t15 6.5t15 -6z" />
    <glyph glyph-name="Eng" unicode="&#x14a;" horiz-adv-x="464" 
d="M52 250q4 -4 4 -11t-5 -12t-13 -5q-10 0 -17.5 7t-12 17.5t-7 22t-2.5 20.5q0 27 7 62t20 71.5t30.5 71t39 62t46 44t50.5 16.5q25 0 34.5 -20.5t9.5 -56.5q0 -29 -4.5 -61.5t-10.5 -62t-11.5 -52.5t-7.5 -32q5 18 28 46.5t52.5 55.5t61.5 46.5t55 19.5q25 0 32 -26.5
t7 -83.5q0 -44 -4.5 -100t-13.5 -113.5t-22.5 -112.5t-31.5 -98t-41 -69t-50 -26q-28 0 -28 17q0 6 4.5 10.5t14.5 4.5h8q15 0 29 17t25.5 46t21 67t16 79.5t10 84t3.5 80.5q0 57 -8.5 94.5t-26.5 37.5q-9 0 -17 -7q-26 -24 -50 -57t-45 -69.5t-38.5 -74t-30.5 -69.5
q-16 -38 -29 -77t-27 -77l-4 -7q-5 -10 -13.5 -14t-16.5 -4q-11 0 -20 8t-10 24q9 65 25 117t33.5 101.5t34.5 101.5t29 118q2 11 5 26t6 30.5t5 30.5t2 27q0 13 -3 21t-10 8q-14 0 -36.5 -26.5t-44 -66.5t-37 -87.5t-15.5 -89.5q0 -31 15 -45z" />
    <glyph glyph-name="eng" unicode="&#x14b;" horiz-adv-x="257" 
d="M78 246l2 -24t1 -24q0 -3 -0.5 -6.5t-0.5 -7.5q7 13 19 32.5t25.5 37.5t27 31t23.5 13q19 0 28.5 -8.5t13.5 -26.5t4.5 -47t0.5 -70q0 -42 -2.5 -88.5t-9.5 -85.5t-19.5 -64.5t-32.5 -25.5q-4 0 -11.5 2.5t-15 7t-13 11t-5.5 14.5t11 8q2 0 12 -2q11 0 19 13t13 34t7 48
t2 55q0 22 -1.5 42.5t-3.5 36.5t-6 25.5t-8 9.5q-2 0 -5 -6q-19 -25 -34 -53t-29 -56q-5 -9 -10 -21.5t-11.5 -23.5t-15.5 -18.5t-21 -7.5q-11 0 -18 7t-9 21q0 18 4 38.5t9.5 41t11.5 39.5t10 36v1q1 9 1.5 21.5t2 24t5 19.5t12.5 8q13 0 16 -12h1zM36 167l3 10z" />
    <glyph glyph-name="Omacron" unicode="&#x14c;" horiz-adv-x="536" 
d="M125 500q19 23 41.5 43t48 35t52.5 24t54 9q42 0 76.5 -21.5t60 -57.5t39.5 -83.5t14 -98.5q0 -63 -15.5 -122.5t-39.5 -104.5q-15 -33 -42 -64t-61.5 -55.5t-74.5 -39t-81 -14.5q-56 0 -94 18.5t-61.5 47.5t-33.5 66t-10 75q0 46 11.5 95t29.5 95t40.5 85.5t45.5 67.5z
M267 244q-33 0 -61.5 9t-49 25.5t-32.5 41t-12 56.5q0 12 1 24t5 26q-15 -29 -26.5 -61t-20 -65t-13 -65.5t-4.5 -60.5q0 -32 6.5 -61.5t22 -52t41 -36t63.5 -13.5q64 0 113 32t82 82t50 110.5t17 117.5q0 31 -5.5 62t-19 57.5t-35 47.5t-53.5 32q-6 2 -11.5 3t-12.5 1
q-27 0 -52 -19.5t-44 -48t-30.5 -61t-11.5 -58.5q0 -29 10.5 -46t26 -26t35 -13.5t37.5 -7.5q14 -4 14 -15q0 -17 -21 -17h-9zM408 694q8 -1 12.5 -6t4.5 -11q0 -8 -10 -13t-25.5 -7.5t-34.5 -3.5t-38 -1t-40 1t-44 3q0 2 -0.5 4t-0.5 4q0 7 9 15q40 6 70.5 11t68.5 5
q7 0 13.5 -0.5t14.5 -0.5z" />
    <glyph glyph-name="omacron" unicode="&#x14d;" horiz-adv-x="282" 
d="M117 234q0 -1 1 -2q44 20 92.5 34t94.5 25q19 0 19 -16q0 -9 -10 -15q-32 -13 -63 -26.5t-62 -28.5q9 -15 9 -34q0 -15 -7 -38.5t-19.5 -46.5t-31.5 -42.5t-43 -28.5q-10 -4 -21.5 -4t-23.5 -2q-17 2 -31.5 21.5t-14.5 46.5q0 21 9.5 51.5t23.5 59t29.5 49t28.5 20.5
q9 0 15 -9l5 -13v-1zM109 173q-17 9 -20 23q-14 -29 -19 -61.5t-5 -63.5q16 2 29 16.5t22 31.5t14.5 32t5.5 17v2q-6 2 -14 1.5t-13 1.5zM218 383q8 -1 12.5 -6t4.5 -11q0 -8 -10 -13t-25.5 -7.5t-34.5 -3.5t-38 -1t-40 1t-44 3q0 2 -0.5 4t-0.5 4q0 7 9 15q40 6 70.5 11
t68.5 5q7 0 13.5 -0.5t14.5 -0.5z" />
    <glyph glyph-name="Obreve" unicode="&#x14e;" horiz-adv-x="536" 
d="M125 500q19 23 41.5 43t48 35t52.5 24t54 9q42 0 76.5 -21.5t60 -57.5t39.5 -83.5t14 -98.5q0 -63 -15.5 -122.5t-39.5 -104.5q-15 -33 -42 -64t-61.5 -55.5t-74.5 -39t-81 -14.5q-56 0 -94 18.5t-61.5 47.5t-33.5 66t-10 75q0 46 11.5 95t29.5 95t40.5 85.5t45.5 67.5z
M267 244q-33 0 -61.5 9t-49 25.5t-32.5 41t-12 56.5q0 12 1 24t5 26q-15 -29 -26.5 -61t-20 -65t-13 -65.5t-4.5 -60.5q0 -32 6.5 -61.5t22 -52t41 -36t63.5 -13.5q64 0 113 32t82 82t50 110.5t17 117.5q0 31 -5.5 62t-19 57.5t-35 47.5t-53.5 32q-6 2 -11.5 3t-12.5 1
q-27 0 -52 -19.5t-44 -48t-30.5 -61t-11.5 -58.5q0 -29 10.5 -46t26 -26t35 -13.5t37.5 -7.5q14 -4 14 -15q0 -17 -21 -17h-9zM298 711q0 15 13 15q5 0 8.5 -5t7.5 -11.5t9.5 -11.5t13.5 -5q15 0 23 4.5t12.5 9.5t7.5 9.5t7 4.5q2 0 8.5 -1.5t6.5 -8.5l1 -1v-8
q0 -12 -6.5 -22.5t-16 -18t-22 -12t-24.5 -4.5q-20 0 -35 12.5t-15 42.5q0 6 1 11z" />
    <glyph glyph-name="obreve" unicode="&#x14f;" horiz-adv-x="282" 
d="M117 234q0 -1 1 -2q44 20 92.5 34t94.5 25q19 0 19 -16q0 -9 -10 -15q-32 -13 -63 -26.5t-62 -28.5q9 -15 9 -34q0 -15 -7 -38.5t-19.5 -46.5t-31.5 -42.5t-43 -28.5q-10 -4 -21.5 -4t-23.5 -2q-17 2 -31.5 21.5t-14.5 46.5q0 21 9.5 51.5t23.5 59t29.5 49t28.5 20.5
q9 0 15 -9l5 -13v-1zM109 173q-17 9 -20 23q-14 -29 -19 -61.5t-5 -63.5q16 2 29 16.5t22 31.5t14.5 32t5.5 17v2q-6 2 -14 1.5t-13 1.5zM81 399q0 15 13 15q5 0 8.5 -5t7.5 -11.5t9.5 -11.5t13.5 -5q15 0 23 4.5t12.5 9.5t7.5 9.5t7 4.5q2 0 8.5 -1.5t6.5 -8.5l1 -1v-8
q0 -12 -6.5 -22.5t-16 -18t-22 -12t-24.5 -4.5q-20 0 -35 12.5t-15 42.5q0 6 1 11z" />
    <glyph glyph-name="Ohungarumlaut" unicode="&#x150;" horiz-adv-x="536" 
d="M125 500q19 23 41.5 43t48 35t52.5 24t54 9q42 0 76.5 -21.5t60 -57.5t39.5 -83.5t14 -98.5q0 -63 -15.5 -122.5t-39.5 -104.5q-15 -33 -42 -64t-61.5 -55.5t-74.5 -39t-81 -14.5q-56 0 -94 18.5t-61.5 47.5t-33.5 66t-10 75q0 46 11.5 95t29.5 95t40.5 85.5t45.5 67.5z
M267 244q-33 0 -61.5 9t-49 25.5t-32.5 41t-12 56.5q0 12 1 24t5 26q-15 -29 -26.5 -61t-20 -65t-13 -65.5t-4.5 -60.5q0 -32 6.5 -61.5t22 -52t41 -36t63.5 -13.5q64 0 113 32t82 82t50 110.5t17 117.5q0 31 -5.5 62t-19 57.5t-35 47.5t-53.5 32q-6 2 -11.5 3t-12.5 1
q-27 0 -52 -19.5t-44 -48t-30.5 -61t-11.5 -58.5q0 -29 10.5 -46t26 -26t35 -13.5t37.5 -7.5q14 -4 14 -15q0 -17 -21 -17h-9zM357 718q-15 -19 -23.5 -29t-15.5 -16t-15.5 -10.5t-22.5 -13.5q-5 -5 -11 -5q-5 0 -8 3.5t-3 7.5t3 9q14 30 33.5 48t50.5 27q1 1 5 1
q5 0 8.5 -3.5t3.5 -8.5t-5 -10zM438 718q-15 -19 -23.5 -29t-16 -16t-16 -10.5t-22.5 -13.5q-5 -5 -10 -5t-8.5 3.5t-3.5 7.5q0 5 4 9q14 30 33 48t50 27q2 1 5 1q6 0 9 -3.5t3 -8.5q0 -6 -4 -10zM357 718q-15 -19 -23.5 -29t-15.5 -16t-15.5 -10.5t-22.5 -13.5
q-5 -5 -11 -5q-5 0 -8 3.5t-3 7.5t3 9q14 30 33.5 48t50.5 27q1 1 5 1q5 0 8.5 -3.5t3.5 -8.5t-5 -10z" />
    <glyph glyph-name="ohungarumlaut" unicode="&#x151;" horiz-adv-x="282" 
d="M117 234q0 -1 1 -2q44 20 92.5 34t94.5 25q19 0 19 -16q0 -9 -10 -15q-32 -13 -63 -26.5t-62 -28.5q9 -15 9 -34q0 -15 -7 -38.5t-19.5 -46.5t-31.5 -42.5t-43 -28.5q-10 -4 -21.5 -4t-23.5 -2q-17 2 -31.5 21.5t-14.5 46.5q0 21 9.5 51.5t23.5 59t29.5 49t28.5 20.5
q9 0 15 -9l5 -13v-1zM109 173q-17 9 -20 23q-14 -29 -19 -61.5t-5 -63.5q16 2 29 16.5t22 31.5t14.5 32t5.5 17v2q-6 2 -14 1.5t-13 1.5zM178 407q-15 -19 -23.5 -29t-15.5 -16t-15.5 -10.5t-22.5 -13.5q-5 -5 -11 -5q-5 0 -8 3.5t-3 7.5t3 9q14 30 33.5 48t50.5 27q1 1 5 1
q5 0 8.5 -3.5t3.5 -8.5t-5 -10zM259 407q-15 -19 -23.5 -29t-16 -16t-16 -10.5t-22.5 -13.5q-5 -5 -10 -5t-8.5 3.5t-3.5 7.5q0 5 4 9q14 30 33 48t50 27q2 1 5 1q6 0 9 -3.5t3 -8.5q0 -6 -4 -10zM178 407q-15 -19 -23.5 -29t-15.5 -16t-15.5 -10.5t-22.5 -13.5
q-5 -5 -11 -5q-5 0 -8 3.5t-3 7.5t3 9q14 30 33.5 48t50.5 27q1 1 5 1q5 0 8.5 -3.5t3.5 -8.5t-5 -10z" />
    <glyph glyph-name="OE" unicode="&#x152;" horiz-adv-x="624" 
d="M318 -17q-29 -16 -59 -24.5t-62 -8.5q-56 0 -94 18.5t-61.5 47.5t-33.5 66t-10 75q0 46 11.5 95t29.5 95t40.5 85.5t45.5 67.5q19 23 41.5 43t48 35t52.5 24t54 9q29 0 58 -12t56 -39l-51 -35q-14 11 -33.5 21t-38.5 10q-27 0 -52 -19.5t-44 -48t-30.5 -61t-11.5 -58.5
q0 -29 10.5 -46t26 -26t35 -13.5t37.5 -7.5q14 -4 14 -15t-8 -14t-22 -3q-33 0 -61.5 9t-49 25.5t-32.5 41t-12 56.5q0 12 1 24t5 26q-15 -29 -26.5 -61t-20 -65t-13 -65.5t-4.5 -60.5q0 -32 6.5 -61.5t22.5 -52t41.5 -36t64.5 -13.5q54 0 100 26zM584 608q9 0 14 -7t5 -15
q0 -6 -3.5 -12t-11.5 -7q-25 -2 -51.5 -6t-52 -12.5t-47.5 -22t-38 -35.5q-9 -14 -9 -27q0 -20 11.5 -33t29 -20t37 -9.5t35.5 -2.5q4 0 7.5 0.5t7.5 0.5q17 0 26.5 -10.5t9.5 -21.5q0 -8 -3 -15q-34 -23 -76.5 -48.5t-80 -56.5t-63 -70t-25.5 -90q0 -27 7 -44.5t19 -28.5
t28 -15.5t34 -4.5q20 0 42 5t43 12t40 15.5t33 15.5q2 0 4.5 0.5t4.5 0.5q8 0 12 -4.5t4 -10.5q0 -10 -10 -16q-42 -26 -93 -43.5t-99 -17.5q-26 0 -49.5 7.5t-40.5 24t-27 43.5t-10 66q0 43 15 80.5t39 70t55 59.5t63 49l1 1q-17 6 -32.5 16.5t-27.5 24t-19 29.5t-7 33
q0 24 13 45.5t32.5 39t43.5 30.5t46 20q29 10 56.5 13t57.5 4z" />
    <glyph glyph-name="oe" unicode="&#x153;" horiz-adv-x="418" 
d="M117 234q0 -1 1 -2q44 20 92.5 34t94.5 25q19 0 19 -16q0 -9 -10 -15q-32 -13 -63 -26.5t-62 -28.5q9 -15 9 -34q0 -15 -7 -38.5t-19.5 -46.5t-31.5 -42.5t-43 -28.5q-10 -4 -21.5 -4t-23.5 -2q-17 2 -31.5 21.5t-14.5 46.5q0 21 9.5 51.5t23.5 59t29.5 49t28.5 20.5
q9 0 15 -9l5 -13v-1zM109 173q-17 9 -20 23q-14 -29 -19 -61.5t-5 -63.5q16 2 29 16.5t22 31.5t14.5 32t5.5 17v2q-6 2 -14 1.5t-13 1.5zM352 219q-10 -21 -21.5 -42t-26 -39t-32 -31.5t-39.5 -19.5q0 -21 6 -41.5t25 -20.5q5 0 10.5 1t12.5 6q6 3 17.5 11t25 18.5t26 23
t18.5 25.5q3 7 9 7q7 0 13 -6t6 -14q0 -7 -12 -22t-27.5 -31t-32 -30t-25.5 -18q-3 -1 -17.5 -9t-24.5 -8q-22 0 -38 9t-26.5 24t-15.5 34.5t-5 40.5q-6 3 -6 11q0 7 5 12q0 12 1 24.5t5 25.5q6 21 16.5 50t26.5 55.5t38 45t50 18.5t38 -18.5t10 -42.5q0 -14 -2.5 -27.5
t-7.5 -21.5zM304 261q-10 -8 -20 -23.5t-18 -33.5t-15 -37t-11 -35q12 11 30 42l10 17.5t11 23t9 24.5t4 22z" />
    <glyph glyph-name="Racute" unicode="&#x154;" horiz-adv-x="579" 
d="M86 249q9 -6 9 -15q0 -16 -20 -16q-22 0 -37 7.5t-24 20t-12.5 28.5t-3.5 33q0 39 12 79.5t33 78t49 70t61 55.5q14 10 27.5 14t27.5 4q20 0 38 -9.5t31 -24t20.5 -32.5t7.5 -34q0 -8 -1 -11q34 20 68 29.5t64 9.5q52 0 87 -28t35 -86q0 -30 -14 -58t-36.5 -53t-50.5 -48
t-55 -42t-51 -34.5t-39 -26.5l-10 -6q21 -18 46 -32.5t51.5 -27.5t52 -24.5t47.5 -22.5q9 -6 9 -14q0 -7 -4.5 -12t-12.5 -5q-6 0 -9 2q-44 14 -92 40.5t-94 51.5q-6 3 -13 7t-13.5 9.5t-11.5 12t-5 14.5q0 10 5 17.5t12 13t15.5 10t16.5 9.5q31 20 65.5 46t63 55.5t47 60.5
t18.5 61q0 24 -15 40.5t-48 16.5q-36 0 -62.5 -14.5t-45.5 -37t-32 -50t-23 -54.5q-17 -45 -35 -104.5t-35.5 -120.5t-34 -118t-30.5 -96q-1 1 -2 1v-1q-12 -15 -28 -15q-12 0 -21 9.5t-9 24.5v9q16 63 36.5 123.5t40.5 122.5q16 64 37 119l10 35q6 19 11.5 42.5t10 48
t8 49.5t3.5 47q0 27 -7.5 37t-26.5 10q-24 0 -47 -18.5t-42.5 -45.5t-34.5 -57t-24 -53q-5 -13 -10.5 -33.5t-5.5 -40.5q0 -22 9.5 -37.5t36.5 -15.5h6v0zM466 650q-15 -19 -23.5 -29t-15.5 -16t-15.5 -10.5t-22.5 -13.5q-5 -5 -11 -5q-5 0 -8 3.5t-3 7.5t3 9q14 30 33.5 48
t50.5 27q1 1 5 1q5 0 8.5 -3.5t3.5 -8.5t-5 -10z" />
    <glyph glyph-name="racute" unicode="&#x155;" horiz-adv-x="298" 
d="M21 63q-1 0 -1.5 -0.5t-2.5 -0.5q-8 0 -12.5 5.5t-4.5 12.5q0 9 7 15q9 16 23.5 46t29.5 62t29 60.5t22 41.5q8 8 19 8q9 0 20 -6q20 -27 34 -46.5t23 -36t13 -32t4 -33.5q0 -22 -5.5 -49t-13.5 -69q24 5 47 14l46 18q4 2 8 2q8 0 12 -5t4 -11q0 -8 -15 -18.5
t-35.5 -21.5t-42.5 -20.5t-35 -14.5h-10q-18 0 -28.5 17.5t-10.5 32.5q0 17 5 34t7 34q3 22 3 40q0 27 -7 50t-24 50q-4 -6 -12 -20.5t-17.5 -33.5t-20.5 -39.5t-21.5 -38.5t-20 -31t-16.5 -16zM197 407q-15 -19 -23.5 -29t-15.5 -16t-15.5 -10.5t-22.5 -13.5q-5 -5 -11 -5
q-5 0 -8 3.5t-3 7.5t3 9q14 30 33.5 48t50.5 27q1 1 5 1q5 0 8.5 -3.5t3.5 -8.5t-5 -10z" />
    <glyph glyph-name="Rcommaaccent" unicode="&#x156;" horiz-adv-x="579" 
d="M86 249q9 -6 9 -15q0 -16 -20 -16q-22 0 -37 7.5t-24 20t-12.5 28.5t-3.5 33q0 39 12 79.5t33 78t49 70t61 55.5q14 10 27.5 14t27.5 4q20 0 38 -9.5t31 -24t20.5 -32.5t7.5 -34q0 -8 -1 -11q34 20 68 29.5t64 9.5q52 0 87 -28t35 -86q0 -30 -14 -58t-36.5 -53t-50.5 -48
t-55 -42t-51 -34.5t-39 -26.5l-10 -6q21 -18 46 -32.5t51.5 -27.5t52 -24.5t47.5 -22.5q9 -6 9 -14q0 -7 -4.5 -12t-12.5 -5q-6 0 -9 2q-44 14 -92 40.5t-94 51.5q-6 3 -13 7t-13.5 9.5t-11.5 12t-5 14.5q0 10 5 17.5t12 13t15.5 10t16.5 9.5q31 20 65.5 46t63 55.5t47 60.5
t18.5 61q0 24 -15 40.5t-48 16.5q-36 0 -62.5 -14.5t-45.5 -37t-32 -50t-23 -54.5q-17 -45 -35 -104.5t-35.5 -120.5t-34 -118t-30.5 -96q-1 1 -2 1v-1q-12 -15 -28 -15q-12 0 -21 9.5t-9 24.5v9q16 63 36.5 123.5t40.5 122.5q16 64 37 119l10 35q6 19 11.5 42.5t10 48
t8 49.5t3.5 47q0 27 -7.5 37t-26.5 10q-24 0 -47 -18.5t-42.5 -45.5t-34.5 -57t-24 -53q-5 -13 -10.5 -33.5t-5.5 -40.5q0 -22 9.5 -37.5t36.5 -15.5h6v0zM303 -13q9 -8 9 -20q0 -10 -4.5 -20.5t-10.5 -19.5t-11.5 -15t-7.5 -6q-1 0 -3 8q3 8 7 16.5t4 15.5q0 3 -3 5.5
t-6.5 5t-6.5 6t-3 9.5q0 8 6 14.5t15 6.5t15 -6z" />
    <glyph glyph-name="rcommaaccent" unicode="&#x157;" horiz-adv-x="298" 
d="M21 63q-1 0 -1.5 -0.5t-2.5 -0.5q-8 0 -12.5 5.5t-4.5 12.5q0 9 7 15q9 16 23.5 46t29.5 62t29 60.5t22 41.5q8 8 19 8q9 0 20 -6q20 -27 34 -46.5t23 -36t13 -32t4 -33.5q0 -22 -5.5 -49t-13.5 -69q24 5 47 14l46 18q4 2 8 2q8 0 12 -5t4 -11q0 -8 -15 -18.5
t-35.5 -21.5t-42.5 -20.5t-35 -14.5h-10q-18 0 -28.5 17.5t-10.5 32.5q0 17 5 34t7 34q3 22 3 40q0 27 -7 50t-24 50q-4 -6 -12 -20.5t-17.5 -33.5t-20.5 -39.5t-21.5 -38.5t-20 -31t-16.5 -16zM82 -9q9 -8 9 -20q0 -10 -4.5 -20.5t-10.5 -19.5t-11.5 -15t-7.5 -6q-1 0 -3 8
q3 8 7 16.5t4 15.5q0 3 -3 5.5t-6.5 5t-6.5 6t-3 9.5q0 8 6 14.5t15 6.5t15 -6z" />
    <glyph glyph-name="Rcaron" unicode="&#x158;" horiz-adv-x="579" 
d="M86 249q9 -6 9 -15q0 -16 -20 -16q-22 0 -37 7.5t-24 20t-12.5 28.5t-3.5 33q0 39 12 79.5t33 78t49 70t61 55.5q14 10 27.5 14t27.5 4q20 0 38 -9.5t31 -24t20.5 -32.5t7.5 -34q0 -8 -1 -11q34 20 68 29.5t64 9.5q52 0 87 -28t35 -86q0 -30 -14 -58t-36.5 -53t-50.5 -48
t-55 -42t-51 -34.5t-39 -26.5l-10 -6q21 -18 46 -32.5t51.5 -27.5t52 -24.5t47.5 -22.5q9 -6 9 -14q0 -7 -4.5 -12t-12.5 -5q-6 0 -9 2q-44 14 -92 40.5t-94 51.5q-6 3 -13 7t-13.5 9.5t-11.5 12t-5 14.5q0 10 5 17.5t12 13t15.5 10t16.5 9.5q31 20 65.5 46t63 55.5t47 60.5
t18.5 61q0 24 -15 40.5t-48 16.5q-36 0 -62.5 -14.5t-45.5 -37t-32 -50t-23 -54.5q-17 -45 -35 -104.5t-35.5 -120.5t-34 -118t-30.5 -96q-1 1 -2 1v-1q-12 -15 -28 -15q-12 0 -21 9.5t-9 24.5v9q16 63 36.5 123.5t40.5 122.5q16 64 37 119l10 35q6 19 11.5 42.5t10 48
t8 49.5t3.5 47q0 27 -7.5 37t-26.5 10q-24 0 -47 -18.5t-42.5 -45.5t-34.5 -57t-24 -53q-5 -13 -10.5 -33.5t-5.5 -40.5q0 -22 9.5 -37.5t36.5 -15.5h6v0zM483 671q5 5 10 5q12 0 12 -12q0 -9 -9.5 -25t-24 -32t-30 -28.5t-27.5 -15.5q-12 0 -19 6.5t-10.5 17t-5 23
t-1.5 25.5q0 14 1.5 26t3.5 18q-1 1 -1 5q0 11 13 11q2 0 3 -0.5t3 -0.5q9 -31 12 -46t10 -26q7 1 16.5 7.5t18 14.5t15.5 15.5t10 11.5z" />
    <glyph glyph-name="rcaron" unicode="&#x159;" horiz-adv-x="298" 
d="M21 63q-1 0 -1.5 -0.5t-2.5 -0.5q-8 0 -12.5 5.5t-4.5 12.5q0 9 7 15q9 16 23.5 46t29.5 62t29 60.5t22 41.5q8 8 19 8q9 0 20 -6q20 -27 34 -46.5t23 -36t13 -32t4 -33.5q0 -22 -5.5 -49t-13.5 -69q24 5 47 14l46 18q4 2 8 2q8 0 12 -5t4 -11q0 -8 -15 -18.5
t-35.5 -21.5t-42.5 -20.5t-35 -14.5h-10q-18 0 -28.5 17.5t-10.5 32.5q0 17 5 34t7 34q3 22 3 40q0 27 -7 50t-24 50q-4 -6 -12 -20.5t-17.5 -33.5t-20.5 -39.5t-21.5 -38.5t-20 -31t-16.5 -16zM255 432q5 5 10 5q12 0 12 -12q0 -9 -9.5 -25t-24 -32t-30 -28.5t-27.5 -15.5
q-12 0 -19 6.5t-10.5 17t-5 23t-1.5 25.5q0 14 1.5 26t3.5 18q-1 1 -1 5q0 11 13 11q2 0 3 -0.5t3 -0.5q9 -31 12 -46t10 -26q7 1 16.5 7.5t18 14.5t15.5 15.5t10 11.5z" />
    <glyph glyph-name="Sacute" unicode="&#x15a;" horiz-adv-x="497" 
d="M406 581q9 -8 9 -16q0 -16 -21 -16q-13 6 -21.5 10t-16 6.5t-15.5 4t-21 1.5q-17 0 -38 -7.5t-40 -20t-32.5 -29.5t-14.5 -35q0 -21 13.5 -41t34.5 -40.5t47 -42.5t51.5 -47t47 -54t33.5 -64q38 -11 72 -23.5t62 -23.5q9 -6 9 -16q0 -15 -21 -15q-26 9 -53 17t-53 16
q0 -8 1.5 -17.5t1.5 -17.5q0 -46 -20.5 -78.5t-55 -53t-79 -30t-92.5 -9.5q-40 0 -75 8.5t-61.5 25t-41.5 41.5t-15 58q0 38 16 68.5t43 51.5t62.5 32t74.5 11q31 0 64 -5.5t75 -14.5q-8 19 -26 40.5t-40 43.5t-45 45.5t-42.5 47.5t-31.5 48.5t-12 49.5q0 24 13 45t35 37.5
t49.5 26t56.5 9.5q56 0 113 -27zM341 34q20 13 28 32.5t8 40.5q0 14 -3.5 28.5t-8.5 27.5l-30 6q-28 5 -58 8.5t-61 3.5q-16 0 -43 -4t-53 -15t-45 -30t-19 -50q0 -24 12 -41t31.5 -27.5t43.5 -15t48 -4.5q43 0 83.5 11.5t66.5 28.5zM363 718q-15 -19 -23.5 -29t-15.5 -16
t-15.5 -10.5t-22.5 -13.5q-5 -5 -11 -5q-5 0 -8 3.5t-3 7.5t3 9q14 30 33.5 48t50.5 27q1 1 5 1q5 0 8.5 -3.5t3.5 -8.5t-5 -10z" />
    <glyph glyph-name="sacute" unicode="&#x15b;" horiz-adv-x="300" 
d="M32 115q-6 -8 -14 -8q-7 0 -11.5 5t-4.5 13v5q12 27 32 56.5t41 56.5t39 50t26 38q0 10 11.5 14t15.5 4q12 0 19.5 -8t7.5 -24q-14 -50 -14 -99q0 -26 5 -50t12 -50q28 14 55.5 26t54.5 24q6 2 9 2q8 0 12 -5t4 -11q0 -7 -14 -17t-33.5 -20.5t-41.5 -21.5t-38 -21
q0 -32 -9.5 -54.5t-24 -36.5t-31.5 -20t-32 -6q-23 0 -38 12.5t-15 32.5q0 12 9.5 25t23 25t27 21t22.5 14q-6 36 -11 68t-5 63q-24 -24 -48 -49t-41 -54zM216 452q-15 -19 -23.5 -29t-15.5 -16t-15.5 -10.5t-22.5 -13.5q-5 -5 -11 -5q-5 0 -8 3.5t-3 7.5t3 9q14 30 33.5 48
t50.5 27q1 1 5 1q5 0 8.5 -3.5t3.5 -8.5t-5 -10z" />
    <glyph glyph-name="Scircumflex" unicode="&#x15c;" horiz-adv-x="497" 
d="M406 581q9 -8 9 -16q0 -16 -21 -16q-13 6 -21.5 10t-16 6.5t-15.5 4t-21 1.5q-17 0 -38 -7.5t-40 -20t-32.5 -29.5t-14.5 -35q0 -21 13.5 -41t34.5 -40.5t47 -42.5t51.5 -47t47 -54t33.5 -64q38 -11 72 -23.5t62 -23.5q9 -6 9 -16q0 -15 -21 -15q-26 9 -53 17t-53 16
q0 -8 1.5 -17.5t1.5 -17.5q0 -46 -20.5 -78.5t-55 -53t-79 -30t-92.5 -9.5q-40 0 -75 8.5t-61.5 25t-41.5 41.5t-15 58q0 38 16 68.5t43 51.5t62.5 32t74.5 11q31 0 64 -5.5t75 -14.5q-8 19 -26 40.5t-40 43.5t-45 45.5t-42.5 47.5t-31.5 48.5t-12 49.5q0 24 13 45t35 37.5
t49.5 26t56.5 9.5q56 0 113 -27zM341 34q20 13 28 32.5t8 40.5q0 14 -3.5 28.5t-8.5 27.5l-30 6q-28 5 -58 8.5t-61 3.5q-16 0 -43 -4t-53 -15t-45 -30t-19 -50q0 -24 12 -41t31.5 -27.5t43.5 -15t48 -4.5q43 0 83.5 11.5t66.5 28.5zM290 654q-7 -5 -12 -5q-11 0 -11 11
q0 10 10 26t24 32t29.5 28.5t27.5 15.5q20 0 26 -16.5t6 -35.5q0 -12 -1 -25t-1 -26q0 -5 1 -9t1 -9q0 -11 -13 -11q-9 0 -14.5 8t-8.5 19.5t-4 24t-1 21.5q-17 -12 -34.5 -26.5t-24.5 -22.5z" />
    <glyph glyph-name="scircumflex" unicode="&#x15d;" horiz-adv-x="300" 
d="M32 115q-6 -8 -14 -8q-7 0 -11.5 5t-4.5 13v5q12 27 32 56.5t41 56.5t39 50t26 38q0 10 11.5 14t15.5 4q12 0 19.5 -8t7.5 -24q-14 -50 -14 -99q0 -26 5 -50t12 -50q28 14 55.5 26t54.5 24q6 2 9 2q8 0 12 -5t4 -11q0 -7 -14 -17t-33.5 -20.5t-41.5 -21.5t-38 -21
q0 -32 -9.5 -54.5t-24 -36.5t-31.5 -20t-32 -6q-23 0 -38 12.5t-15 32.5q0 12 9.5 25t23 25t27 21t22.5 14q-6 36 -11 68t-5 63q-24 -24 -48 -49t-41 -54zM143 388q-7 -5 -12 -5q-11 0 -11 11q0 10 10 26t24 32t29.5 28.5t27.5 15.5q20 0 26 -16.5t6 -35.5q0 -12 -1 -25
t-1 -26q0 -5 1 -9t1 -9q0 -11 -13 -11q-9 0 -14.5 8t-8.5 19.5t-4 24t-1 21.5q-17 -12 -34.5 -26.5t-24.5 -22.5z" />
    <glyph glyph-name="Scedilla" unicode="&#x15e;" horiz-adv-x="497" 
d="M406 581q9 -8 9 -16q0 -16 -21 -16q-13 6 -21.5 10t-16 6.5t-15.5 4t-21 1.5q-17 0 -38 -7.5t-40 -20t-32.5 -29.5t-14.5 -35q0 -21 13.5 -41t34.5 -40.5t47 -42.5t51.5 -47t47 -54t33.5 -64q38 -11 72 -23.5t62 -23.5q9 -6 9 -16q0 -15 -21 -15q-26 9 -53 17t-53 16
q0 -8 1.5 -17.5t1.5 -17.5q0 -46 -20.5 -78.5t-55 -53t-79 -30t-92.5 -9.5q-40 0 -75 8.5t-61.5 25t-41.5 41.5t-15 58q0 38 16 68.5t43 51.5t62.5 32t74.5 11q31 0 64 -5.5t75 -14.5q-8 19 -26 40.5t-40 43.5t-45 45.5t-42.5 47.5t-31.5 48.5t-12 49.5q0 24 13 45t35 37.5
t49.5 26t56.5 9.5q56 0 113 -27zM341 34q20 13 28 32.5t8 40.5q0 14 -3.5 28.5t-8.5 27.5l-30 6q-28 5 -58 8.5t-61 3.5q-16 0 -43 -4t-53 -15t-45 -30t-19 -50q0 -24 12 -41t31.5 -27.5t43.5 -15t48 -4.5q43 0 83.5 11.5t66.5 28.5zM220 -44q5 4 10 4q12 0 12 -13
q0 -8 -6.5 -22t-6.5 -18l1 -1q1 0 1 1l1 2q-3 -6 -3 -17q7 4 14.5 8t15.5 4q15 0 22.5 -10.5t7.5 -18.5q0 -9 -6 -19.5t-14.5 -18.5t-18.5 -13.5t-18 -5.5q-12 0 -12 14q0 4 3 10.5t10 6.5q-4 -2 -14 -2q-18 0 -26 10t-8 21q0 23 12 44.5t23 33.5zM234 -80v1v-2
q0 -1 -0.5 -2t-0.5 -2q0 2 0.5 3t0.5 2zM233 -85q0 -2 -0.5 -3t-0.5 -3q0 2 0.5 3.5t0.5 2.5z" />
    <glyph glyph-name="scedilla" unicode="&#x15f;" horiz-adv-x="300" 
d="M32 115q-6 -8 -14 -8q-7 0 -11.5 5t-4.5 13v5q12 27 32 56.5t41 56.5t39 50t26 38q0 10 11.5 14t15.5 4q12 0 19.5 -8t7.5 -24q-14 -50 -14 -99q0 -26 5 -50t12 -50q28 14 55.5 26t54.5 24q6 2 9 2q8 0 12 -5t4 -11q0 -7 -14 -17t-33.5 -20.5t-41.5 -21.5t-38 -21
q0 -32 -9.5 -54.5t-24 -36.5t-31.5 -20t-32 -6q-23 0 -38 12.5t-15 32.5q0 12 9.5 25t23 25t27 21t22.5 14q-6 36 -11 68t-5 63q-24 -24 -48 -49t-41 -54zM103 -24q5 4 10 4q12 0 12 -13q0 -8 -6.5 -22t-6.5 -18l1 -1q1 0 1 1l1 2q-3 -6 -3 -17q7 4 14.5 8t15.5 4
q15 0 22.5 -10.5t7.5 -18.5q0 -9 -6 -19.5t-14.5 -18.5t-18.5 -13.5t-18 -5.5q-12 0 -12 14q0 4 3 10.5t10 6.5q-4 -2 -14 -2q-18 0 -26 10t-8 21q0 23 12 44.5t23 33.5zM117 -60v1v-2q0 -1 -0.5 -2t-0.5 -2q0 2 0.5 3t0.5 2zM116 -65q0 -2 -0.5 -3t-0.5 -3q0 2 0.5 3.5
t0.5 2.5z" />
    <glyph glyph-name="Scaron" unicode="&#x160;" horiz-adv-x="497" 
d="M406 581q9 -8 9 -16q0 -16 -21 -16q-13 6 -21.5 10t-16 6.5t-15.5 4t-21 1.5q-17 0 -38 -7.5t-40 -20t-32.5 -29.5t-14.5 -35q0 -21 13.5 -41t34.5 -40.5t47 -42.5t51.5 -47t47 -54t33.5 -64q38 -11 72 -23.5t62 -23.5q9 -6 9 -16q0 -15 -21 -15q-26 9 -53 17t-53 16
q0 -8 1.5 -17.5t1.5 -17.5q0 -46 -20.5 -78.5t-55 -53t-79 -30t-92.5 -9.5q-40 0 -75 8.5t-61.5 25t-41.5 41.5t-15 58q0 38 16 68.5t43 51.5t62.5 32t74.5 11q31 0 64 -5.5t75 -14.5q-8 19 -26 40.5t-40 43.5t-45 45.5t-42.5 47.5t-31.5 48.5t-12 49.5q0 24 13 45t35 37.5
t49.5 26t56.5 9.5q56 0 113 -27zM341 34q20 13 28 32.5t8 40.5q0 14 -3.5 28.5t-8.5 27.5l-30 6q-28 5 -58 8.5t-61 3.5q-16 0 -43 -4t-53 -15t-45 -30t-19 -50q0 -24 12 -41t31.5 -27.5t43.5 -15t48 -4.5q43 0 83.5 11.5t66.5 28.5zM387 738q5 5 10 5q12 0 12 -12
q0 -9 -9.5 -25t-24 -32t-30 -28.5t-27.5 -15.5q-12 0 -19 6.5t-10.5 17t-5 23t-1.5 25.5q0 14 1.5 26t3.5 18q-1 1 -1 5q0 11 13 11q2 0 3 -0.5t3 -0.5q9 -31 12 -46t10 -26q7 1 16.5 7.5t18 14.5t15.5 15.5t10 11.5z" />
    <glyph glyph-name="scaron" unicode="&#x161;" horiz-adv-x="300" 
d="M32 115q-6 -8 -14 -8q-7 0 -11.5 5t-4.5 13v5q12 27 32 56.5t41 56.5t39 50t26 38q0 10 11.5 14t15.5 4q12 0 19.5 -8t7.5 -24q-14 -50 -14 -99q0 -26 5 -50t12 -50q28 14 55.5 26t54.5 24q6 2 9 2q8 0 12 -5t4 -11q0 -7 -14 -17t-33.5 -20.5t-41.5 -21.5t-38 -21
q0 -32 -9.5 -54.5t-24 -36.5t-31.5 -20t-32 -6q-23 0 -38 12.5t-15 32.5q0 12 9.5 25t23 25t27 21t22.5 14q-6 36 -11 68t-5 63q-24 -24 -48 -49t-41 -54zM246 478q5 5 10 5q12 0 12 -12q0 -9 -9.5 -25t-24 -32t-30 -28.5t-27.5 -15.5q-12 0 -19 6.5t-10.5 17t-5 23
t-1.5 25.5q0 14 1.5 26t3.5 18q-1 1 -1 5q0 11 13 11q2 0 3 -0.5t3 -0.5q9 -31 12 -46t10 -26q7 1 16.5 7.5t18 14.5t15.5 15.5t10 11.5z" />
    <glyph glyph-name="Tcommaaccent" unicode="&#x162;" horiz-adv-x="663" 
d="M425 508q0 -5 -2.5 -9t-4.5 -6l-28 -210q-9 -87 -33 -174q-8 -26 -18.5 -52.5t-27.5 -48t-42.5 -35.5t-61.5 -14q-29 0 -58.5 11t-53 28.5t-38 40.5t-14.5 47q0 26 17.5 46.5t42.5 35t52.5 23.5t47.5 12q27 5 53 8t52 3h16l31 157l-18 -7q-21 -10 -48.5 -21.5t-57.5 -21
t-61 -16t-59 -6.5q-45 0 -76.5 21.5t-33.5 77.5q0 41 21 72.5t56.5 54.5t82 38.5t97.5 25t103 13.5t99 4q38 0 68.5 -2t50.5 -6q19 -4 40 -9.5t30 -18.5v-3q-2 -7 -11 -8.5t-21 -1.5q-20 0 -34 1t-25.5 2t-22 2t-23.5 1q-72 0 -146 -10.5t-146 -32.5q-22 -6 -49.5 -16.5
t-52 -26t-41 -36.5t-16.5 -49q0 -23 17 -29t38 -6q51 0 105 12.5t102 31.5l41 16q3 13 6 31t7.5 34.5t11 29.5t15.5 16q9 0 13.5 -3t7.5 -14v-3zM281 75q13 24 21.5 50.5t14.5 54.5q-25 -2 -52.5 -5.5t-54.5 -10t-52 -17.5t-45 -26q-11 -9 -11 -24q0 -17 10 -30.5t25 -23
t32.5 -15t31.5 -5.5q23 0 44.5 12t35.5 40zM209 -73q9 -8 9 -20q0 -10 -4.5 -20.5t-10.5 -19.5t-11.5 -15t-7.5 -6q-1 0 -3 8q3 8 7 16.5t4 15.5q0 3 -3 5.5t-6.5 5t-6.5 6t-3 9.5q0 8 6 14.5t15 6.5t15 -6z" />
    <glyph glyph-name="tcommaaccent" unicode="&#x163;" horiz-adv-x="322" 
d="M74 150q3 33 7.5 64.5t11.5 63.5q-36 -8 -51.5 -14t-23.5 -6q-12 0 -12 16q0 15 19.5 28.5t45.5 24.5q16 14 25 25.5t15 24t10 27.5t10 36q3 9 7.5 29.5t12 41.5t18.5 37t27 16t16 -15q0 -8 -3 -22.5t-8.5 -37.5t-13 -56.5t-16.5 -79.5q10 0 19 0.5t18 0.5h26.5t30 -1.5
t24.5 -5.5t10 -13t-17.5 -15t-41 -11t-47.5 -9.5t-37 -9.5q-11 -48 -19 -102.5t-8 -102.5q0 -6 0.5 -16t1 -20.5t2 -18t4.5 -7.5q11 0 45.5 32.5t73.5 93.5q5 5 12 5t12 -4.5t5 -11.5q0 -5 -5 -12q-14 -27 -33.5 -56t-40.5 -52t-42 -38t-39 -15q-17 0 -27.5 12t-17 29t-9 36
t-2.5 34q0 20 1.5 39t3.5 36zM129 -70q9 -8 9 -20q0 -10 -4.5 -20.5t-10.5 -19.5t-11.5 -15t-7.5 -6q-1 0 -3 8q3 8 7 16.5t4 15.5q0 3 -3 5.5t-6.5 5t-6.5 6t-3 9.5q0 8 6 14.5t15 6.5t15 -6z" />
    <glyph glyph-name="Tcaron" unicode="&#x164;" horiz-adv-x="663" 
d="M425 508q0 -5 -2.5 -9t-4.5 -6l-28 -210q-9 -87 -33 -174q-8 -26 -18.5 -52.5t-27.5 -48t-42.5 -35.5t-61.5 -14q-29 0 -58.5 11t-53 28.5t-38 40.5t-14.5 47q0 26 17.5 46.5t42.5 35t52.5 23.5t47.5 12q27 5 53 8t52 3h16l31 157l-18 -7q-21 -10 -48.5 -21.5t-57.5 -21
t-61 -16t-59 -6.5q-45 0 -76.5 21.5t-33.5 77.5q0 41 21 72.5t56.5 54.5t82 38.5t97.5 25t103 13.5t99 4q38 0 68.5 -2t50.5 -6q19 -4 40 -9.5t30 -18.5v-3q-2 -7 -11 -8.5t-21 -1.5q-20 0 -34 1t-25.5 2t-22 2t-23.5 1q-72 0 -146 -10.5t-146 -32.5q-22 -6 -49.5 -16.5
t-52 -26t-41 -36.5t-16.5 -49q0 -23 17 -29t38 -6q51 0 105 12.5t102 31.5l41 16q3 13 6 31t7.5 34.5t11 29.5t15.5 16q9 0 13.5 -3t7.5 -14v-3zM281 75q13 24 21.5 50.5t14.5 54.5q-25 -2 -52.5 -5.5t-54.5 -10t-52 -17.5t-45 -26q-11 -9 -11 -24q0 -17 10 -30.5t25 -23
t32.5 -15t31.5 -5.5q23 0 44.5 12t35.5 40zM474 754q5 5 10 5q12 0 12 -12q0 -9 -9.5 -25t-24 -32t-30 -28.5t-27.5 -15.5q-12 0 -19 6.5t-10.5 17t-5 23t-1.5 25.5q0 14 1.5 26t3.5 18q-1 1 -1 5q0 11 13 11q2 0 3 -0.5t3 -0.5q9 -31 12 -46t10 -26q7 1 16.5 7.5t18 14.5
t15.5 15.5t10 11.5z" />
    <glyph glyph-name="tcaron" unicode="&#x165;" horiz-adv-x="322" 
d="M74 150q3 33 7.5 64.5t11.5 63.5q-36 -8 -51.5 -14t-23.5 -6q-12 0 -12 16q0 15 19.5 28.5t45.5 24.5q16 14 25 25.5t15 24t10 27.5t10 36q3 9 7.5 29.5t12 41.5t18.5 37t27 16t16 -15q0 -8 -3 -22.5t-8.5 -37.5t-13 -56.5t-16.5 -79.5q10 0 19 0.5t18 0.5h26.5t30 -1.5
t24.5 -5.5t10 -13t-17.5 -15t-41 -11t-47.5 -9.5t-37 -9.5q-11 -48 -19 -102.5t-8 -102.5q0 -6 0.5 -16t1 -20.5t2 -18t4.5 -7.5q11 0 45.5 32.5t73.5 93.5q5 5 12 5t12 -4.5t5 -11.5q0 -5 -5 -12q-14 -27 -33.5 -56t-40.5 -52t-42 -38t-39 -15q-17 0 -27.5 12t-17 29t-9 36
t-2.5 34q0 20 1.5 39t3.5 36zM261 481q9 -8 9 -20q0 -10 -4.5 -20.5t-10.5 -19.5t-11.5 -15t-7.5 -6q-1 0 -3 8q3 8 7 16.5t4 15.5q0 3 -3 5.5t-6.5 5t-6.5 6t-3 9.5q0 8 6 14.5t15 6.5t15 -6z" />
    <glyph glyph-name="Tbar" unicode="&#x166;" horiz-adv-x="663" 
d="M425 508q0 -5 -2.5 -9t-4.5 -6l-28 -210q-9 -87 -33 -174q-8 -26 -18.5 -52.5t-27.5 -48t-42.5 -35.5t-61.5 -14q-29 0 -58.5 11t-53 28.5t-38 40.5t-14.5 47q0 26 17.5 46.5t42.5 35t52.5 23.5t47.5 12q27 5 53 8t52 3h16l31 157l-18 -7q-21 -10 -48.5 -21.5t-57.5 -21
t-61 -16t-59 -6.5q-45 0 -76.5 21.5t-33.5 77.5q0 41 21 72.5t56.5 54.5t82 38.5t97.5 25t103 13.5t99 4q38 0 68.5 -2t50.5 -6q19 -4 40 -9.5t30 -18.5v-3q-2 -7 -11 -8.5t-21 -1.5q-20 0 -34 1t-25.5 2t-22 2t-23.5 1q-72 0 -146 -10.5t-146 -32.5q-22 -6 -49.5 -16.5
t-52 -26t-41 -36.5t-16.5 -49q0 -23 17 -29t38 -6q51 0 105 12.5t102 31.5l41 16q3 13 6 31t7.5 34.5t11 29.5t15.5 16q9 0 13.5 -3t7.5 -14v-3zM281 75q13 24 21.5 50.5t14.5 54.5q-25 -2 -52.5 -5.5t-54.5 -10t-52 -17.5t-45 -26q-11 -9 -11 -24q0 -17 10 -30.5t25 -23
t32.5 -15t31.5 -5.5q23 0 44.5 12t35.5 40zM503.938 488q12.2119 -1 19.082 -6q6.86914 -5 6.86914 -11q0 -8 -15.2656 -13t-38.9268 -7.5q-23.6621 -2.5 -52.666 -3.5q-29.0049 -1 -58.0088 -1q-29.0049 0 -61.0625 1t-67.168 3q0 2 -0.763672 4q-0.762695 2 -0.762695 4
q0 7 13.7393 15q61.0615 6 107.621 11t104.569 5q10.6855 0 20.6084 -0.5q9.92188 -0.5 22.1348 -0.5z" />
    </font>
</defs>
</svg>
