<?xml version="1.0" standalone="no"?>
<!DOCTYPE svg PUBLIC "-//W3C//DTD SVG 20010904//EN"
 "http://www.w3.org/TR/2001/REC-SVG-20010904/DTD/svg10.dtd">
<svg version="1.0" xmlns="http://www.w3.org/2000/svg"
 width="600.000000pt" height="600.000000pt" viewBox="0 0 600.000000 600.000000"
 preserveAspectRatio="xMidYMid meet">
<metadata>
Created by potrace 1.11, written by Peter Selinger 2001-2013
</metadata>
<g transform="translate(0.000000,600.000000) scale(0.100000,-0.100000)"
fill="#000000" stroke="none">
<path d="M0 3000 l0 -3000 3000 0 3000 0 0 3000 0 3000 -3000 0 -3000 0 0
-3000z m2076 1665 c165 -27 359 -96 407 -147 30 -32 36 -81 12 -111 -7 -10
-31 -23 -52 -27 -33 -8 -49 -4 -133 34 -132 60 -180 71 -290 70 -75 -1 -112
-7 -175 -28 -200 -68 -375 -202 -451 -346 -29 -55 -25 -170 8 -240 55 -120
211 -289 463 -505 329 -282 533 -517 627 -724 21 -47 44 -97 51 -110 10 -18
39 -32 147 -66 141 -44 326 -110 468 -166 45 -18 84 -30 87 -27 8 8 123 461
155 613 17 77 60 302 96 500 35 198 89 461 120 585 52 213 57 227 90 258 40
38 74 36 113 -6 29 -32 27 -55 -23 -267 -19 -82 -34 -150 -33 -152 3 -2 36 52
157 257 103 174 193 291 308 401 165 159 263 208 432 217 160 8 264 -31 362
-136 150 -161 184 -481 82 -789 -57 -172 -175 -384 -303 -543 l-52 -64 58 -16
c97 -26 155 -60 220 -128 101 -104 159 -233 189 -417 29 -179 -4 -408 -84
-580 -230 -497 -578 -758 -1113 -835 -104 -15 -283 -9 -388 14 -85 19 -230 84
-317 144 -33 22 -89 68 -125 104 -143 140 -221 282 -251 460 -11 60 -10 78 5
135 10 37 28 81 41 98 l25 32 -186 57 c-102 31 -187 55 -189 53 -2 -2 1 -39 7
-83 18 -131 -9 -322 -62 -432 -74 -151 -223 -298 -389 -382 -148 -75 -386
-137 -614 -159 -380 -38 -753 38 -968 197 -68 50 -147 138 -182 202 -81 149
-87 396 -13 578 52 129 173 278 293 359 309 210 683 245 1269 119 61 -13 111
-23 113 -21 2 2 -6 23 -18 48 -36 76 -178 242 -426 497 -277 285 -339 355
-417 471 -106 160 -147 271 -147 404 0 120 26 192 108 298 111 145 334 273
534 306 85 14 255 12 354 -4z"/>
<path d="M4645 4319 c-166 -48 -405 -338 -594 -719 -264 -532 -411 -970 -601
-1783 -33 -142 -62 -263 -65 -268 -8 -12 84 -69 170 -107 226 -98 503 -79 761
51 222 112 398 296 511 533 98 207 126 469 68 634 -63 178 -216 226 -430 135
-22 -10 -88 -48 -146 -86 -98 -64 -110 -69 -160 -69 -67 0 -114 27 -135 75
-16 39 -18 102 -5 137 12 33 109 124 278 262 77 63 174 152 215 196 281 309
394 794 226 976 -43 46 -45 47 -93 33z"/>
<path d="M1295 2444 c-304 -47 -541 -176 -613 -334 -31 -66 -41 -182 -22 -262
14 -58 61 -136 112 -185 50 -48 173 -109 267 -133 191 -48 450 -48 660 1 201
47 416 144 495 224 46 47 91 136 107 214 17 81 6 220 -25 317 l-26 81 -82 16
c-349 69 -676 92 -873 61z"/>
<path d="M3158 2024 c-24 -13 -28 -21 -28 -60 0 -54 20 -139 30 -127 4 4 13
44 19 88 7 44 15 88 17 98 6 21 -2 21 -38 1z"/>
</g>
</svg>
